<?xml version="1.0" standalone="no"?><!-- Generator: Gravit.io --><svg xmlns="http://www.w3.org/2000/svg" xmlns:xlink="http://www.w3.org/1999/xlink" style="isolation:isolate" viewBox="-1284.112 519.173 146.343 146.343" width="146.343" height="146.343"><path d=" M -1210.941 519.173 C -1251.291 519.173 -1284.112 552.004 -1284.112 592.344 C -1284.112 632.684 -1251.291 665.516 -1210.941 665.516 C -1170.59 665.516 -1137.769 632.684 -1137.769 592.344 C -1137.769 552.004 -1170.59 519.173 -1210.941 519.173 Z  M -1210.941 524.219 C -1173.378 524.219 -1142.815 554.782 -1142.815 592.344 C -1142.815 629.906 -1173.378 660.469 -1210.941 660.469 C -1248.503 660.469 -1279.066 629.906 -1279.066 592.344 C -1279.066 554.782 -1248.503 524.219 -1210.941 524.219 Z  M -1210.941 534.312 C -1221.084 534.312 -1230.621 536.936 -1238.922 541.528 C -1238.991 541.545 -1239.041 541.603 -1239.109 541.634 C -1256.897 551.56 -1268.973 570.562 -1268.973 592.344 C -1268.973 602.487 -1266.349 612.025 -1261.757 620.326 C -1261.739 620.384 -1261.689 620.434 -1261.669 620.493 C -1251.745 638.293 -1232.733 650.377 -1210.941 650.377 C -1200.798 650.377 -1191.26 647.753 -1182.959 643.161 C -1182.891 643.143 -1182.84 643.085 -1182.772 643.055 C -1164.984 633.128 -1152.908 614.127 -1152.908 592.344 C -1152.919 579.095 -1157.454 566.246 -1165.761 555.925 C -1166.663 554.943 -1168.174 554.832 -1169.209 555.673 C -1170.245 556.513 -1170.447 558.014 -1169.672 559.099 C -1168.208 560.944 -1166.868 562.883 -1165.66 564.905 L -1193.279 592.521 L -1193.279 542.436 C -1192.067 542.87 -1190.856 543.284 -1189.66 543.806 C -1188.395 544.313 -1186.955 543.723 -1186.41 542.474 C -1185.864 541.224 -1186.41 539.767 -1187.642 539.184 C -1194.984 535.954 -1202.92 534.294 -1210.941 534.312 Z  M -1210.941 539.358 C -1206.634 539.358 -1202.425 539.931 -1198.325 540.935 L -1198.325 579.986 L -1233.727 544.581 C -1226.619 541.153 -1218.832 539.368 -1210.941 539.358 Z  M -1180.022 544.051 C -1181.026 544.24 -1181.818 545.015 -1182.03 546.015 C -1182.241 547.015 -1181.83 548.044 -1180.988 548.623 C -1179.401 549.708 -1177.865 550.889 -1176.406 552.14 C -1175.932 552.544 -1175.341 552.753 -1174.759 552.753 C -1173.705 552.75 -1172.764 552.094 -1172.398 551.106 C -1172.032 550.118 -1172.317 549.007 -1173.113 548.318 C -1174.717 546.939 -1176.395 545.65 -1178.14 544.455 C -1178.688 544.075 -1179.366 543.929 -1180.022 544.051 Z  M -1238.35 547.086 L -1210.764 574.682 L -1260.841 574.682 C -1256.735 563.173 -1248.793 553.428 -1238.35 547.084 L -1238.35 547.086 Z  M -1163.16 569.537 C -1159.753 576.659 -1157.975 584.45 -1157.954 592.344 C -1157.954 596.702 -1158.535 600.91 -1159.531 604.96 L -1198.572 604.96 L -1163.16 569.537 Z  M -1205.743 579.698 L -1198.451 586.99 C -1198.411 587.033 -1198.363 587.04 -1198.322 587.071 L -1198.322 597.39 C -1198.322 597.441 -1198.292 597.491 -1198.292 597.549 L -1205.584 604.841 C -1205.627 604.872 -1205.627 604.92 -1205.665 604.96 L -1215.987 604.96 C -1216.037 604.96 -1216.088 604.99 -1216.136 605 L -1223.428 597.696 C -1223.468 597.655 -1223.516 597.645 -1223.556 597.618 L -1223.556 587.298 C -1223.556 587.247 -1223.587 587.197 -1223.587 587.139 L -1216.295 579.857 C -1216.252 579.817 -1216.252 579.769 -1216.214 579.728 L -1205.894 579.728 C -1205.844 579.728 -1205.793 579.698 -1205.745 579.698 L -1205.743 579.698 Z  M -1262.35 579.728 L -1223.309 579.728 L -1258.704 615.131 C -1262.132 608.023 -1263.917 600.235 -1263.927 592.344 C -1263.927 587.987 -1263.347 583.778 -1262.35 579.728 Z  M -1228.603 592.157 L -1228.603 642.245 C -1240.111 638.138 -1249.856 630.196 -1256.201 619.753 L -1228.603 592.157 Z  M -1223.556 604.703 L -1188.154 640.108 C -1195.262 643.535 -1203.05 645.32 -1210.941 645.33 C -1215.298 645.33 -1219.507 644.75 -1223.556 643.753 L -1223.556 604.703 Z  M -1211.117 610.006 L -1161.04 610.006 C -1165.147 621.515 -1173.089 631.26 -1183.532 637.605 L -1211.117 610.006 Z " fill="rgb(0,0,0)"/></svg>