<?xml version="1.0" standalone="no"?><!-- Generator: Gravit.io --><svg xmlns="http://www.w3.org/2000/svg" xmlns:xlink="http://www.w3.org/1999/xlink" style="isolation:isolate" viewBox="-1092.757 318.859 121.598 141.864" width="121.598" height="141.864"><path d=" M -1082.624 318.859 C -1088.215 318.859 -1092.757 323.401 -1092.757 328.992 L -1092.757 450.59 C -1092.757 456.181 -1088.215 460.723 -1082.624 460.723 L -993.958 460.723 C -989.773 460.723 -986.359 457.308 -986.359 453.124 L -986.359 445.058 C -983.42 444.009 -981.292 441.22 -981.292 437.924 L -981.292 421.754 L -973.971 418.093 C -972.241 417.243 -971.149 415.479 -971.159 413.551 L -971.159 389.791 C -971.159 389.513 -971.179 389.259 -971.237 388.998 C -971.179 388.753 -971.159 388.504 -971.159 388.218 L -971.159 364.458 C -971.159 364.18 -971.179 363.926 -971.237 363.665 C -971.179 363.42 -971.159 363.171 -971.159 362.885 L -971.159 339.125 C -971.159 336.334 -973.434 334.059 -976.225 334.059 L -981.292 334.059 L -981.292 326.459 C -981.292 322.274 -984.707 318.859 -988.892 318.859 L -1082.624 318.859 Z  M -1082.624 323.926 L -988.892 323.926 C -987.499 323.926 -986.359 325.066 -986.359 326.459 L -986.359 437.924 C -986.359 439.317 -987.499 440.457 -988.892 440.457 L -1062.357 440.457 L -1062.357 351.792 C -1062.357 350.393 -1063.491 349.259 -1064.891 349.259 C -1066.29 349.259 -1067.424 350.393 -1067.424 351.792 L -1067.424 440.457 L -1082.624 440.457 C -1084.187 440.457 -1086.018 441.022 -1087.69 442.061 L -1087.69 328.992 C -1087.69 326.201 -1085.415 323.926 -1082.624 323.926 Z  M -1080.09 328.992 C -1081.489 328.992 -1082.624 330.126 -1082.624 331.526 C -1082.624 332.925 -1081.489 334.059 -1080.09 334.059 L -1075.024 334.059 C -1073.625 334.059 -1072.49 332.925 -1072.49 331.526 C -1072.49 330.126 -1073.625 328.992 -1075.024 328.992 L -1080.09 328.992 Z  M -1064.891 328.992 C -1066.29 328.992 -1067.424 330.126 -1067.424 331.526 L -1067.424 341.659 C -1067.424 343.058 -1066.29 344.192 -1064.891 344.192 C -1063.491 344.192 -1062.357 343.058 -1062.357 341.659 L -1062.357 331.526 C -1062.357 330.126 -1063.491 328.992 -1064.891 328.992 Z  M -981.292 339.125 L -976.225 339.125 L -976.225 362.885 L -979.362 364.458 L -981.292 365.418 L -981.292 339.125 Z  M -1080.09 341.659 C -1081.489 341.659 -1082.624 342.793 -1082.624 344.192 C -1082.624 345.591 -1081.489 346.725 -1080.09 346.725 L -1075.024 346.725 C -1073.625 346.725 -1072.49 345.591 -1072.49 344.192 C -1072.49 342.793 -1073.625 341.659 -1075.024 341.659 L -1080.09 341.659 Z  M -1080.09 354.325 C -1081.489 354.325 -1082.624 355.459 -1082.624 356.858 C -1082.624 358.258 -1081.489 359.392 -1080.09 359.392 L -1075.024 359.392 C -1073.625 359.392 -1072.49 358.258 -1072.49 356.858 C -1072.49 355.459 -1073.625 354.325 -1075.024 354.325 L -1080.09 354.325 Z  M -1026.891 354.325 C -1038.063 354.325 -1047.158 363.42 -1047.158 374.591 L -1047.158 389.791 C -1047.158 400.963 -1038.063 410.058 -1026.891 410.058 L -1009.158 410.058 C -1007.759 410.058 -1006.625 408.923 -1006.625 407.524 C -1006.625 406.125 -1007.759 404.991 -1009.158 404.991 L -1026.891 404.991 C -1035.274 404.991 -1042.091 398.174 -1042.091 389.791 L -1042.091 374.591 C -1042.091 366.209 -1035.274 359.392 -1026.891 359.392 L -1021.825 359.392 C -1013.442 359.392 -1006.625 366.209 -1006.625 374.591 L -1006.625 392.325 C -1006.625 393.718 -1007.765 394.858 -1009.158 394.858 C -1010.552 394.858 -1011.691 393.718 -1011.691 392.325 L -1011.691 377.125 C -1011.691 370.138 -1017.371 364.458 -1024.358 364.458 C -1031.345 364.458 -1037.024 370.138 -1037.024 377.125 L -1037.024 387.258 C -1037.024 394.245 -1031.345 399.924 -1024.358 399.924 C -1021.076 399.919 -1017.925 398.638 -1015.57 396.352 C -1014.194 398.571 -1011.769 399.922 -1009.158 399.924 C -1004.973 399.924 -1001.558 396.51 -1001.558 392.325 L -1001.558 374.591 C -1001.558 363.42 -1010.653 354.325 -1021.825 354.325 L -1026.891 354.325 Z  M -1080.09 366.992 C -1081.489 366.992 -1082.624 368.126 -1082.624 369.525 C -1082.624 370.924 -1081.489 372.058 -1080.09 372.058 L -1075.024 372.058 C -1073.625 372.058 -1072.49 370.924 -1072.49 369.525 C -1072.49 368.126 -1073.625 366.992 -1075.024 366.992 L -1080.09 366.992 Z  M -976.225 368.565 L -976.225 388.218 L -979.362 389.791 L -981.292 390.751 L -981.292 371.096 L -976.225 368.565 Z  M -1024.358 369.525 C -1020.173 369.525 -1016.758 372.94 -1016.758 377.125 L -1016.758 387.258 C -1016.758 391.443 -1020.173 394.858 -1024.358 394.858 C -1028.543 394.858 -1031.958 391.443 -1031.958 387.258 L -1031.958 377.125 C -1031.958 372.94 -1028.543 369.525 -1024.358 369.525 Z  M -1080.09 379.658 C -1081.489 379.658 -1082.624 380.792 -1082.624 382.191 C -1082.624 383.59 -1081.489 384.725 -1080.09 384.725 L -1075.024 384.725 C -1073.625 384.725 -1072.49 383.59 -1072.49 382.191 C -1072.49 380.792 -1073.625 379.658 -1075.024 379.658 L -1080.09 379.658 Z  M -1080.09 392.325 C -1081.489 392.325 -1082.624 393.459 -1082.624 394.858 C -1082.624 396.257 -1081.489 397.391 -1080.09 397.391 L -1075.024 397.391 C -1073.625 397.391 -1072.49 396.257 -1072.49 394.858 C -1072.49 393.459 -1073.625 392.325 -1075.024 392.325 L -1080.09 392.325 Z  M -976.225 393.898 L -976.225 413.551 L -981.292 416.084 L -981.292 396.428 L -976.225 393.898 Z  M -1080.09 404.991 C -1081.489 404.991 -1082.624 406.125 -1082.624 407.524 C -1082.624 408.923 -1081.489 410.058 -1080.09 410.058 L -1075.024 410.058 C -1073.625 410.058 -1072.49 408.923 -1072.49 407.524 C -1072.49 406.125 -1073.625 404.991 -1075.024 404.991 L -1080.09 404.991 Z  M -1080.09 417.657 C -1081.489 417.657 -1082.624 418.792 -1082.624 420.191 C -1082.624 421.59 -1081.489 422.724 -1080.09 422.724 L -1075.024 422.724 C -1073.625 422.724 -1072.49 421.59 -1072.49 420.191 C -1072.49 418.792 -1073.625 417.657 -1075.024 417.657 L -1080.09 417.657 Z  M -1080.09 430.324 C -1081.489 430.324 -1082.624 431.458 -1082.624 432.857 C -1082.624 434.256 -1081.489 435.39 -1080.09 435.39 L -1075.024 435.39 C -1073.625 435.39 -1072.49 434.256 -1072.49 432.857 C -1072.49 431.458 -1073.625 430.324 -1075.024 430.324 L -1080.09 430.324 Z  M -1082.624 445.524 L -991.425 445.524 L -991.425 453.124 C -991.425 454.517 -992.565 455.657 -993.958 455.657 L -1082.624 455.657 C -1085.415 455.657 -1087.69 453.382 -1087.69 450.59 C -1087.69 447.434 -1084.169 445.524 -1082.624 445.524 Z " fill="rgb(0,0,0)"/></svg>