<?xml version="1.0" standalone="no"?><!-- Generator: Gravit.io --><svg xmlns="http://www.w3.org/2000/svg" xmlns:xlink="http://www.w3.org/1999/xlink" style="isolation:isolate" viewBox="598 340 48 36" width="48" height="36"><g id="Group"><path d=" M 631.898 346 L 612.2 346 L 615.603 340.898 C 616 340.301 616.602 340 617.3 340 L 626.897 340 C 627.601 340 628.198 340.3 628.601 340.898 L 631.898 346 Z " fill="rgb(120,144,156)"/><path d=" M 610 345 L 604 345 L 604 343.2 C 604 342.5 604.5 342 605.2 342 L 608.8 342 C 609.5 342 610 342.5 610 343.2 L 610 345 Z " fill="rgb(120,144,156)"/><path d="M 601.816 344 L 642.184 344 C 644.29 344 646 345.71 646 347.816 L 646 372.184 C 646 374.29 644.29 376 642.184 376 L 601.816 376 C 599.71 376 598 374.29 598 372.184 L 598 347.816 C 598 345.71 599.71 344 601.816 344 Z" style="stroke:none;fill:#51636C;stroke-miterlimit:10;"/><path d=" M 610 360 C 610 353.398 615.398 348 622 348 C 628.602 348 634 353.398 634 360 C 634 366.602 628.602 372 622 372 C 615.398 372 610 366.602 610 360 Z " fill="rgb(120,144,156)"/><path d=" M 631 360 C 631 364.969 626.969 369 622 369 C 617.031 369 613 364.969 613 360 C 613 355.031 617.031 351 622 351 C 626.969 351 631 355.031 631 360 Z " fill="rgb(55,64,68)"/><path d=" M 626.898 356.8 C 625.699 355.398 623.898 354.602 622.102 354.602 C 620.301 354.602 618.5 355.398 617.301 356.801 C 616.801 357.301 616.898 358.101 617.398 358.601 C 617.898 359.101 618.7 359 619.2 358.5 C 620.7 356.8 623.501 356.8 625.001 358.5 C 625.301 358.8 625.603 358.898 626.001 358.898 C 626.301 358.898 626.603 358.801 626.899 358.602 C 627.399 358.199 627.399 357.398 626.899 356.801 L 626.898 356.8 Z " fill="rgb(100,110,115)"/><path d=" M 609 347.398 C 609 346.57 608.105 345.898 607 345.898 C 605.895 345.898 605 346.57 605 347.398 C 605 348.227 605.895 348.898 607 348.898 C 608.105 348.898 609 348.227 609 347.398 Z " fill="rgb(100,221,23)"/></g></svg>