<?xml version="1.0" standalone="no"?><!-- Generator: Gravit.io --><svg xmlns="http://www.w3.org/2000/svg" xmlns:xlink="http://www.w3.org/1999/xlink" style="isolation:isolate" viewBox="-752.992 331.372 163.707 114.012" width="163.707" height="114.012"><path d=" M -602.919 343.93 L -695.134 343.93 L -695.134 340.701 C -695.134 335.543 -699.35 331.372 -704.463 331.372 L -720.564 331.372 C -725.722 331.372 -729.893 335.588 -729.893 340.701 L -729.893 343.93 L -739.312 343.93 C -746.802 343.93 -752.992 350.03 -752.992 357.61 L -752.992 431.704 C -752.992 439.194 -746.892 445.384 -739.312 445.384 L -602.964 445.384 C -595.474 445.384 -589.284 439.284 -589.284 431.704 L -589.284 357.61 C -589.284 350.03 -595.429 343.93 -602.919 343.93 Z  M -722.941 340.701 C -722.941 339.4 -721.865 338.324 -720.564 338.324 L -704.463 338.324 C -703.162 338.324 -702.086 339.4 -702.086 340.701 L -702.086 343.93 L -722.941 343.93 L -722.941 340.701 L -722.941 340.701 Z  M -739.267 350.837 L -602.919 350.837 C -599.197 350.837 -596.236 353.887 -596.236 357.52 L -596.236 383.354 L -639.249 383.354 C -644.407 370.841 -656.786 361.96 -671.093 361.96 C -685.401 361.96 -697.825 370.841 -702.938 383.354 L -745.95 383.354 L -745.95 357.52 C -746.04 353.887 -742.99 350.837 -739.267 350.837 L -739.267 350.837 Z  M -671.138 368.957 C -655.933 368.957 -643.599 381.336 -643.599 396.496 C -643.599 411.7 -655.978 424.035 -671.138 424.035 C -686.298 424.035 -698.677 411.656 -698.677 396.496 C -698.677 381.291 -686.298 368.957 -671.138 368.957 Z  M -602.919 438.387 L -739.267 438.387 C -742.99 438.387 -745.95 435.337 -745.95 431.704 L -745.95 390.351 L -704.956 390.351 C -705.315 392.369 -705.584 394.433 -705.584 396.496 C -705.584 415.513 -690.11 430.942 -671.138 430.942 C -652.121 430.942 -636.692 415.468 -636.692 396.496 C -636.692 394.388 -636.917 392.28 -637.32 390.351 L -596.326 390.351 L -596.326 431.704 C -596.236 435.337 -599.197 438.387 -602.919 438.387 L -602.919 438.387 Z  M -738.37 377.972 C -736.486 377.972 -734.917 376.402 -734.917 374.519 L -734.917 363.754 C -734.917 362.723 -734.109 361.915 -733.078 361.915 L -712.087 361.915 C -710.204 361.915 -708.634 360.346 -708.634 358.462 C -708.634 356.578 -710.204 355.008 -712.087 355.008 L -733.078 355.008 C -737.877 355.008 -741.824 358.91 -741.824 363.754 L -741.824 374.519 C -741.824 376.402 -740.254 377.972 -738.37 377.972 L -738.37 377.972 Z  M -702.31 361.915 L -694.954 361.915 C -693.07 361.915 -691.501 360.346 -691.501 358.462 C -691.501 356.578 -693.07 355.008 -694.954 355.008 L -702.31 355.008 C -704.194 355.008 -705.763 356.578 -705.763 358.462 C -705.763 360.39 -704.194 361.915 -702.31 361.915 Z  M -671.587 417.217 C -659.88 417.217 -650.417 407.664 -650.417 396.047 C -650.417 384.341 -659.97 374.877 -671.587 374.877 C -683.203 374.877 -692.756 384.431 -692.756 396.047 C -692.756 407.753 -683.248 417.217 -671.587 417.217 Z  M -671.587 382.233 C -663.962 382.233 -657.772 388.467 -657.772 396.047 C -657.772 403.672 -664.007 409.862 -671.587 409.862 C -679.211 409.862 -685.401 403.627 -685.401 396.047 C -685.401 388.378 -679.166 382.233 -671.587 382.233 Z  M -624.852 374.16 L -603.951 374.16 C -602.067 374.16 -600.497 372.59 -600.497 370.706 L -600.497 358.821 C -600.497 356.937 -602.067 355.367 -603.951 355.367 L -624.852 355.367 C -626.735 355.367 -628.305 356.937 -628.305 358.821 L -628.305 370.706 C -628.305 372.635 -626.825 374.16 -624.852 374.16 Z  M -621.398 362.274 L -607.404 362.274 L -607.404 367.208 L -621.398 367.208 L -621.398 362.274 Z " fill="rgb(0,0,0)"/></svg>