<?xml version="1.0" standalone="no"?><!-- Generator: Gravit.io --><svg xmlns="http://www.w3.org/2000/svg" xmlns:xlink="http://www.w3.org/1999/xlink" style="isolation:isolate" viewBox="-1504.385 829.728 165.857 155.491" width="165.857" height="155.491"><path d=" M -1496.611 829.728 C -1500.892 829.728 -1504.385 833.221 -1504.385 837.502 C -1504.385 841.783 -1500.892 845.277 -1496.611 845.277 C -1495.185 845.277 -1494.019 846.443 -1494.019 847.868 L -1494.019 977.444 C -1494.019 981.725 -1490.526 985.218 -1486.245 985.218 C -1481.963 985.218 -1478.47 981.725 -1478.47 977.444 L -1478.47 954.12 L -1457.738 954.12 C -1454.882 954.12 -1452.555 951.793 -1452.555 948.937 L -1452.555 941.163 C -1452.555 939.737 -1451.389 938.571 -1449.963 938.571 L -1424.048 938.571 C -1422.623 938.571 -1421.457 939.737 -1421.457 941.163 L -1421.457 948.937 C -1421.457 951.793 -1419.13 954.12 -1416.274 954.12 L -1346.303 954.12 C -1342.022 954.12 -1338.528 950.627 -1338.528 946.346 L -1338.528 868.6 C -1338.528 864.319 -1342.022 860.826 -1346.303 860.826 L -1478.47 860.826 L -1478.47 842.685 C -1478.47 835.538 -1484.28 829.728 -1491.428 829.728 L -1496.611 829.728 Z  M -1496.611 834.911 L -1491.428 834.911 C -1487.146 834.911 -1483.653 838.404 -1483.653 842.685 L -1483.653 977.444 C -1483.653 978.869 -1484.819 980.035 -1486.245 980.035 C -1487.67 980.035 -1488.836 978.869 -1488.836 977.444 L -1488.836 847.868 C -1488.836 843.587 -1492.329 840.094 -1496.611 840.094 C -1498.036 840.094 -1499.202 838.927 -1499.202 837.502 C -1499.202 836.077 -1498.036 834.911 -1496.611 834.911 Z  M -1478.47 866.009 L -1346.303 866.009 C -1344.878 866.009 -1343.712 867.175 -1343.712 868.6 L -1343.712 946.346 C -1343.712 947.771 -1344.878 948.937 -1346.303 948.937 L -1416.274 948.937 L -1416.274 941.163 C -1416.274 936.881 -1419.767 933.388 -1424.048 933.388 L -1449.963 933.388 C -1454.245 933.388 -1457.738 936.881 -1457.738 941.163 L -1457.738 948.937 L -1478.47 948.937 L -1478.47 923.022 L -1470.696 923.022 C -1466.414 923.022 -1462.921 919.529 -1462.921 915.247 L -1462.921 889.332 C -1462.921 885.051 -1466.414 881.558 -1470.696 881.558 L -1478.47 881.558 L -1478.47 866.009 Z  M -1392.95 873.783 C -1394.381 873.783 -1395.542 874.944 -1395.542 876.375 L -1395.542 882.035 C -1397.739 882.812 -1399.47 884.543 -1400.248 886.741 L -1405.908 886.741 C -1407.339 886.741 -1408.499 887.901 -1408.499 889.332 C -1408.499 890.764 -1407.339 891.924 -1405.908 891.924 L -1400.725 891.924 L -1400.725 897.107 L -1405.908 897.107 C -1407.339 897.107 -1408.499 898.267 -1408.499 899.698 C -1408.499 901.13 -1407.339 902.29 -1405.908 902.29 L -1400.725 902.29 L -1400.725 907.473 L -1405.908 907.473 C -1407.339 907.473 -1408.499 908.633 -1408.499 910.064 C -1408.499 911.496 -1407.339 912.656 -1405.908 912.656 L -1400.248 912.656 C -1399.47 914.854 -1397.739 916.585 -1395.542 917.362 L -1395.542 923.022 C -1395.542 924.453 -1394.381 925.613 -1392.95 925.613 C -1391.519 925.613 -1390.359 924.453 -1390.359 923.022 L -1390.359 917.839 L -1385.176 917.839 L -1385.176 923.022 C -1385.176 924.453 -1384.015 925.613 -1382.584 925.613 C -1381.153 925.613 -1379.993 924.453 -1379.993 923.022 L -1379.993 917.839 L -1374.81 917.839 L -1374.81 923.022 C -1374.81 924.453 -1373.649 925.613 -1372.218 925.613 C -1370.787 925.613 -1369.627 924.453 -1369.627 923.022 L -1369.627 917.362 C -1367.43 916.582 -1365.701 914.853 -1364.92 912.656 L -1359.261 912.656 C -1357.829 912.656 -1356.669 911.496 -1356.669 910.064 C -1356.669 908.633 -1357.829 907.473 -1359.261 907.473 L -1364.444 907.473 L -1364.444 902.29 L -1359.261 902.29 C -1357.829 902.29 -1356.669 901.13 -1356.669 899.698 C -1356.669 898.267 -1357.829 897.107 -1359.261 897.107 L -1364.444 897.107 L -1364.444 891.924 L -1359.261 891.924 C -1357.829 891.924 -1356.669 890.764 -1356.669 889.332 C -1356.669 887.901 -1357.829 886.741 -1359.261 886.741 L -1364.92 886.741 C -1365.701 884.544 -1367.43 882.815 -1369.627 882.035 L -1369.627 876.375 C -1369.627 874.944 -1370.787 873.783 -1372.218 873.783 C -1373.649 873.783 -1374.81 874.944 -1374.81 876.375 L -1374.81 881.558 L -1379.993 881.558 L -1379.993 876.375 C -1379.993 874.944 -1381.153 873.783 -1382.584 873.783 C -1384.015 873.783 -1385.176 874.944 -1385.176 876.375 L -1385.176 881.558 L -1390.359 881.558 L -1390.359 876.375 C -1390.359 874.944 -1391.519 873.783 -1392.95 873.783 Z  M -1447.372 878.966 C -1450.234 878.966 -1452.555 881.287 -1452.555 884.149 C -1452.555 887.012 -1450.234 889.332 -1447.372 889.332 C -1444.509 889.332 -1442.189 887.012 -1442.189 884.149 C -1442.189 881.287 -1444.509 878.966 -1447.372 878.966 Z  M -1478.47 886.741 L -1470.696 886.741 C -1469.27 886.741 -1468.104 887.907 -1468.104 889.332 L -1468.104 915.247 C -1468.104 916.673 -1469.27 917.839 -1470.696 917.839 L -1478.47 917.839 L -1478.47 886.741 Z  M -1392.95 886.741 L -1372.218 886.741 C -1370.793 886.741 -1369.627 887.907 -1369.627 889.332 L -1369.627 910.064 C -1369.627 911.49 -1370.793 912.656 -1372.218 912.656 L -1392.95 912.656 C -1394.376 912.656 -1395.542 911.49 -1395.542 910.064 L -1395.542 889.332 C -1395.542 887.907 -1394.376 886.741 -1392.95 886.741 Z  M -1449.963 897.107 C -1451.395 897.107 -1452.555 898.267 -1452.555 899.698 C -1452.555 901.13 -1451.395 902.29 -1449.963 902.29 L -1424.048 902.29 C -1422.617 902.29 -1421.457 901.13 -1421.457 899.698 C -1421.457 898.267 -1422.617 897.107 -1424.048 897.107 L -1449.963 897.107 Z  M -1449.963 907.473 C -1451.395 907.473 -1452.555 908.633 -1452.555 910.064 C -1452.555 911.496 -1451.395 912.656 -1449.963 912.656 L -1434.414 912.656 C -1432.983 912.656 -1431.823 911.496 -1431.823 910.064 C -1431.823 908.633 -1432.983 907.473 -1434.414 907.473 L -1449.963 907.473 Z  M -1408.499 935.98 C -1409.931 935.98 -1411.091 937.14 -1411.091 938.571 L -1411.091 943.754 C -1411.091 945.185 -1409.931 946.346 -1408.499 946.346 C -1407.068 946.346 -1405.908 945.185 -1405.908 943.754 L -1405.908 938.571 C -1405.908 937.14 -1407.068 935.98 -1408.499 935.98 Z  M -1395.542 935.98 C -1396.973 935.98 -1398.133 937.14 -1398.133 938.571 L -1398.133 943.754 C -1398.133 945.185 -1396.973 946.346 -1395.542 946.346 C -1394.11 946.346 -1392.95 945.185 -1392.95 943.754 L -1392.95 938.571 C -1392.95 937.14 -1394.11 935.98 -1395.542 935.98 Z  M -1382.584 935.98 C -1384.015 935.98 -1385.176 937.14 -1385.176 938.571 L -1385.176 943.754 C -1385.176 945.185 -1384.015 946.346 -1382.584 946.346 C -1381.153 946.346 -1379.993 945.185 -1379.993 943.754 L -1379.993 938.571 C -1379.993 937.14 -1381.153 935.98 -1382.584 935.98 Z  M -1369.627 935.98 C -1371.058 935.98 -1372.218 937.14 -1372.218 938.571 L -1372.218 943.754 C -1372.218 945.185 -1371.058 946.346 -1369.627 946.346 C -1368.195 946.346 -1367.035 945.185 -1367.035 943.754 L -1367.035 938.571 C -1367.035 937.14 -1368.195 935.98 -1369.627 935.98 Z  M -1356.669 935.98 C -1358.1 935.98 -1359.261 937.14 -1359.261 938.571 L -1359.261 943.754 C -1359.261 945.185 -1358.1 946.346 -1356.669 946.346 C -1355.238 946.346 -1354.078 945.185 -1354.078 943.754 L -1354.078 938.571 C -1354.078 937.14 -1355.238 935.98 -1356.669 935.98 Z " fill="rgb(0,0,0)"/></svg>