<?xml version="1.0" standalone="no"?><!-- Generator: Gravit.io --><svg xmlns="http://www.w3.org/2000/svg" xmlns:xlink="http://www.w3.org/1999/xlink" style="isolation:isolate" viewBox="572 190.6 79.51 68.25" width="79.51" height="68.25"><g id="Group"><path d=" M 583.359 207.74 L 583.359 251.282 L 590.931 251.282 L 590.931 245.602 C 590.931 244.557 591.779 243.709 592.824 243.709 L 609.862 243.709 C 610.908 243.709 611.755 244.557 611.755 245.602 L 611.755 251.282 L 651.51 251.282 L 651.51 207.74 L 583.359 207.74 Z " fill="rgb(56,142,60)"/><path d=" M 615.541 243.709 L 619.327 243.709 L 619.327 251.282 L 615.541 251.282 L 615.541 243.709 Z  M 621.221 243.709 L 625.007 243.709 L 625.007 251.282 L 621.221 251.282 L 621.221 243.709 Z  M 626.9 243.709 L 630.686 243.709 L 630.686 251.282 L 626.9 251.282 L 626.9 243.709 Z  M 632.579 243.709 L 636.365 243.709 L 636.365 251.282 L 632.579 251.282 L 632.579 243.709 Z  M 643.938 243.709 L 647.724 243.709 L 647.724 251.282 L 643.938 251.282 L 643.938 243.709 Z " fill="rgb(253,216,53)"/><path d=" M 572 194.6 L 572 190.6 L 579.57 190.6 C 581.11 190.6 582.58 191.21 583.66 192.29 C 584.75 193.38 585.36 194.85 585.36 196.38 L 585.36 258.85 L 581.36 258.85 L 581.36 196.38 C 581.36 195.91 581.17 195.45 580.84 195.12 C 580.5 194.78 580.05 194.6 579.57 194.6 L 572 194.6 Z " fill="rgb(176,190,197)"/><path d=" M 585.252 222.885 L 598.503 222.885 L 598.503 236.137 L 585.252 236.137 L 585.252 222.885 Z " fill="rgb(176,190,197)"/><path d=" M 611.755 220.992 C 611.755 223.083 610.06 224.778 607.969 224.778 C 605.878 224.778 604.183 223.083 604.183 220.992 C 604.183 218.901 605.878 217.206 607.969 217.206 C 610.06 217.206 611.755 218.901 611.755 220.992 Z  M 598.503 230.458 L 623.114 230.458 L 623.114 234.244 L 598.503 234.244 L 598.503 230.458 Z " fill="rgb(27,94,32)"/><path d=" M 609.862 219.099 L 621.221 219.099 L 621.221 222.885 L 609.862 222.885 L 609.862 219.099 Z " fill="rgb(27,94,32)"/><path d=" M 625.007 215.313 L 628.793 215.313 L 628.793 238.03 L 625.007 238.03 L 625.007 215.313 Z  M 630.686 215.313 L 634.472 215.313 L 634.472 238.03 L 630.686 238.03 L 630.686 215.313 Z  M 636.365 215.313 L 640.152 215.313 L 640.152 238.03 L 636.365 238.03 L 636.365 215.313 Z " fill="rgb(236,239,241)"/><path d=" M 621.221 230.458 L 643.938 230.458 L 643.938 234.244 L 621.221 234.244 L 621.221 230.458 Z  M 621.221 224.778 L 643.938 224.778 L 643.938 228.565 L 621.221 228.565 L 621.221 224.778 Z  M 621.221 219.099 L 643.938 219.099 L 643.938 222.885 L 621.221 222.885 L 621.221 219.099 Z " fill="rgb(236,239,241)"/><path d=" M 623.114 217.206 L 642.045 217.206 L 642.045 236.137 L 623.114 236.137 L 623.114 217.206 Z " fill="rgb(55,71,79)"/></g></svg>