<?xml version="1.0" standalone="no"?><!-- Generator: Gravit.io --><svg xmlns="http://www.w3.org/2000/svg" xmlns:xlink="http://www.w3.org/1999/xlink" style="isolation:isolate" viewBox="-1083 520.381 130.209 130.213" width="130.209" height="130.213"><path d=" M -1019.603 520.398 C -1030.284 520.674 -1040.729 523.589 -1050.009 528.883 C -1065.123 537.466 -1076.004 551.412 -1080.622 568.17 C -1085.251 584.931 -1083.077 602.481 -1074.496 617.599 C -1065.912 632.721 -1051.966 643.591 -1035.208 648.209 C -1029.537 649.788 -1023.677 650.59 -1017.79 650.594 C -1006.682 650.594 -995.709 647.717 -985.78 642.083 C -970.658 633.499 -959.788 619.553 -955.17 602.804 C -950.54 586.044 -952.715 568.487 -961.296 553.364 C -969.879 538.245 -983.825 527.375 -1000.583 522.757 C -1006.774 521.04 -1013.183 520.246 -1019.606 520.4 L -1019.603 520.398 Z  M -1017.99 524.868 C -1012.582 524.868 -1007.129 525.597 -1001.773 527.078 C -986.179 531.382 -973.189 541.507 -965.196 555.584 C -957.209 569.66 -955.185 585.999 -959.489 601.603 C -963.793 617.206 -973.918 630.187 -987.995 638.18 C -1002.064 646.167 -1018.41 648.191 -1034.014 643.887 C -1049.608 639.583 -1062.607 629.458 -1070.591 615.381 C -1078.577 601.305 -1080.602 584.967 -1076.298 569.362 C -1071.994 553.759 -1061.869 540.778 -1047.792 532.785 C -1038.554 527.543 -1028.332 524.868 -1017.99 524.868 Z  M -1016.343 533.889 C -1023.025 533.693 -1029.683 534.788 -1035.951 537.114 C -1037.106 537.553 -1037.694 538.841 -1037.266 540.008 C -1037.059 540.567 -1036.639 541.02 -1036.099 541.268 C -1035.558 541.517 -1034.94 541.54 -1034.382 541.332 C -1026.727 538.482 -1018.464 537.662 -1010.399 538.954 C -1009.812 539.049 -1009.211 538.906 -1008.729 538.557 C -1008.248 538.209 -1007.925 537.683 -1007.831 537.096 C -1007.736 536.508 -1007.878 535.906 -1008.226 535.422 C -1008.575 534.939 -1009.101 534.614 -1009.689 534.52 C -1011.892 534.17 -1014.114 533.959 -1016.343 533.889 L -1016.343 533.889 Z  M -1000.702 536.974 C -1001.58 537.019 -1002.385 537.569 -1002.711 538.438 C -1002.922 538.996 -1002.902 539.615 -1002.655 540.158 C -1002.408 540.702 -1001.955 541.124 -1001.396 541.332 C -999.793 541.927 -998.214 542.618 -996.681 543.381 C -996.369 543.544 -996.023 543.628 -995.671 543.628 C -994.857 543.628 -994.069 543.179 -993.665 542.391 C -993.113 541.282 -993.559 539.936 -994.664 539.376 C -996.331 538.534 -998.075 537.782 -999.827 537.123 C -1000.107 537.018 -1000.404 536.968 -1000.702 536.974 Z  M -1018.69 560.806 C -1029.192 561.149 -1038.747 568.249 -1041.691 578.917 C -1043.448 585.225 -1042.608 591.973 -1039.359 597.658 C -1036.144 603.367 -1030.779 607.552 -1024.459 609.282 C -1022.267 609.886 -1020.068 610.166 -1017.893 610.166 C -1007.077 610.166 -997.119 602.979 -994.096 592.049 C -992.333 585.738 -993.173 578.984 -996.427 573.298 C -999.647 567.595 -1005.011 563.414 -1011.328 561.685 C -1013.724 561.024 -1016.206 560.729 -1018.69 560.808 L -1018.69 560.806 Z  M -1018.551 565.294 C -1016.516 565.231 -1014.482 565.474 -1012.519 566.014 C -1007.351 567.429 -1002.962 570.85 -1000.328 575.517 C -997.668 580.17 -996.982 585.695 -998.425 590.857 C -1001.387 601.594 -1012.528 607.913 -1023.266 604.949 C -1028.434 603.535 -1032.824 600.114 -1035.459 595.448 C -1038.119 590.795 -1038.805 585.27 -1037.362 580.108 C -1034.952 571.388 -1027.15 565.576 -1018.551 565.296 L -1018.551 565.294 Z  M -1018.304 569.775 C -1020.881 569.837 -1023.403 570.539 -1025.642 571.817 C -1029.275 573.864 -1031.939 577.28 -1033.04 581.302 C -1034.337 586.034 -1033.352 591.101 -1030.376 595.002 C -1027.399 598.903 -1022.773 601.191 -1017.867 601.191 C -1015.158 601.189 -1012.497 600.482 -1010.145 599.14 C -1006.51 597.094 -1003.845 593.678 -1002.747 589.654 C -1000.451 581.311 -1005.368 572.64 -1013.72 570.336 C -1015.212 569.923 -1016.758 569.734 -1018.306 569.775 L -1018.304 569.775 Z  M -1017.157 574.29 C -1016.412 574.335 -1015.658 574.465 -1014.913 574.676 C -1008.946 576.323 -1005.439 582.492 -1007.077 588.463 C -1008.724 594.436 -1014.9 597.944 -1020.873 596.299 C -1026.833 594.652 -1030.359 588.463 -1028.709 582.503 C -1027.301 577.367 -1022.471 573.933 -1017.157 574.29 L -1017.157 574.29 Z  M -1017.893 580.995 C -1020.372 580.995 -1022.381 583.004 -1022.381 585.483 C -1022.381 587.961 -1020.372 589.971 -1017.893 589.971 C -1015.415 589.971 -1013.405 587.961 -1013.405 585.483 C -1013.405 583.004 -1015.415 580.995 -1017.893 580.995 Z  M -1048.748 612.866 C -1049.343 612.86 -1049.916 613.09 -1050.341 613.505 L -1053.544 616.663 C -1054.343 617.545 -1054.314 618.899 -1053.478 619.746 C -1052.641 620.594 -1051.288 620.64 -1050.395 619.851 L -1047.198 616.705 C -1046.556 616.069 -1046.358 615.109 -1046.697 614.271 C -1047.036 613.433 -1047.844 612.88 -1048.748 612.868 L -1048.748 612.866 Z  M -1039.458 619.912 C -1040.354 619.789 -1041.236 620.218 -1041.691 621 L -1043.962 624.867 C -1044.584 625.934 -1044.233 627.304 -1043.174 627.941 C -1042.66 628.246 -1042.045 628.332 -1041.467 628.18 C -1040.889 628.028 -1040.396 627.651 -1040.098 627.133 L -1037.818 623.271 C -1037.197 622.201 -1037.552 620.83 -1038.614 620.195 C -1038.875 620.05 -1039.16 619.954 -1039.456 619.914 L -1039.458 619.912 Z  M -1029.526 624.366 C -1030.419 624.481 -1031.155 625.121 -1031.393 625.989 L -1032.594 630.32 C -1032.752 630.892 -1032.676 631.503 -1032.383 632.019 C -1032.09 632.535 -1031.604 632.914 -1031.032 633.071 C -1030.823 633.122 -1030.628 633.161 -1030.426 633.161 C -1029.445 633.161 -1028.534 632.501 -1028.263 631.511 L -1027.071 627.18 C -1026.912 626.607 -1026.986 625.995 -1027.279 625.477 C -1027.571 624.959 -1028.058 624.579 -1028.631 624.42 C -1028.923 624.341 -1029.227 624.323 -1029.526 624.366 Z  M -1006.261 624.532 C -1006.559 624.491 -1006.863 624.506 -1007.156 624.577 C -1008.348 624.891 -1009.066 626.119 -1008.76 627.313 L -1007.629 631.659 C -1007.316 632.858 -1006.094 633.578 -1004.894 633.273 C -1003.694 632.959 -1002.975 631.729 -1003.281 630.528 L -1004.412 626.191 C -1004.64 625.317 -1005.367 624.664 -1006.261 624.532 Z  M -1017.929 625.91 C -1019.157 625.91 -1020.155 626.909 -1020.173 628.145 L -1020.207 632.633 C -1020.209 633.228 -1019.975 633.8 -1019.556 634.223 C -1019.137 634.645 -1018.567 634.884 -1017.972 634.886 L -1017.963 634.886 C -1016.732 634.89 -1015.729 633.898 -1015.719 632.667 L -1015.685 628.179 C -1015.672 626.94 -1016.664 625.925 -1017.902 625.91 L -1017.929 625.91 Z " fill="rgb(0,0,0)"/></svg>