<?xml version="1.0" standalone="no"?><!-- Generator: Gravit.io --><svg xmlns="http://www.w3.org/2000/svg" xmlns:xlink="http://www.w3.org/1999/xlink" style="isolation:isolate" viewBox="871 3113 178 148" width="178" height="148"><path d=" M 1032.503 3113.003 C 1031.658 3112.984 1030.813 3113.046 1029.981 3113.187 L 886.898 3137.357 C 880.113 3138.501 875.561 3144.649 876.784 3151.014 L 876.846 3151.343 C 872.813 3153.103 870.337 3157.242 871.156 3161.526 C 871.868 3165.23 874.856 3168.025 878.516 3168.93 L 878.516 3178.28 C 878.471 3178.534 878.471 3178.793 878.516 3179.047 L 878.516 3249.239 C 878.516 3255.708 884.156 3261 891.049 3261 L 1036.433 3261 C 1043.327 3261 1048.966 3255.708 1048.966 3249.239 L 1048.966 3179.07 C 1049.011 3178.816 1049.011 3178.557 1048.966 3178.304 L 1048.966 3157.506 L 909.099 3157.506 L 1046.753 3134.255 L 1044.53 3122.678 C 1043.464 3117.11 1038.316 3113.142 1032.503 3113.003 L 1032.503 3113.003 Z  M 1033.869 3117.886 C 1036.817 3118.503 1039.079 3120.724 1039.602 3123.515 L 1040.93 3130.461 L 1022.216 3133.622 L 1033.869 3117.886 Z  M 1027.377 3118.406 L 1015.24 3134.798 L 1000.015 3137.369 L 1012.154 3120.98 L 1027.377 3118.406 Z  M 1005.178 3122.16 L 993.039 3138.545 L 977.811 3141.119 L 989.948 3124.731 L 1005.178 3122.16 Z  M 982.97 3125.907 L 970.837 3142.302 L 955.615 3144.873 L 967.747 3128.481 L 982.972 3125.907 L 982.97 3125.907 Z  M 960.766 3129.661 L 948.634 3146.049 L 933.401 3148.622 L 945.543 3132.235 L 960.763 3129.661 L 960.766 3129.661 Z  M 938.562 3133.411 L 926.425 3149.803 L 911.205 3152.369 L 923.342 3135.984 L 938.562 3133.411 Z  M 916.366 3137.16 L 904.229 3153.545 L 890.094 3155.935 C 889.969 3155.685 889.818 3155.45 889.673 3155.213 L 901.138 3139.731 L 916.366 3137.16 Z  M 894.157 3140.912 L 886.086 3151.814 C 884.774 3151.076 883.299 3150.631 881.774 3150.513 L 881.712 3150.184 L 881.712 3150.179 C 881.347 3148.336 881.784 3146.433 882.925 3144.893 C 884.065 3143.354 885.815 3142.308 887.783 3141.987 L 894.157 3140.912 Z  M 881.16 3155.154 C 883.504 3155.201 885.529 3156.765 885.963 3159.025 C 885.963 3159.032 885.963 3159.038 885.963 3159.044 C 886.001 3159.249 886.001 3159.446 886.013 3159.646 C 885.997 3159.813 885.999 3159.981 886.021 3160.147 C 885.898 3162.317 884.193 3164.118 881.912 3164.489 C 881.684 3164.527 881.461 3164.529 881.233 3164.539 C 881.066 3164.525 880.898 3164.526 880.732 3164.544 L 880.729 3164.544 C 878.414 3164.433 876.489 3162.834 876.092 3160.691 C 875.845 3159.462 876.134 3158.191 876.894 3157.164 C 877.654 3156.137 878.822 3155.439 880.135 3155.227 C 880.481 3155.17 880.824 3155.147 881.16 3155.154 Z  M 890.701 3162.21 L 905.051 3162.21 L 920.091 3176.323 L 904.62 3176.323 L 890.417 3162.996 C 890.518 3162.737 890.625 3162.478 890.701 3162.21 Z  M 912.14 3162.21 L 927.611 3162.21 L 942.65 3176.323 L 927.18 3176.323 L 912.14 3162.21 Z  M 934.699 3162.21 L 950.17 3162.21 L 965.21 3176.323 L 949.739 3176.323 L 934.699 3162.21 Z  M 957.259 3162.21 L 972.73 3162.21 L 987.77 3176.323 L 972.299 3176.323 L 957.259 3162.21 Z  M 979.819 3162.21 L 995.29 3162.21 L 1010.329 3176.323 L 994.858 3176.323 L 979.819 3162.21 Z  M 1002.378 3162.21 L 1017.849 3162.21 L 1032.889 3176.323 L 1017.418 3176.323 L 1002.378 3162.21 Z  M 1024.938 3162.21 L 1043.953 3162.21 L 1043.953 3176.323 L 1039.978 3176.323 L 1024.938 3162.21 Z  M 887.53 3166.938 L 897.531 3176.323 L 883.529 3176.323 L 883.529 3168.923 C 885.007 3168.558 886.376 3167.879 887.53 3166.938 Z  M 883.529 3181.027 L 1043.953 3181.027 L 1043.953 3249.239 C 1043.953 3253.163 1040.614 3256.296 1036.433 3256.296 L 891.049 3256.296 C 886.868 3256.296 883.529 3253.163 883.529 3249.239 L 883.529 3181.027 Z  M 898.569 3239.831 C 897.184 3239.831 896.062 3240.884 896.062 3242.183 C 896.062 3243.482 897.184 3244.535 898.569 3244.535 C 899.953 3244.535 901.075 3243.482 901.075 3242.183 C 901.075 3240.884 899.953 3239.831 898.569 3239.831 Z  M 908.595 3239.831 C 907.211 3239.831 906.089 3240.884 906.089 3242.183 C 906.089 3243.482 907.211 3244.535 908.595 3244.535 C 909.98 3244.535 911.102 3243.482 911.102 3242.183 C 911.102 3240.884 909.98 3239.831 908.595 3239.831 Z  M 918.622 3239.831 C 917.238 3239.831 916.115 3240.884 916.115 3242.183 C 916.115 3243.482 917.238 3244.535 918.622 3244.535 C 920.006 3244.535 921.129 3243.482 921.129 3242.183 C 921.129 3240.884 920.006 3239.831 918.622 3239.831 Z  M 928.648 3239.831 C 927.264 3239.831 926.142 3240.884 926.142 3242.183 C 926.142 3243.482 927.264 3244.535 928.648 3244.535 C 930.033 3244.535 931.155 3243.482 931.155 3242.183 C 931.155 3240.884 930.033 3239.831 928.648 3239.831 Z  M 938.675 3239.831 C 937.291 3239.831 936.168 3240.884 936.168 3242.183 C 936.168 3243.482 937.291 3244.535 938.675 3244.535 C 940.059 3244.535 941.182 3243.482 941.182 3242.183 C 941.182 3240.884 940.059 3239.831 938.675 3239.831 Z  M 948.701 3239.831 C 947.317 3239.831 946.195 3240.884 946.195 3242.183 C 946.195 3243.482 947.317 3244.535 948.701 3244.535 C 950.086 3244.535 951.208 3243.482 951.208 3242.183 C 951.208 3240.884 950.086 3239.831 948.701 3239.831 Z  M 958.728 3239.831 C 957.344 3239.831 956.221 3240.884 956.221 3242.183 C 956.221 3243.482 957.344 3244.535 958.728 3244.535 C 960.112 3244.535 961.235 3243.482 961.235 3242.183 C 961.235 3240.884 960.112 3239.831 958.728 3239.831 Z  M 968.754 3239.831 C 967.37 3239.831 966.248 3240.884 966.248 3242.183 C 966.248 3243.482 967.37 3244.535 968.754 3244.535 C 970.139 3244.535 971.261 3243.482 971.261 3242.183 C 971.261 3240.884 970.139 3239.831 968.754 3239.831 Z  M 978.781 3239.831 C 977.397 3239.831 976.274 3240.884 976.274 3242.183 C 976.274 3243.482 977.397 3244.535 978.781 3244.535 C 980.165 3244.535 981.288 3243.482 981.288 3242.183 C 981.288 3240.884 980.165 3239.831 978.781 3239.831 Z  M 988.807 3239.831 C 987.423 3239.831 986.301 3240.884 986.301 3242.183 C 986.301 3243.482 987.423 3244.535 988.807 3244.535 C 990.192 3244.535 991.314 3243.482 991.314 3242.183 C 991.314 3240.884 990.192 3239.831 988.807 3239.831 Z  M 998.834 3239.831 C 997.45 3239.831 996.327 3240.884 996.327 3242.183 C 996.327 3243.482 997.45 3244.535 998.834 3244.535 C 1000.218 3244.535 1001.341 3243.482 1001.341 3242.183 C 1001.341 3240.884 1000.218 3239.831 998.834 3239.831 Z  M 1008.86 3239.831 C 1007.476 3239.831 1006.354 3240.884 1006.354 3242.183 C 1006.354 3243.482 1007.476 3244.535 1008.86 3244.535 C 1010.245 3244.535 1011.367 3243.482 1011.367 3242.183 C 1011.367 3240.884 1010.245 3239.831 1008.86 3239.831 Z  M 1018.887 3239.831 C 1017.503 3239.831 1016.38 3240.884 1016.38 3242.183 C 1016.38 3243.482 1017.503 3244.535 1018.887 3244.535 C 1020.271 3244.535 1021.394 3243.482 1021.394 3242.183 C 1021.394 3240.884 1020.271 3239.831 1018.887 3239.831 Z  M 1028.913 3239.831 C 1027.529 3239.831 1026.407 3240.884 1026.407 3242.183 C 1026.407 3243.482 1027.529 3244.535 1028.913 3244.535 C 1030.298 3244.535 1031.42 3243.482 1031.42 3242.183 C 1031.42 3240.884 1030.298 3239.831 1028.913 3239.831 Z " fill="rgb(0,0,0)"/></svg>