<?xml version="1.0" standalone="no"?><!-- Generator: Gravit.io --><svg xmlns="http://www.w3.org/2000/svg" xmlns:xlink="http://www.w3.org/1999/xlink" style="isolation:isolate" viewBox="584 388 40.365 37.965" width="40.365" height="37.965"><g id="clapper2"><path d=" M 623.765 393.265 L 584.365 399.965 L 584.065 397.965 C 583.665 395.765 585.165 393.765 587.365 393.365 L 618.965 388.065 C 621.165 387.665 623.165 389.165 623.565 391.365 L 623.765 393.265 Z " fill="rgb(55,71,79)"/><path d=" M 620.365 425.965 L 588.365 425.965 C 586.165 425.965 584.365 424.165 584.365 421.965 L 584.365 399.965 L 624.365 399.965 L 624.365 421.965 C 624.365 424.165 622.565 425.965 620.365 425.965 Z " fill="rgb(55,71,79)"/><g id="Group"><path d=" M 599.165 391.365 L 604.065 396.665 L 608.065 395.965 L 603.065 390.665 L 599.165 391.365 Z " fill="rgb(207,216,220)"/><path d=" M 591.265 392.665 L 596.165 397.965 L 600.165 397.265 L 595.165 392.065 L 591.265 392.665 Z " fill="rgb(207,216,220)"/><path d=" M 607.065 390.065 L 611.965 395.265 L 615.865 394.665 L 610.965 389.365 L 607.065 390.065 Z " fill="rgb(207,216,220)"/><path d=" M 614.865 388.765 L 619.865 393.965 L 623.765 393.265 L 618.865 388.065 L 614.865 388.765 Z " fill="rgb(207,216,220)"/></g><path d=" M 586.365 396.465 C 586.365 395.637 587.037 394.965 587.865 394.965 C 588.693 394.965 589.365 395.637 589.365 396.465 C 589.365 397.293 588.693 397.965 587.865 397.965 C 587.037 397.965 586.365 397.293 586.365 396.465 Z " fill="rgb(207,216,220)"/><g id="Group"><path d=" M 620.365 399.965 L 616.365 405.965 L 620.365 405.965 L 624.365 399.965 L 620.365 399.965 Z " fill="rgb(207,216,220)"/><path d=" M 612.365 399.965 L 608.365 405.965 L 612.365 405.965 L 616.365 399.965 L 612.365 399.965 Z " fill="rgb(207,216,220)"/><path d=" M 604.365 399.965 L 600.365 405.965 L 604.365 405.965 L 608.365 399.965 L 604.365 399.965 Z " fill="rgb(207,216,220)"/><path d=" M 596.365 399.965 L 592.365 405.965 L 596.365 405.965 L 600.365 399.965 L 596.365 399.965 Z " fill="rgb(207,216,220)"/><path d=" M 588.365 399.965 L 584.365 405.965 L 588.365 405.965 L 592.365 399.965 L 588.365 399.965 Z " fill="rgb(207,216,220)"/></g></g></svg>