<?xml version="1.0" standalone="no"?><!-- Generator: Gravit.io --><svg xmlns="http://www.w3.org/2000/svg" xmlns:xlink="http://www.w3.org/1999/xlink" style="isolation:isolate" viewBox="321.09 378.274 47 39.149" width="47" height="39.149"><g id="Group"><path d=" M 367.863 383.538 L 321.455 391.422 L 321.155 389.422 C 320.755 387.222 322.255 385.222 324.455 384.822 L 363.063 378.338 C 365.263 377.938 367.263 379.438 367.663 381.638 L 367.863 383.538 Z " fill="rgb(55,71,79)"/><path d=" M 364.15 417.422 L 325.395 417.422 C 323.228 417.422 321.455 415.622 321.455 413.422 L 321.455 391.422 L 368.09 391.422 L 368.09 413.422 C 368.09 415.622 366.317 417.422 364.15 417.422 Z " fill="rgb(55,71,79)"/><path d=" M 336.007 382.822 L 340.907 388.122 L 344.907 387.422 L 339.907 382.122 L 336.007 382.822 Z " fill="rgb(207,216,220)"/><path d=" M 328.355 384.122 L 333.255 389.422 L 337.255 388.722 L 332.255 383.522 L 328.355 384.122 Z " fill="rgb(207,216,220)"/><path d=" M 343.763 381.576 L 348.609 386.81 L 352.525 386.139 L 347.706 380.919 L 343.763 381.576 Z " fill="rgb(207,216,220)"/><path d=" M 351.383 380.295 L 356.311 385.492 L 360.305 384.816 L 355.422 379.619 L 351.383 380.295 Z " fill="rgb(207,216,220)"/><path d=" M 358.963 378.974 L 363.963 384.174 L 367.863 383.474 L 362.963 378.274 L 358.963 378.974 Z " fill="rgb(207,216,220)"/><path d=" M 323.455 387.922 C 323.455 387.094 324.127 386.422 324.955 386.422 C 325.783 386.422 326.455 387.094 326.455 387.922 C 326.455 388.75 325.783 389.422 324.955 389.422 C 324.127 389.422 323.455 388.75 323.455 387.922 Z " fill="rgb(207,216,220)"/><path d=" M 356.363 391.422 L 352.363 397.422 L 356.363 397.422 L 360.363 391.422 L 356.363 391.422 Z " fill="rgb(207,216,220)"/><path d=" M 364.09 391.422 L 360.09 397.422 L 364.09 397.422 L 368.09 391.422 L 364.09 391.422 Z " fill="rgb(207,216,220)"/><path d=" M 348.636 391.422 L 344.636 397.422 L 348.636 397.422 L 352.636 391.422 L 348.636 391.422 Z " fill="rgb(207,216,220)"/><path d=" M 340.909 391.422 L 336.909 397.422 L 340.909 397.422 L 344.909 391.422 L 340.909 391.422 Z " fill="rgb(207,216,220)"/><path d=" M 333.182 391.422 L 329.182 397.422 L 333.182 397.422 L 337.182 391.422 L 333.182 391.422 Z " fill="rgb(207,216,220)"/><path d=" M 325.455 391.422 L 321.455 397.422 L 325.455 397.422 L 329.455 391.422 L 325.455 391.422 Z " fill="rgb(207,216,220)"/></g></svg>