<?xml version="1.0" standalone="no"?><!-- Generator: Gravit.io --><svg xmlns="http://www.w3.org/2000/svg" xmlns:xlink="http://www.w3.org/1999/xlink" style="isolation:isolate" viewBox="-1040.156 -41.947 169 129.037" width="169" height="129.037"><path d=" M -1011.092 50.447 L -1014.815 50.447 C -1016.673 50.447 -1018.179 48.941 -1018.179 47.083 C -1018.179 45.225 -1016.673 43.719 -1014.815 43.719 L -1011.092 43.719 C -1009.253 43.719 -1007.728 45.199 -1007.728 47.083 C -1007.773 48.967 -1009.253 50.447 -1011.092 50.447 Z  M -883.49 -41.947 L -1027.822 -41.947 C -1034.594 -41.947 -1040.156 -36.206 -1040.156 -29.164 L -1040.156 52.331 C -1040.156 59.372 -1034.639 65.113 -1027.822 65.113 L -965.703 65.113 L -965.703 80.363 L -985.617 80.363 C -987.474 80.363 -988.981 81.869 -988.981 83.727 C -988.981 85.584 -987.474 87.09 -985.617 87.09 L -925.695 87.09 C -923.837 87.09 -922.331 85.584 -922.331 83.727 C -922.331 81.869 -923.837 80.363 -925.695 80.363 L -945.834 80.363 L -945.834 65.113 L -883.49 65.113 C -876.718 65.113 -871.156 59.372 -871.156 52.331 L -871.156 -29.164 C -871.156 -36.206 -876.673 -41.947 -883.49 -41.947 Z  M -952.516 80.363 L -958.975 80.363 L -958.975 65.113 L -952.516 65.113 L -952.516 80.363 Z  M -883.49 58.43 L -1027.822 58.43 C -1030.917 58.43 -1033.473 55.694 -1033.473 52.331 L -1033.473 50.447 L -1025.445 50.447 C -1023.587 50.447 -1022.081 48.941 -1022.081 47.083 C -1022.081 45.225 -1023.587 43.719 -1025.445 43.719 L -1033.473 43.719 L -1033.473 -29.164 C -1033.473 -32.528 -1030.961 -35.264 -1027.822 -35.264 L -883.49 -35.264 C -880.395 -35.264 -877.839 -32.528 -877.839 -29.164 L -877.839 43.764 L -996.785 43.764 C -998.642 43.764 -1000.149 45.27 -1000.149 47.128 C -1000.149 48.986 -998.642 50.492 -996.785 50.492 L -877.839 50.492 L -877.839 52.375 C -877.839 55.694 -880.351 58.43 -883.49 58.43 L -883.49 58.43 Z " fill="rgb(0,0,0)"/></svg>