<?xml version="1.0" standalone="no"?><!-- Generator: Gravit.io --><svg xmlns="http://www.w3.org/2000/svg" xmlns:xlink="http://www.w3.org/1999/xlink" style="isolation:isolate" viewBox="-1094.045 307.947 174.432 162.803" width="174.432" height="162.803"><path d=" M -1050.436 307.947 C -1052.05 307.947 -1053.344 309.24 -1053.344 310.854 L -1053.344 319.575 L -1067.88 319.575 C -1075.898 319.575 -1082.416 326.093 -1082.416 334.111 L -1082.416 342.833 L -1091.137 342.833 C -1092.751 342.833 -1094.045 344.127 -1094.045 345.74 C -1094.045 347.354 -1092.751 348.647 -1091.137 348.647 L -1082.416 348.647 L -1082.416 360.276 L -1091.137 360.276 C -1092.751 360.276 -1094.045 361.57 -1094.045 363.183 C -1094.045 364.797 -1092.751 366.091 -1091.137 366.091 L -1082.416 366.091 L -1082.416 377.719 L -1091.137 377.719 C -1092.751 377.719 -1094.045 379.013 -1094.045 380.627 C -1094.045 382.24 -1092.751 383.534 -1091.137 383.534 L -1082.416 383.534 L -1082.416 395.163 L -1091.137 395.163 C -1092.751 395.163 -1094.045 396.456 -1094.045 398.07 C -1094.045 399.683 -1092.751 400.977 -1091.137 400.977 L -1082.416 400.977 L -1082.416 412.606 L -1091.137 412.606 C -1092.751 412.606 -1094.045 413.9 -1094.045 415.513 C -1094.045 417.127 -1092.751 418.42 -1091.137 418.42 L -1082.416 418.42 L -1082.416 430.049 L -1091.137 430.049 C -1092.751 430.049 -1094.045 431.343 -1094.045 432.956 C -1094.045 434.57 -1092.751 435.863 -1091.137 435.863 L -1082.416 435.863 L -1082.416 444.585 C -1082.416 452.603 -1075.898 459.121 -1067.88 459.121 L -1053.344 459.121 L -1053.344 467.843 C -1053.344 469.456 -1052.05 470.75 -1050.436 470.75 C -1048.823 470.75 -1047.529 469.456 -1047.529 467.843 L -1047.529 459.121 L -1035.9 459.121 L -1035.9 467.843 C -1035.9 469.456 -1034.607 470.75 -1032.993 470.75 C -1031.38 470.75 -1030.086 469.456 -1030.086 467.843 L -1030.086 459.121 L -1018.457 459.121 L -1018.457 467.843 C -1018.457 469.456 -1017.164 470.75 -1015.55 470.75 C -1013.937 470.75 -1012.643 469.456 -1012.643 467.843 L -1012.643 459.121 L -1001.014 459.121 L -1001.014 467.843 C -1001.014 469.456 -999.72 470.75 -998.107 470.75 C -996.493 470.75 -995.2 469.456 -995.2 467.843 L -995.2 459.121 L -983.571 459.121 L -983.571 467.843 C -983.571 469.456 -982.277 470.75 -980.664 470.75 C -979.05 470.75 -977.756 469.456 -977.756 467.843 L -977.756 459.121 L -966.128 459.121 L -966.128 467.843 C -966.128 469.456 -964.834 470.75 -963.22 470.75 C -961.607 470.75 -960.313 469.456 -960.313 467.843 L -960.313 459.121 L -945.777 459.121 C -937.759 459.121 -931.241 452.603 -931.241 444.585 L -931.241 435.863 L -922.52 435.863 C -920.906 435.863 -919.612 434.57 -919.612 432.956 C -919.612 431.343 -920.906 430.049 -922.52 430.049 L -931.241 430.049 L -931.241 418.42 L -922.52 418.42 C -920.906 418.42 -919.612 417.127 -919.612 415.513 C -919.612 413.9 -920.906 412.606 -922.52 412.606 L -931.241 412.606 L -931.241 400.977 L -922.52 400.977 C -920.906 400.977 -919.612 399.683 -919.612 398.07 C -919.612 396.456 -920.906 395.163 -922.52 395.163 L -931.241 395.163 L -931.241 383.534 L -922.52 383.534 C -920.906 383.534 -919.612 382.24 -919.612 380.627 C -919.612 379.013 -920.906 377.719 -922.52 377.719 L -931.241 377.719 L -931.241 366.091 L -922.52 366.091 C -920.906 366.091 -919.612 364.797 -919.612 363.183 C -919.612 361.57 -920.906 360.276 -922.52 360.276 L -931.241 360.276 L -931.241 348.647 L -922.52 348.647 C -920.906 348.647 -919.612 347.354 -919.612 345.74 C -919.612 344.127 -920.906 342.833 -922.52 342.833 L -931.241 342.833 L -931.241 334.111 C -931.241 326.093 -937.759 319.575 -945.777 319.575 L -960.313 319.575 L -960.313 310.854 C -960.313 309.24 -961.607 307.947 -963.22 307.947 C -964.834 307.947 -966.128 309.24 -966.128 310.854 L -966.128 319.575 L -977.756 319.575 L -977.756 310.854 C -977.756 309.24 -979.05 307.947 -980.664 307.947 C -982.277 307.947 -983.571 309.24 -983.571 310.854 L -983.571 319.575 L -995.2 319.575 L -995.2 310.854 C -995.2 309.24 -996.493 307.947 -998.107 307.947 C -999.72 307.947 -1001.014 309.24 -1001.014 310.854 L -1001.014 319.575 L -1012.643 319.575 L -1012.643 310.854 C -1012.643 309.24 -1013.937 307.947 -1015.55 307.947 C -1017.164 307.947 -1018.457 309.24 -1018.457 310.854 L -1018.457 319.575 L -1030.086 319.575 L -1030.086 310.854 C -1030.086 309.24 -1031.38 307.947 -1032.993 307.947 C -1034.607 307.947 -1035.9 309.24 -1035.9 310.854 L -1035.9 319.575 L -1047.529 319.575 L -1047.529 310.854 C -1047.529 309.24 -1048.823 307.947 -1050.436 307.947 Z  M -1067.88 325.39 L -945.777 325.39 C -940.975 325.39 -937.056 329.309 -937.056 334.111 L -937.056 444.585 C -937.056 449.388 -940.975 453.307 -945.777 453.307 L -1067.88 453.307 C -1072.682 453.307 -1076.601 449.388 -1076.601 444.585 L -1076.601 334.111 C -1076.601 329.309 -1072.682 325.39 -1067.88 325.39 Z  M -1059.158 337.019 C -1062.362 337.019 -1064.972 339.629 -1064.972 342.833 L -1064.972 435.863 C -1064.972 439.067 -1062.362 441.678 -1059.158 441.678 L -954.499 441.678 C -951.295 441.678 -948.684 439.067 -948.684 435.863 L -948.684 342.833 C -948.684 339.629 -951.295 337.019 -954.499 337.019 L -1059.158 337.019 Z  M -1059.158 342.833 L -954.499 342.833 L -954.499 435.863 L -1059.158 435.863 L -1059.158 342.833 Z  M -1038.808 354.462 C -1042.752 354.464 -1046.204 357.115 -1047.225 360.925 C -1048.245 364.736 -1046.579 368.757 -1043.164 370.73 C -1039.748 372.703 -1035.433 372.137 -1032.641 369.35 C -1030.145 366.856 -1029.397 363.104 -1030.747 359.844 C -1032.098 356.584 -1035.279 354.46 -1038.808 354.462 Z  M -1038.808 360.276 C -1037.202 360.276 -1035.9 361.578 -1035.9 363.183 C -1035.9 364.789 -1037.202 366.091 -1038.808 366.091 C -1040.413 366.091 -1041.715 364.789 -1041.715 363.183 C -1041.715 361.578 -1040.413 360.276 -1038.808 360.276 Z  M -1027.179 383.534 C -1028.792 383.534 -1030.086 384.828 -1030.086 386.441 C -1030.086 388.055 -1028.792 389.348 -1027.179 389.348 L -980.664 389.348 C -979.05 389.348 -977.756 388.055 -977.756 386.441 C -977.756 384.828 -979.05 383.534 -980.664 383.534 L -1027.179 383.534 Z  M -1027.179 395.163 C -1028.792 395.163 -1030.086 396.456 -1030.086 398.07 C -1030.086 399.683 -1028.792 400.977 -1027.179 400.977 L -1012.643 400.977 C -1011.029 400.977 -1009.736 399.683 -1009.736 398.07 C -1009.736 396.456 -1011.029 395.163 -1012.643 395.163 L -1027.179 395.163 Z  M -1001.014 395.163 C -1002.628 395.163 -1003.921 396.456 -1003.921 398.07 C -1003.921 399.683 -1002.628 400.977 -1001.014 400.977 L -995.2 400.977 C -993.586 400.977 -992.292 399.683 -992.292 398.07 C -992.292 396.456 -993.586 395.163 -995.2 395.163 L -1001.014 395.163 Z  M -1050.436 418.42 C -1052.05 418.42 -1053.344 419.714 -1053.344 421.327 L -1053.344 427.142 C -1053.344 428.755 -1052.05 430.049 -1050.436 430.049 C -1048.823 430.049 -1047.529 428.755 -1047.529 427.142 L -1047.529 421.327 C -1047.529 419.714 -1048.823 418.42 -1050.436 418.42 Z  M -1035.9 418.42 C -1037.514 418.42 -1038.808 419.714 -1038.808 421.327 L -1038.808 427.142 C -1038.808 428.755 -1037.514 430.049 -1035.9 430.049 C -1034.287 430.049 -1032.993 428.755 -1032.993 427.142 L -1032.993 421.327 C -1032.993 419.714 -1034.287 418.42 -1035.9 418.42 Z  M -1021.364 418.42 C -1022.978 418.42 -1024.272 419.714 -1024.272 421.327 L -1024.272 427.142 C -1024.272 428.755 -1022.978 430.049 -1021.364 430.049 C -1019.751 430.049 -1018.457 428.755 -1018.457 427.142 L -1018.457 421.327 C -1018.457 419.714 -1019.751 418.42 -1021.364 418.42 Z  M -1006.828 418.42 C -1008.442 418.42 -1009.736 419.714 -1009.736 421.327 L -1009.736 427.142 C -1009.736 428.755 -1008.442 430.049 -1006.828 430.049 C -1005.215 430.049 -1003.921 428.755 -1003.921 427.142 L -1003.921 421.327 C -1003.921 419.714 -1005.215 418.42 -1006.828 418.42 Z  M -992.292 418.42 C -993.906 418.42 -995.2 419.714 -995.2 421.327 L -995.2 427.142 C -995.2 428.755 -993.906 430.049 -992.292 430.049 C -990.679 430.049 -989.385 428.755 -989.385 427.142 L -989.385 421.327 C -989.385 419.714 -990.679 418.42 -992.292 418.42 Z  M -977.756 418.42 C -979.37 418.42 -980.664 419.714 -980.664 421.327 L -980.664 427.142 C -980.664 428.755 -979.37 430.049 -977.756 430.049 C -976.143 430.049 -974.849 428.755 -974.849 427.142 L -974.849 421.327 C -974.849 419.714 -976.143 418.42 -977.756 418.42 Z  M -963.22 418.42 C -964.834 418.42 -966.128 419.714 -966.128 421.327 L -966.128 427.142 C -966.128 428.755 -964.834 430.049 -963.22 430.049 C -961.607 430.049 -960.313 428.755 -960.313 427.142 L -960.313 421.327 C -960.313 419.714 -961.607 418.42 -963.22 418.42 Z " fill="rgb(0,0,0)"/></svg>