<?xml version="1.0" standalone="no"?><!-- Generator: Gravit.io --><svg xmlns="http://www.w3.org/2000/svg" xmlns:xlink="http://www.w3.org/1999/xlink" style="isolation:isolate" viewBox="539 273 44.001 41" width="44.001" height="41"><g id="Group"><path d=" M 566 307 L 543 307 C 540.8 307 539 305.2 539 303 L 539 277 C 539 274.8 540.8 273 543 273 L 575 273 C 577.2 273 579 274.8 579 277 L 579 294 C 579 301.2 573.2 307 566 307 Z " fill="rgb(38,120,179)"/><path d=" M 573 282 C 573 283.072 572.427 284.063 571.499 284.598 C 570.57 285.134 569.426 285.134 568.498 284.597 C 567.569 284.061 566.998 283.07 566.998 281.998 C 566.999 280.341 568.343 278.997 570 278.998 C 571.657 278.999 573.001 280.343 573 282 L 573 282 Z " fill="rgb(179,221,245)"/><path d=" M 555 282 L 544 298 L 566 298 L 555 282 Z " fill="rgb(154,201,227)"/><path d=" M 566 288 L 558 298 L 574 298 L 566 288 Z " fill="rgb(179,221,245)"/><path d=" M 582.7 295.102 L 579.897 292.3 C 579.499 291.897 578.8 291.897 578.3 292.3 L 577 293.6 L 581.398 298 L 582.699 296.7 C 583.102 296.3 583.102 295.602 582.699 295.102 L 582.7 295.102 Z " fill="rgb(229,115,115)"/><path d=" M 562.473 308.168 L 574.777 295.863 L 579.16 300.25 L 566.855 312.55 L 562.473 308.168 Z " fill="rgb(255,152,0)"/><path d=" M 581.398 298 L 579.16 300.25 L 574.772 295.864 L 577.007 293.617 L 581.398 298 Z " fill="rgb(176,190,197)"/><path d=" M 562.5 308.2 L 561 314 L 566.8 312.5 L 562.5 308.2 Z " fill="rgb(255,193,7)"/><path d=" M 561.7 311 L 561 314 L 564 313.3 L 561.7 311 Z " fill="rgb(55,71,79)"/></g></svg>