<?xml version="1.0" standalone="no"?><!-- Generator: Gravit.io --><svg xmlns="http://www.w3.org/2000/svg" xmlns:xlink="http://www.w3.org/1999/xlink" style="isolation:isolate" viewBox="326.04 298 37.455 32.454" width="37.455" height="32.454"><g id="Group"><path d=" M 348.513 326.299 L 329.369 326.299 C 327.538 326.299 326.04 324.801 326.04 322.97 L 326.04 301.329 C 326.04 299.498 327.538 298 329.369 298 L 356.004 298 C 357.835 298 359.333 299.498 359.333 301.329 L 359.333 315.479 C 359.333 321.471 354.505 326.299 348.513 326.299 Z " fill="rgb(67,104,225)"/><path d=" M 354.339 305.491 C 354.339 306.383 353.862 307.208 353.089 307.654 C 352.316 308.1 351.364 308.099 350.592 307.653 C 349.819 307.206 349.343 306.382 349.343 305.489 C 349.344 304.11 350.462 302.992 351.842 302.992 C 353.221 302.993 354.339 304.111 354.339 305.491 L 354.339 305.491 Z " fill="rgb(179,221,245)"/><path d=" M 339.357 305.491 L 330.202 318.808 L 348.513 318.808 L 339.357 305.491 Z " fill="rgb(154,201,227)"/><path d=" M 348.513 310.485 L 341.854 318.808 L 355.171 318.808 L 348.513 310.485 Z " fill="rgb(179,221,245)"/><path d=" M 363.244 314.725 L 360.911 312.393 C 360.58 312.057 359.998 312.057 359.582 312.393 L 358.5 313.475 L 362.16 317.137 L 363.243 316.055 C 363.579 315.722 363.579 315.141 363.243 314.725 L 363.244 314.725 Z " fill="rgb(229,115,115)"/><path d=" M 346.409 325.6 L 356.65 315.358 L 360.298 319.01 L 350.056 329.247 L 346.409 325.6 Z " fill="rgb(255,152,0)"/><path d=" M 362.16 317.137 L 360.298 319.01 L 356.645 315.359 L 358.506 313.489 L 362.16 317.137 Z " fill="rgb(176,190,197)"/><path d=" M 346.431 325.627 L 345.183 330.454 L 350.01 329.206 L 346.431 325.627 Z " fill="rgb(255,193,7)"/><path d=" M 345.766 327.957 L 345.183 330.454 L 347.68 329.872 L 345.766 327.957 Z " fill="rgb(55,71,79)"/></g></svg>