<?xml version="1.0" standalone="no"?><!-- Generator: Gravit.io --><svg xmlns="http://www.w3.org/2000/svg" xmlns:xlink="http://www.w3.org/1999/xlink" style="isolation:isolate" viewBox="876.187 2819 167.625 154" width="167.625" height="154"><path d=" M 876.218 2819 L 876.218 2836.739 C 876.177 2836.983 876.177 2837.233 876.218 2837.477 L 876.218 2923.187 L 966.475 2923.187 L 957.755 2914.467 L 957.755 2916.392 C 957.755 2917.643 956.741 2918.657 955.49 2918.657 L 950.96 2918.657 C 949.709 2918.657 948.695 2917.643 948.695 2916.392 L 948.695 2909.597 C 948.705 2908.465 949.557 2907.518 950.682 2907.389 L 946.091 2902.802 L 921.516 2902.802 C 921.516 2901.552 920.502 2900.538 919.251 2900.538 C 918 2900.538 916.986 2901.552 916.986 2902.802 L 880.748 2902.802 L 880.748 2839.384 L 916.986 2839.384 C 916.986 2840.635 918 2841.649 919.251 2841.649 C 920.502 2841.649 921.516 2840.635 921.516 2839.384 L 984.934 2839.384 C 984.934 2840.635 985.948 2841.649 987.199 2841.649 C 988.45 2841.649 989.464 2840.635 989.464 2839.384 L 1025.703 2839.384 L 1025.703 2902.802 L 1001.129 2902.802 L 1005.658 2907.332 L 1009.849 2907.332 C 1011.099 2907.332 1012.113 2908.346 1012.113 2909.597 L 1012.113 2913.787 L 1021.513 2923.187 L 1030.233 2923.187 L 1030.233 2837.468 C 1030.27 2837.234 1030.27 2836.996 1030.233 2836.762 L 1030.233 2819 L 876.218 2819 Z  M 883.012 2823.53 L 887.542 2823.53 C 888.822 2823.53 889.807 2824.515 889.807 2825.795 L 889.807 2832.59 C 889.807 2833.869 888.822 2834.855 887.542 2834.855 L 883.012 2834.855 C 881.733 2834.855 880.748 2833.869 880.748 2832.59 L 880.748 2825.795 C 880.748 2824.515 881.733 2823.53 883.012 2823.53 Z  M 896.602 2823.53 L 901.132 2823.53 C 902.412 2823.53 903.397 2824.515 903.397 2825.795 L 903.397 2832.59 C 903.397 2833.869 902.412 2834.855 901.132 2834.855 L 896.602 2834.855 C 895.322 2834.855 894.337 2833.869 894.337 2832.59 L 894.337 2825.795 C 894.337 2824.515 895.322 2823.53 896.602 2823.53 Z  M 910.192 2823.53 L 914.721 2823.53 C 916.001 2823.53 916.986 2824.515 916.986 2825.795 L 916.986 2832.59 C 916.986 2833.869 916.001 2834.855 914.721 2834.855 L 910.192 2834.855 C 908.912 2834.855 907.927 2833.869 907.927 2832.59 L 907.927 2825.795 C 907.927 2824.515 908.912 2823.53 910.192 2823.53 Z  M 923.781 2823.53 L 928.311 2823.53 C 929.591 2823.53 930.576 2824.515 930.576 2825.795 L 930.576 2832.59 C 930.576 2833.869 929.591 2834.855 928.311 2834.855 L 923.781 2834.855 C 922.502 2834.855 921.516 2833.869 921.516 2832.59 L 921.516 2825.795 C 921.516 2824.515 922.502 2823.53 923.781 2823.53 Z  M 937.371 2823.53 L 941.901 2823.53 C 943.18 2823.53 944.166 2824.515 944.166 2825.795 L 944.166 2832.59 C 944.166 2833.869 943.18 2834.855 941.901 2834.855 L 937.371 2834.855 C 936.091 2834.855 935.106 2833.869 935.106 2832.59 L 935.106 2825.795 C 935.106 2824.515 936.091 2823.53 937.371 2823.53 Z  M 950.96 2823.53 L 955.49 2823.53 C 956.77 2823.53 957.755 2824.515 957.755 2825.795 L 957.755 2832.59 C 957.755 2833.869 956.77 2834.855 955.49 2834.855 L 950.96 2834.855 C 949.681 2834.855 948.695 2833.869 948.695 2832.59 L 948.695 2825.795 C 948.695 2824.515 949.681 2823.53 950.96 2823.53 Z  M 964.55 2823.53 L 969.08 2823.53 C 970.359 2823.53 971.345 2824.515 971.345 2825.795 L 971.345 2832.59 C 971.345 2833.869 970.359 2834.855 969.08 2834.855 L 964.55 2834.855 C 963.27 2834.855 962.285 2833.869 962.285 2832.59 L 962.285 2825.795 C 962.285 2824.515 963.27 2823.53 964.55 2823.53 Z  M 978.14 2823.53 L 982.669 2823.53 C 983.949 2823.53 984.934 2824.515 984.934 2825.795 L 984.934 2832.59 C 984.934 2833.869 983.949 2834.855 982.669 2834.855 L 978.14 2834.855 C 976.86 2834.855 975.875 2833.869 975.875 2832.59 L 975.875 2825.795 C 975.875 2824.515 976.86 2823.53 978.14 2823.53 Z  M 991.729 2823.53 L 996.259 2823.53 C 997.539 2823.53 998.524 2824.515 998.524 2825.795 L 998.524 2832.59 C 998.524 2833.869 997.539 2834.855 996.259 2834.855 L 991.729 2834.855 C 990.449 2834.855 989.464 2833.869 989.464 2832.59 L 989.464 2825.795 C 989.464 2824.515 990.449 2823.53 991.729 2823.53 Z  M 1005.319 2823.53 L 1009.849 2823.53 C 1011.128 2823.53 1012.113 2824.515 1012.113 2825.795 L 1012.113 2832.59 C 1012.113 2833.869 1011.128 2834.855 1009.849 2834.855 L 1005.319 2834.855 C 1004.039 2834.855 1003.054 2833.869 1003.054 2832.59 L 1003.054 2825.795 C 1003.054 2824.515 1004.039 2823.53 1005.319 2823.53 Z  M 1018.908 2823.53 L 1023.438 2823.53 C 1024.718 2823.53 1025.703 2824.515 1025.703 2825.795 L 1025.703 2832.59 C 1025.703 2833.869 1024.718 2834.855 1023.438 2834.855 L 1018.908 2834.855 C 1017.629 2834.855 1016.643 2833.869 1016.643 2832.59 L 1016.643 2825.795 C 1016.643 2824.515 1017.629 2823.53 1018.908 2823.53 Z  M 919.251 2846.179 C 918 2846.179 916.986 2847.193 916.986 2848.444 C 916.986 2849.695 918 2850.709 919.251 2850.709 C 920.502 2850.709 921.516 2849.695 921.516 2848.444 C 921.516 2847.193 920.502 2846.179 919.251 2846.179 Z  M 987.199 2846.179 C 985.948 2846.179 984.934 2847.193 984.934 2848.444 C 984.934 2849.695 985.948 2850.709 987.199 2850.709 C 988.45 2850.709 989.464 2849.695 989.464 2848.444 C 989.464 2847.193 988.45 2846.179 987.199 2846.179 Z  M 919.251 2855.239 C 918 2855.239 916.986 2856.253 916.986 2857.504 C 916.986 2858.755 918 2859.769 919.251 2859.769 C 920.502 2859.769 921.516 2858.755 921.516 2857.504 C 921.516 2856.253 920.502 2855.239 919.251 2855.239 Z  M 987.199 2855.239 C 985.948 2855.239 984.934 2856.253 984.934 2857.504 C 984.934 2858.755 985.948 2859.769 987.199 2859.769 C 988.45 2859.769 989.464 2858.755 989.464 2857.504 C 989.464 2856.253 988.45 2855.239 987.199 2855.239 Z  M 919.251 2864.299 C 918 2864.299 916.986 2865.313 916.986 2866.564 C 916.986 2867.814 918 2868.828 919.251 2868.828 C 920.502 2868.828 921.516 2867.814 921.516 2866.564 C 921.516 2865.313 920.502 2864.299 919.251 2864.299 Z  M 987.199 2864.299 C 985.948 2864.299 984.934 2865.313 984.934 2866.564 C 984.934 2867.814 985.948 2868.828 987.199 2868.828 C 988.45 2868.828 989.464 2867.814 989.464 2866.564 C 989.464 2865.313 988.45 2864.299 987.199 2864.299 Z  M 919.251 2873.358 C 918 2873.358 916.986 2874.372 916.986 2875.623 C 916.986 2876.874 918 2877.888 919.251 2877.888 C 920.502 2877.888 921.516 2876.874 921.516 2875.623 C 921.516 2874.372 920.502 2873.358 919.251 2873.358 Z  M 987.199 2873.358 C 985.948 2873.358 984.934 2874.372 984.934 2875.623 C 984.934 2876.874 985.948 2877.888 987.199 2877.888 C 988.45 2877.888 989.464 2876.874 989.464 2875.623 C 989.464 2874.372 988.45 2873.358 987.199 2873.358 Z  M 949.726 2878.919 L 958.163 2905.267 L 958.552 2905.656 L 1008.943 2956.042 L 1008.938 2956.046 L 1010.539 2957.648 L 1021.332 2968.438 L 1022.557 2969.659 C 1027.012 2974.114 1034.308 2974.114 1038.763 2969.659 L 1040.47 2967.951 C 1044.927 2963.47 1044.927 2956.231 1040.47 2951.75 L 1039.245 2950.527 L 1026.849 2938.135 L 976.074 2887.356 L 949.726 2878.919 L 949.726 2878.919 Z  M 919.251 2882.418 C 918 2882.418 916.986 2883.432 916.986 2884.683 C 916.986 2885.934 918 2886.948 919.251 2886.948 C 920.502 2886.948 921.516 2885.934 921.516 2884.683 C 921.516 2883.432 920.502 2882.418 919.251 2882.418 Z  M 987.199 2882.418 C 985.948 2882.418 984.934 2883.432 984.934 2884.683 C 984.934 2885.934 985.948 2886.948 987.199 2886.948 C 988.45 2886.948 989.464 2885.934 989.464 2884.683 C 989.464 2883.432 988.45 2882.418 987.199 2882.418 Z  M 959.13 2886.687 L 972.416 2890.939 L 972.412 2890.968 C 972.226 2891.89 971.807 2892.871 971.419 2893.256 C 971.034 2893.641 970.049 2894.062 969.127 2894.248 C 968.208 2894.431 967.506 2894.434 967.506 2894.434 L 965.241 2894.434 L 965.241 2896.698 C 965.241 2896.698 965.238 2897.401 965.055 2898.32 C 964.869 2899.242 964.45 2900.227 964.063 2900.612 C 963.678 2900.997 962.697 2901.419 961.775 2901.604 C 961.764 2901.604 961.757 2901.604 961.746 2901.609 L 957.495 2888.323 L 959.13 2886.687 Z  M 919.251 2891.478 C 918 2891.478 916.986 2892.492 916.986 2893.743 C 916.986 2894.994 918 2896.008 919.251 2896.008 C 920.502 2896.008 921.516 2894.994 921.516 2893.743 C 921.516 2892.492 920.502 2891.478 919.251 2891.478 Z  M 976.251 2893.937 L 1023.651 2941.333 L 1012.145 2952.839 L 964.745 2905.443 C 965.605 2905.099 966.48 2904.603 967.266 2903.815 C 968.72 2902.363 969.22 2900.587 969.497 2899.21 C 969.546 2898.954 969.515 2898.977 969.549 2898.741 C 969.784 2898.707 969.762 2898.741 970.017 2898.689 C 971.395 2898.413 973.17 2897.912 974.622 2896.458 C 975.41 2895.672 975.906 2894.798 976.251 2893.937 Z  M 883.012 2907.332 L 887.542 2907.332 C 888.793 2907.332 889.807 2908.346 889.807 2909.597 L 889.807 2916.392 C 889.807 2917.643 888.793 2918.657 887.542 2918.657 L 883.012 2918.657 C 881.762 2918.657 880.748 2917.643 880.748 2916.392 L 880.748 2909.597 C 880.748 2908.346 881.762 2907.332 883.012 2907.332 Z  M 896.602 2907.332 L 901.132 2907.332 C 902.383 2907.332 903.397 2908.346 903.397 2909.597 L 903.397 2916.392 C 903.397 2917.643 902.383 2918.657 901.132 2918.657 L 896.602 2918.657 C 895.351 2918.657 894.337 2917.643 894.337 2916.392 L 894.337 2909.597 C 894.337 2908.346 895.351 2907.332 896.602 2907.332 Z  M 910.192 2907.332 L 914.721 2907.332 C 915.972 2907.332 916.986 2908.346 916.986 2909.597 L 916.986 2916.392 C 916.986 2917.643 915.972 2918.657 914.721 2918.657 L 910.192 2918.657 C 908.941 2918.657 907.927 2917.643 907.927 2916.392 L 907.927 2909.597 C 907.927 2908.346 908.941 2907.332 910.192 2907.332 Z  M 923.781 2907.332 L 928.311 2907.332 C 929.562 2907.332 930.576 2908.346 930.576 2909.597 L 930.576 2916.392 C 930.576 2917.643 929.562 2918.657 928.311 2918.657 L 923.781 2918.657 C 922.53 2918.657 921.516 2917.643 921.516 2916.392 L 921.516 2909.597 C 921.516 2908.346 922.53 2907.332 923.781 2907.332 Z  M 937.371 2907.332 L 941.901 2907.332 C 943.152 2907.332 944.166 2908.346 944.166 2909.597 L 944.166 2916.392 C 944.166 2917.643 943.152 2918.657 941.901 2918.657 L 937.371 2918.657 C 936.12 2918.657 935.106 2917.643 935.106 2916.392 L 935.106 2909.597 C 935.106 2908.346 936.12 2907.332 937.371 2907.332 Z  M 1018.908 2907.332 L 1023.438 2907.332 C 1024.689 2907.332 1025.703 2908.346 1025.703 2909.597 L 1025.703 2916.392 C 1025.703 2917.643 1024.689 2918.657 1023.438 2918.657 L 1018.908 2918.657 C 1017.657 2918.657 1016.643 2917.643 1016.643 2916.392 L 1016.643 2909.597 C 1016.643 2908.346 1017.657 2907.332 1018.908 2907.332 Z  M 1026.849 2944.541 L 1032.838 2950.525 L 1021.332 2962.03 L 1015.348 2956.046 L 1026.849 2944.541 L 1026.849 2944.541 Z  M 1036.04 2953.727 L 1037.266 2954.952 C 1038.574 2956.247 1039.31 2958.01 1039.31 2959.85 C 1039.31 2961.69 1038.574 2963.454 1037.266 2964.748 L 1035.56 2966.456 C 1034.265 2967.764 1032.501 2968.501 1030.66 2968.501 C 1028.819 2968.501 1027.055 2967.764 1025.76 2966.456 L 1024.537 2965.233 L 1036.042 2953.727 L 1036.04 2953.727 Z " fill="rgb(0,0,0)"/></svg>