<?xml version="1.0" standalone="no"?><!-- Generator: Gravit.io --><svg xmlns="http://www.w3.org/2000/svg" xmlns:xlink="http://www.w3.org/1999/xlink" style="isolation:isolate" viewBox="-1147.934 321 159.357 120.202" width="159.357" height="120.202"><path d=" M -999.655 338.357 L -1082.002 338.357 L -1088.371 329.028 C -1091.822 324.004 -1097.525 321.001 -1103.621 321 L -1136.856 321 C -1142.955 321 -1147.934 325.978 -1147.934 332.078 L -1147.934 430.123 C -1147.934 436.223 -1142.955 441.202 -1136.856 441.202 L -999.655 441.202 C -993.556 441.202 -988.577 436.223 -988.577 430.123 L -988.577 349.391 C -988.609 343.293 -993.557 338.365 -999.655 338.357 L -999.655 338.357 Z  M -995.305 430.078 C -995.305 432.5 -997.278 434.474 -999.7 434.474 L -1136.856 434.474 C -1139.278 434.474 -1141.206 432.5 -1141.206 430.078 L -1141.206 361.052 L -1130.307 361.052 C -1128.449 361.052 -1126.943 359.546 -1126.943 357.688 C -1126.943 355.831 -1128.449 354.325 -1130.307 354.325 L -1141.206 354.325 L -1141.206 331.989 C -1141.206 329.567 -1139.233 327.593 -1136.856 327.593 L -1103.621 327.593 C -1099.719 327.593 -1096.086 329.522 -1093.888 332.706 L -1086.532 343.471 C -1085.904 344.368 -1084.873 344.906 -1083.752 344.906 L -1058.994 344.906 L -1068.323 354.235 L -1115.865 354.235 C -1117.723 354.235 -1119.229 355.741 -1119.229 357.599 C -1119.229 359.456 -1117.723 360.963 -1115.865 360.963 L -1066.932 360.963 C -1066.035 360.963 -1065.183 360.604 -1064.555 359.976 L -1049.53 344.951 L -999.655 344.951 C -997.233 344.951 -995.26 346.924 -995.26 349.346 L -995.26 430.078 L -995.305 430.078 Z " fill="rgb(0,0,0)"/></svg>