<?xml version="1.0" standalone="no"?><!-- Generator: Gravit.io --><svg xmlns="http://www.w3.org/2000/svg" xmlns:xlink="http://www.w3.org/1999/xlink" style="isolation:isolate" viewBox="-1247.449 1061.627 150.231 150.126" width="150.231" height="150.126"><path d=" M -1148.69 1061.627 L -1151.246 1062.647 L -1160.436 1066.222 L -1162.988 1067.242 L -1162.377 1069.899 L -1160.436 1079.703 C -1161.393 1080.661 -1162.413 1081.782 -1163.501 1082.971 L -1173.201 1080.827 L -1175.858 1080.213 L -1176.878 1082.664 L -1180.861 1091.857 L -1181.884 1094.308 L -1179.636 1095.838 L -1171.26 1101.456 C -1171.358 1103.054 -1171.358 1104.658 -1171.26 1106.256 L -1179.838 1111.567 L -1182.191 1112.995 L -1181.169 1115.551 L -1177.593 1124.741 L -1176.57 1127.293 L -1173.917 1126.682 L -1164.112 1124.741 C -1163.116 1125.927 -1162.021 1126.999 -1160.844 1128.009 L -1163.093 1137.813 L -1163.704 1140.47 L -1161.152 1141.591 L -1151.958 1145.473 L -1149.507 1146.493 L -1147.978 1144.248 L -1142.357 1135.872 C -1140.762 1135.976 -1139.154 1135.963 -1137.559 1135.872 L -1132.249 1144.555 L -1130.817 1146.8 L -1128.268 1145.882 L -1116.522 1141.182 L -1117.134 1138.529 L -1119.382 1127.803 C -1118.164 1126.779 -1117.036 1125.653 -1116.009 1124.437 L -1106.104 1126.986 L -1103.346 1127.705 L -1102.326 1125.149 L -1098.342 1115.956 L -1097.218 1113.407 L -1099.669 1111.871 L -1108.248 1106.665 C -1108.146 1105.067 -1108.159 1103.462 -1108.248 1101.864 L -1099.669 1096.553 L -1097.322 1095.122 L -1098.342 1092.573 L -1101.917 1083.38 L -1102.937 1080.827 L -1105.695 1081.438 L -1115.705 1083.687 C -1116.704 1082.51 -1117.797 1081.417 -1118.974 1080.419 L -1116.826 1070.615 L -1116.215 1067.958 L -1118.666 1066.935 L -1127.856 1062.954 L -1130.412 1061.931 L -1131.941 1064.281 L -1137.151 1072.553 C -1138.654 1072.399 -1140.288 1072.539 -1141.951 1072.657 L -1147.262 1063.971 L -1148.69 1061.627 Z  M -1151.449 1069.693 L -1146.648 1077.559 L -1145.422 1079.497 L -1143.177 1078.987 C -1140.866 1078.478 -1138.683 1078.759 -1135.719 1079.089 L -1133.68 1079.295 L -1132.556 1077.556 L -1127.856 1070.105 L -1123.771 1071.837 L -1125.814 1080.621 L -1126.327 1082.765 L -1124.487 1083.991 C -1122.483 1085.422 -1120.81 1087.096 -1119.379 1089.099 L -1118.157 1090.936 L -1116.009 1090.426 L -1107.022 1088.383 L -1105.388 1092.468 L -1113.254 1097.168 L -1114.986 1098.289 L -1114.784 1100.331 C -1114.48 1103.063 -1114.48 1105.364 -1114.784 1108.093 L -1114.99 1110.136 L -1113.251 1111.26 L -1105.493 1116.061 L -1107.127 1119.94 L -1116.212 1117.695 L -1118.46 1117.182 L -1119.686 1119.022 C -1121.089 1120.999 -1122.816 1122.726 -1124.794 1124.13 L -1126.529 1125.355 L -1126.121 1127.499 L -1124.078 1137.199 L -1128.163 1138.735 L -1132.863 1130.97 L -1133.984 1129.234 L -1136.026 1129.44 C -1138.759 1129.744 -1141.059 1129.744 -1143.788 1129.44 L -1145.831 1129.234 L -1146.854 1130.868 L -1151.857 1138.427 L -1156.044 1136.587 L -1154.106 1127.803 L -1153.592 1125.76 L -1155.331 1124.433 C -1157.308 1123.031 -1159.033 1121.305 -1160.436 1119.329 L -1161.661 1117.59 L -1163.805 1117.999 L -1172.59 1119.839 L -1174.119 1115.753 L -1166.358 1110.953 L -1164.521 1109.832 L -1164.828 1107.789 C -1165.135 1105.211 -1165.135 1102.606 -1164.828 1100.027 L -1164.521 1098.086 L -1166.256 1096.962 L -1173.815 1091.958 L -1172.077 1087.772 L -1163.194 1089.811 L -1161.253 1090.223 L -1160.027 1088.687 C -1158.164 1086.52 -1156.249 1084.602 -1154.615 1082.968 L -1153.39 1081.746 L -1153.694 1080.112 L -1155.534 1071.327 L -1151.449 1069.693 Z  M -1139.602 1087.566 C -1148.589 1087.566 -1155.942 1094.919 -1155.942 1103.907 C -1155.942 1112.894 -1148.589 1120.247 -1139.602 1120.247 C -1130.614 1120.247 -1123.261 1112.894 -1123.261 1103.907 C -1123.261 1094.919 -1130.614 1087.566 -1139.602 1087.566 Z  M -1139.602 1094.102 C -1134.151 1094.102 -1129.797 1098.455 -1129.797 1103.907 C -1129.797 1109.358 -1134.151 1113.711 -1139.602 1113.711 C -1145.053 1113.711 -1149.406 1109.358 -1149.406 1103.907 C -1149.406 1098.455 -1145.053 1094.102 -1139.602 1094.102 Z  M -1209.764 1120.247 L -1210.173 1123.005 L -1211.807 1133.627 C -1213.581 1134.189 -1215.291 1135.006 -1216.912 1135.872 L -1228.147 1127.702 L -1239.586 1139.14 L -1238.053 1141.388 L -1231.824 1150.376 C -1232.69 1152.058 -1233.44 1153.797 -1234.069 1155.582 L -1244.795 1157.523 L -1247.449 1158.036 L -1247.449 1173.968 L -1244.792 1174.478 L -1234.072 1176.416 C -1233.479 1178.183 -1232.726 1179.892 -1231.824 1181.524 L -1238.256 1190.204 L -1239.994 1192.452 L -1228.556 1203.891 L -1226.307 1202.358 L -1217.32 1196.129 C -1215.572 1197.011 -1213.823 1197.789 -1212.111 1198.374 L -1210.477 1208.995 L -1210.072 1211.754 L -1194.035 1211.754 L -1193.627 1209.097 L -1191.584 1198.377 C -1189.809 1197.812 -1188.1 1196.995 -1186.479 1196.129 L -1175.244 1204.299 L -1163.805 1192.861 L -1165.338 1190.612 L -1171.874 1181.524 C -1171.018 1179.801 -1170.201 1178.102 -1169.626 1176.416 L -1158.596 1174.478 L -1155.942 1173.965 L -1155.942 1157.931 L -1169.73 1155.889 C -1170.288 1154.126 -1171.006 1152.417 -1171.874 1150.784 L -1165.338 1141.797 L -1163.805 1139.548 L -1165.645 1137.61 L -1173.201 1129.744 L -1175.142 1127.702 L -1177.492 1129.336 L -1186.479 1135.872 C -1188.202 1135.019 -1189.901 1134.202 -1191.584 1133.627 L -1193.218 1123.005 L -1193.627 1120.247 L -1209.764 1120.247 Z  M -1204.147 1126.783 L -1199.244 1126.783 L -1197.404 1138.427 L -1195.568 1139.039 C -1192.633 1140.019 -1189.888 1140.941 -1187.705 1142.307 L -1185.865 1143.431 L -1184.129 1142.205 L -1175.959 1136.28 L -1172.283 1140.163 L -1178.208 1148.434 L -1179.535 1150.17 L -1178.309 1152.01 C -1176.838 1154.356 -1175.691 1157.075 -1175.142 1159.565 L -1174.632 1161.713 L -1172.485 1162.017 L -1162.478 1163.549 L -1162.478 1168.553 L -1172.489 1170.291 L -1174.427 1170.595 L -1175.041 1172.435 C -1176.021 1175.37 -1176.943 1178.115 -1178.309 1180.298 L -1179.535 1182.138 L -1178.204 1183.87 L -1172.283 1192.145 L -1175.959 1195.72 L -1184.129 1189.795 L -1185.865 1188.57 L -1187.705 1189.694 C -1190.051 1191.165 -1192.77 1192.308 -1195.261 1192.861 L -1197.303 1193.371 L -1197.712 1195.514 L -1199.45 1205.217 L -1204.45 1205.217 L -1206.29 1193.573 L -1208.13 1192.962 C -1211.065 1191.982 -1213.81 1191.06 -1215.993 1189.694 L -1217.833 1188.57 L -1219.565 1189.795 L -1227.84 1195.413 L -1231.415 1191.838 L -1225.592 1183.975 L -1224.164 1182.135 L -1225.389 1180.298 C -1226.86 1177.948 -1228.004 1175.331 -1228.556 1172.844 L -1229.066 1170.697 L -1231.21 1170.291 L -1240.913 1168.549 L -1240.913 1163.451 L -1231.21 1161.713 L -1229.272 1161.307 L -1228.657 1159.569 C -1227.677 1156.634 -1226.755 1153.889 -1225.389 1151.706 L -1224.265 1149.866 L -1225.49 1148.134 L -1231.108 1139.856 L -1227.432 1136.28 L -1219.261 1142.205 L -1217.526 1143.431 L -1215.686 1142.307 C -1213.336 1140.836 -1210.621 1139.692 -1208.13 1139.14 L -1205.986 1138.63 L -1205.679 1136.486 L -1204.147 1126.783 Z  M -1201.695 1149.66 C -1210.67 1149.66 -1218.036 1157.026 -1218.036 1166 C -1218.036 1174.974 -1210.67 1182.341 -1201.695 1182.341 C -1192.721 1182.341 -1185.355 1174.974 -1185.355 1166 C -1185.355 1157.026 -1192.721 1149.66 -1201.695 1149.66 Z  M -1201.695 1156.196 C -1196.279 1156.198 -1191.889 1160.59 -1191.891 1166.007 C -1191.893 1171.423 -1196.285 1175.813 -1201.702 1175.811 C -1207.119 1175.809 -1211.508 1171.417 -1211.506 1166 C -1211.504 1160.584 -1207.112 1156.194 -1201.695 1156.196 Z " fill="rgb(0,0,0)"/></svg>