<?xml version="1.0" standalone="no"?><!-- Generator: Gravit.io --><svg xmlns="http://www.w3.org/2000/svg" xmlns:xlink="http://www.w3.org/1999/xlink" style="isolation:isolate" viewBox="397.351 682.561 48 36" width="48" height="36"><g id="gmail"><path d=" M 442.351 718.561 L 400.351 718.561 C 398.694 718.561 397.351 717.218 397.351 715.561 L 397.351 685.561 C 397.351 683.904 398.694 682.561 400.351 682.561 L 442.351 682.561 C 444.008 682.561 445.351 683.904 445.351 685.561 L 445.351 715.561 C 445.351 717.218 444.008 718.561 442.351 718.561 Z " fill="rgb(234,234,234)"/><path d=" M 403.351 718.561 L 400.351 718.561 C 398.694 718.561 397.351 717.218 397.351 715.561 L 397.351 685.561 C 397.351 683.904 398.694 682.561 400.351 682.561 L 400.351 682.561 C 402.008 682.561 403.351 683.904 403.351 685.561 L 403.351 718.561 Z " fill="rgb(213,76,63)"/><path d=" M 439.351 718.561 L 442.351 718.561 C 444.008 718.561 445.351 717.218 445.351 715.561 L 445.351 685.561 C 445.351 683.904 444.008 682.561 442.351 682.561 L 442.351 682.561 C 440.694 682.561 439.351 683.904 439.351 685.561 L 439.351 718.561 Z " fill="rgb(182,53,36)"/><path d=" M 444.069 688.021 C 444.844 687.478 445.351 686.579 445.351 685.561 C 445.351 683.904 444.008 682.561 442.351 682.561 C 441.712 682.561 441.119 682.761 440.633 683.101 C 440.633 683.101 421.353 697.138 421.353 697.138 L 421.351 697.139 L 421.349 697.138 L 402.069 683.101 C 401.583 682.761 400.99 682.561 400.351 682.561 C 398.694 682.561 397.351 683.904 397.351 685.561 C 397.351 686.579 397.858 687.478 398.633 688.021 L 398.553 687.962 L 421.351 704.561" fill="rgb(222,81,69)"/><line x1="444.15" y1="687.962" x2="421.351" y2="704.561"/><path d=" M 442.351 682.561 C 441.712 682.561 441.119 682.761 440.633 683.101 C 440.633 683.101 421.353 697.138 421.353 697.138 L 421.351 697.139 L 421.349 697.138 L 402.069 683.101 C 401.583 682.761 400.99 682.561 400.351 682.561 L 442.351 682.561 Z " fill="rgb(239,239,239)"/><path d=" M 403.352 692.749 L 398.296 687.741 L 398.294 687.745 C 398.4 687.845 398.513 687.937 398.633 688.021 L 398.553 687.962 L 403.353 691.457 L 403.352 692.785" fill="rgb(198,65,50)"/><path d=" M 418.019 707.152 L 403.351 718.561 L 403.352 692.624 L 418.016 707.148" fill="rgb(227,227,227)"/><linearGradient id="_lgradient_0" x1="-0.0027779321073229113%" y1="136.03050788698218%" x2="100%" y2="136.03050788698218%"><stop offset="0%" stop-opacity="1" style="stop-color:rgb(200,200,200)"/><stop offset="100%" stop-opacity="1" style="stop-color:rgb(205,205,205)"/></linearGradient><path d=" M 418.019 707.152 L 421.351 704.561 L 403.352 691.457 L 403.352 692.624 L 418.016 707.148 L 418.019 707.152 Z " fill="url(#_lgradient_0)"/><linearGradient id="_lgradient_1" x1="-0.0023435669088245348%" y1="49.999631064379265%" x2="100.00000000000003%" y2="49.999631064379265%"><stop offset="0%" stop-opacity="1" style="stop-color:rgb(217,217,217)"/><stop offset="100%" stop-opacity="1" style="stop-color:rgb(226,226,226)"/></linearGradient><path d=" M 429.412 718.561 L 439.351 718.561 L 439.351 691.456 L 421.351 704.561 L 418.016 707.148 L 429.412 718.561 Z " fill="url(#_lgradient_1)"/></g></svg>