<?xml version="1.0" standalone="no"?><!-- Generator: Gravit.io --><svg xmlns="http://www.w3.org/2000/svg" xmlns:xlink="http://www.w3.org/1999/xlink" style="isolation:isolate" viewBox="470.257 241.124 36 36" width="36" height="36"><g id="Group"><path d=" M 470.257 263.124 L 470.257 273.124 C 470.257 275.334 472.047 277.124 474.257 277.124 L 502.257 277.124 C 504.467 277.124 506.257 275.334 506.257 273.124 L 506.257 263.124 L 470.257 263.124 Z " fill="rgb(120,144,156)"/><path d=" M 506.257 263.124 C 506.257 265.334 504.467 267.124 502.257 267.124 L 474.257 267.124 C 472.047 267.124 470.257 265.334 470.257 263.124 L 473.257 245.124 C 473.476 243.03 475.047 241.124 477.257 241.124 L 499.257 241.124 C 501.467 241.124 502.945 242.874 503.257 245.124 L 506.257 263.124 Z " fill="rgb(69,90,100)"/><path d=" M 501.257 272.124 C 501.257 273.228 500.361 274.124 499.257 274.124 C 498.152 274.124 497.257 273.228 497.257 272.124 C 497.257 271.019 498.152 270.124 499.257 270.124 C 500.361 270.124 501.257 271.019 501.257 272.124 Z " fill="rgb(100,221,23)"/><path d=" M 488.257 246.124 C 481.628 246.124 476.257 249.257 476.257 253.124 C 476.257 256.987 481.628 260.124 488.257 260.124 C 494.886 260.124 500.257 256.987 500.257 253.124 C 500.257 249.257 494.886 246.124 488.257 246.124 Z  M 488.257 254.679 C 486.784 254.679 485.589 253.983 485.589 253.124 C 485.589 252.264 486.784 251.569 488.257 251.569 C 489.73 251.569 490.921 252.265 490.921 253.124 C 490.921 253.984 489.73 254.679 488.257 254.679 Z " fill="rgb(187,222,251)"/></g></svg>