<?xml version="1.0" standalone="no"?><!-- Generator: Gravit.io --><svg xmlns="http://www.w3.org/2000/svg" xmlns:xlink="http://www.w3.org/1999/xlink" style="isolation:isolate" viewBox="-684.638 148 161.375 107.688" width="161.375" height="107.688"><path d=" M -571.792 185.092 C -572.869 185.092 -573.945 184.554 -574.618 183.567 C -575.112 182.827 -575.285 181.919 -575.1 181.049 C -574.914 180.179 -574.384 179.421 -573.631 178.947 L -569.146 176.032 C -567.576 175.045 -565.513 175.449 -564.526 177.019 C -563.495 178.544 -563.943 180.652 -565.513 181.639 L -569.998 184.554 C -570.537 184.913 -571.164 185.092 -571.792 185.092 Z  M -536.629 148 L -671.273 148 C -678.628 148 -684.638 154.01 -684.638 161.366 L -684.638 242.322 C -684.638 249.678 -678.628 255.688 -671.273 255.688 L -536.629 255.688 C -529.273 255.688 -523.263 249.678 -523.263 242.322 L -523.263 161.366 C -523.263 154.01 -529.228 148 -536.629 148 L -536.629 148 Z  M -529.946 242.322 C -529.946 246 -532.951 249.005 -536.629 249.005 L -671.273 249.005 C -674.95 249.005 -677.955 246 -677.955 242.322 L -677.955 161.366 C -677.955 160.424 -677.776 159.572 -677.417 158.764 L -623.954 193.659 L -667.909 236.581 C -669.222 237.869 -669.242 239.978 -667.954 241.291 C -666.666 242.604 -664.557 242.624 -663.244 241.336 L -618.214 197.381 L -605.79 205.499 C -604.671 206.224 -603.231 206.224 -602.112 205.499 L -589.688 197.381 L -544.882 241.291 C -543.561 242.561 -541.468 242.541 -540.172 241.246 C -538.871 239.945 -538.916 237.792 -540.217 236.537 L -583.992 193.659 L -578.475 190.026 C -576.95 189.039 -576.502 186.931 -577.488 185.406 C -578.507 183.88 -580.555 183.442 -582.108 184.419 L -591.168 190.34 L -603.951 198.682 L -671.407 154.638 L -536.494 154.638 L -559.817 169.843 C -561.343 170.861 -561.781 172.909 -560.804 174.462 C -560.187 175.423 -559.12 175.999 -557.978 175.987 C -557.35 175.987 -556.722 175.808 -556.139 175.449 L -530.484 158.675 C -530.121 159.493 -529.938 160.38 -529.946 161.276 L -529.946 242.322 L -529.946 242.322 Z " fill="rgb(0,0,0)"/></svg>