<?xml version="1.0" standalone="no"?><!-- Generator: Gravit.io --><svg xmlns="http://www.w3.org/2000/svg" xmlns:xlink="http://www.w3.org/1999/xlink" style="isolation:isolate" viewBox="464.984 241.76 42 32" width="42" height="32"><g id="Group"><path d=" M 506.984 271.76 C 506.984 272.865 506.089 273.76 504.984 273.76 L 466.984 273.76 C 465.88 273.76 464.984 272.865 464.984 271.76 L 464.984 243.76 C 464.984 242.656 465.88 241.76 466.984 241.76 L 504.984 241.76 C 506.089 241.76 506.984 242.656 506.984 243.76 L 506.984 271.76 Z " fill="rgb(120,144,156)"/><path d=" M 504.984 241.76 L 475.984 241.76 L 475.984 273.76 L 504.984 273.76 C 506.089 273.76 506.984 272.865 506.984 271.76 L 506.984 243.76 C 506.984 242.656 506.089 241.76 504.984 241.76 Z " fill="rgb(55,71,79)"/><path d=" M 477.984 255.76 L 483.984 255.76 L 483.984 271.76 L 477.984 271.76 L 477.984 255.76 Z  M 484.984 255.76 L 490.984 255.76 L 490.984 271.76 L 484.984 271.76 L 484.984 255.76 Z  M 491.984 255.76 L 497.984 255.76 L 497.984 271.76 L 491.984 271.76 L 491.984 255.76 Z  M 498.984 255.76 L 504.984 255.76 L 504.984 271.76 L 498.984 271.76 L 498.984 255.76 Z " fill="rgb(84,110,122)"/><path d=" M 482.984 259.76 C 482.984 260.865 482.089 261.76 480.984 261.76 C 479.88 261.76 478.984 260.865 478.984 259.76 C 478.984 258.656 479.88 257.76 480.984 257.76 C 482.089 257.76 482.984 258.656 482.984 259.76 Z  M 489.984 259.76 C 489.984 260.865 489.089 261.76 487.984 261.76 C 486.88 261.76 485.984 260.865 485.984 259.76 C 485.984 258.656 486.88 257.76 487.984 257.76 C 489.089 257.76 489.984 258.656 489.984 259.76 Z  M 496.984 259.76 C 496.984 260.865 496.089 261.76 494.984 261.76 C 493.88 261.76 492.984 260.865 492.984 259.76 C 492.984 258.656 493.88 257.76 494.984 257.76 C 496.089 257.76 496.984 258.656 496.984 259.76 Z  M 503.984 259.76 C 503.984 260.865 503.089 261.76 501.984 261.76 C 500.88 261.76 499.984 260.865 499.984 259.76 C 499.984 258.656 500.88 257.76 501.984 257.76 C 503.089 257.76 503.984 258.656 503.984 259.76 Z " fill="rgb(207,216,220)"/><path d=" M 481.984 244.76 L 500.984 244.76 L 500.984 249.76 L 481.984 249.76 L 481.984 244.76 Z " fill="rgb(68,138,255)"/><path d=" M 472.984 253.26 C 472.984 254.639 471.863 255.76 470.484 255.76 C 469.104 255.759 467.986 254.641 467.984 253.26 C 467.984 251.881 469.105 250.76 470.484 250.76 C 471.863 250.76 472.984 251.881 472.984 253.26 Z " fill="rgb(55,71,79)"/><path d=" M 481.984 253.76 C 481.984 254.31 481.534 254.76 480.984 254.76 C 480.434 254.76 479.984 254.31 479.984 253.76 C 479.984 253.21 480.434 252.76 480.984 252.76 C 481.534 252.76 481.984 253.21 481.984 253.76 Z  M 471.484 253.26 C 471.484 253.81 471.034 254.26 470.484 254.26 C 469.934 254.26 469.484 253.81 469.484 253.26 C 469.484 252.71 469.934 252.26 470.484 252.26 C 471.034 252.26 471.484 252.71 471.484 253.26 Z  M 495.984 253.76 C 495.984 254.31 495.534 254.76 494.984 254.76 C 494.434 254.76 493.984 254.31 493.984 253.76 C 493.984 253.21 494.434 252.76 494.984 252.76 C 495.534 252.76 495.984 253.21 495.984 253.76 Z  M 502.984 253.76 C 502.984 254.31 502.534 254.76 501.984 254.76 C 501.434 254.76 500.984 254.31 500.984 253.76 C 500.984 253.21 501.434 252.76 501.984 252.76 C 502.534 252.76 502.984 253.21 502.984 253.76 Z  M 488.984 253.76 C 488.984 254.31 488.534 254.76 487.984 254.76 C 487.434 254.76 486.984 254.31 486.984 253.76 C 486.984 253.21 487.434 252.76 487.984 252.76 C 488.534 252.76 488.984 253.21 488.984 253.76 Z " fill="rgb(118,255,3)"/><path d=" M 481.984 253.76 C 481.984 254.31 481.534 254.76 480.984 254.76 C 480.434 254.76 479.984 254.31 479.984 253.76 C 479.984 253.21 480.434 252.76 480.984 252.76 C 481.534 252.76 481.984 253.21 481.984 253.76 Z  M 495.984 253.76 C 495.984 254.31 495.534 254.76 494.984 254.76 C 494.434 254.76 493.984 254.31 493.984 253.76 C 493.984 253.21 494.434 252.76 494.984 252.76 C 495.534 252.76 495.984 253.21 495.984 253.76 Z  M 502.984 253.76 C 502.984 254.31 502.534 254.76 501.984 254.76 C 501.434 254.76 500.984 254.31 500.984 253.76 C 500.984 253.21 501.434 252.76 501.984 252.76 C 502.534 252.76 502.984 253.21 502.984 253.76 Z  M 488.984 253.76 C 488.984 254.31 488.534 254.76 487.984 254.76 C 487.434 254.76 486.984 254.31 486.984 253.76 C 486.984 253.21 487.434 252.76 487.984 252.76 C 488.534 252.76 488.984 253.21 488.984 253.76 Z " fill="rgb(118,255,3)"/></g></svg>