<?xml version="1.0" standalone="no"?><!-- Generator: Gravit.io --><svg xmlns="http://www.w3.org/2000/svg" xmlns:xlink="http://www.w3.org/1999/xlink" style="isolation:isolate" viewBox="-1276 726.681 130.119 120.202" width="130.119" height="120.202"><path d=" M -1253.594 726.681 C -1255.923 726.681 -1258.234 727.471 -1260.091 728.907 L -1271.663 737.81 C -1274.389 739.916 -1275.995 743.212 -1276 746.714 L -1276 840.204 C -1276 843.882 -1273.077 846.882 -1269.494 846.882 L -1152.387 846.882 C -1148.805 846.882 -1145.881 843.882 -1145.881 840.204 L -1145.881 746.714 C -1145.886 743.212 -1147.492 739.916 -1150.219 737.81 L -1161.782 728.907 C -1163.647 727.471 -1165.959 726.681 -1168.288 726.681 L -1253.594 726.681 Z  M -1253.594 731.133 L -1168.288 731.133 C -1166.889 731.133 -1165.51 731.6 -1164.384 732.473 L -1152.819 741.368 C -1151.185 742.634 -1150.222 744.613 -1150.219 746.714 L -1150.219 840.204 C -1150.219 841.429 -1151.194 842.43 -1152.387 842.43 L -1269.494 842.43 C -1270.687 842.43 -1271.663 841.429 -1271.663 840.204 L -1271.663 746.714 C -1271.663 745.993 -1271.511 745.167 -1271.29 744.488 L -1178.411 744.488 C -1177.207 744.488 -1176.242 743.62 -1176.242 742.394 C -1176.242 741.158 -1177.207 740.168 -1178.411 740.168 L -1267.495 740.168 L -1257.497 732.473 C -1256.371 731.605 -1255.002 731.135 -1253.594 731.133 Z  M -1169.736 740.036 C -1170.934 740.036 -1171.905 741.033 -1171.905 742.262 C -1171.905 743.492 -1170.934 744.488 -1169.736 744.488 L -1161.062 744.488 C -1159.864 744.488 -1158.893 743.492 -1158.893 742.262 C -1158.893 741.033 -1159.864 740.036 -1161.062 740.036 L -1169.736 740.036 Z  M -1234.796 753.392 C -1238.378 753.392 -1241.302 756.393 -1241.302 760.07 L -1241.302 826.849 C -1241.302 830.526 -1238.378 833.527 -1234.796 833.527 L -1217.447 833.527 C -1215.777 833.527 -1214.261 832.859 -1213.109 831.788 C -1211.958 832.856 -1210.442 833.527 -1208.772 833.527 L -1191.423 833.527 C -1189.753 833.527 -1188.237 832.859 -1187.086 831.788 C -1185.934 832.856 -1184.418 833.527 -1182.748 833.527 L -1165.399 833.527 C -1161.816 833.527 -1158.893 830.526 -1158.893 826.849 L -1158.893 760.07 C -1158.893 756.393 -1161.816 753.392 -1165.399 753.392 L -1182.748 753.392 C -1184.418 753.392 -1185.934 754.06 -1187.086 755.131 C -1188.27 754.017 -1189.817 753.397 -1191.423 753.392 L -1208.772 753.392 C -1210.442 753.392 -1211.958 754.06 -1213.109 755.131 C -1214.294 754.017 -1215.84 753.397 -1217.447 753.392 L -1234.796 753.392 Z  M -1256.482 757.844 C -1260.065 757.844 -1262.988 760.845 -1262.988 764.522 C -1262.988 768.199 -1260.065 771.2 -1256.482 771.2 C -1252.9 771.2 -1249.976 768.199 -1249.976 764.522 C -1249.976 760.845 -1252.9 757.844 -1256.482 757.844 Z  M -1234.796 757.844 L -1217.447 757.844 C -1216.254 757.844 -1215.278 758.846 -1215.278 760.07 L -1215.278 826.849 C -1215.278 828.073 -1216.254 829.075 -1217.447 829.075 L -1234.796 829.075 C -1235.988 829.075 -1236.964 828.073 -1236.964 826.849 L -1236.964 760.07 C -1236.964 758.846 -1235.988 757.844 -1234.796 757.844 Z  M -1208.772 757.844 L -1191.423 757.844 C -1190.23 757.844 -1189.254 758.846 -1189.254 760.07 L -1189.254 826.849 C -1189.254 828.073 -1190.23 829.075 -1191.423 829.075 L -1208.772 829.075 C -1209.965 829.075 -1210.941 828.073 -1210.941 826.849 L -1210.941 760.07 C -1210.941 758.846 -1209.965 757.844 -1208.772 757.844 Z  M -1182.748 757.844 L -1165.399 757.844 C -1164.206 757.844 -1163.23 758.846 -1163.23 760.07 L -1163.23 826.849 C -1163.23 828.073 -1164.206 829.075 -1165.399 829.075 L -1182.748 829.075 C -1183.941 829.075 -1184.917 828.073 -1184.917 826.849 L -1184.917 760.07 C -1184.917 758.846 -1183.941 757.844 -1182.748 757.844 Z  M -1256.482 762.296 C -1255.289 762.296 -1254.314 763.298 -1254.314 764.522 C -1254.314 765.746 -1255.289 766.748 -1256.482 766.748 C -1257.675 766.748 -1258.651 765.746 -1258.651 764.522 C -1258.651 763.298 -1257.675 762.296 -1256.482 762.296 Z  M -1226.121 764.522 C -1228.517 764.522 -1230.458 766.515 -1230.458 768.974 C -1230.458 771.433 -1228.517 773.426 -1226.121 773.426 C -1223.726 773.426 -1221.784 771.433 -1221.784 768.974 C -1221.784 766.515 -1223.726 764.522 -1226.121 764.522 Z  M -1200.097 764.522 C -1202.493 764.522 -1204.435 766.515 -1204.435 768.974 C -1204.435 771.433 -1202.493 773.426 -1200.097 773.426 C -1197.702 773.426 -1195.76 771.433 -1195.76 768.974 C -1195.76 766.515 -1197.702 764.522 -1200.097 764.522 Z  M -1174.074 764.522 C -1176.469 764.522 -1178.411 766.515 -1178.411 768.974 C -1178.411 771.433 -1176.469 773.426 -1174.074 773.426 C -1171.678 773.426 -1169.736 771.433 -1169.736 768.974 C -1169.736 766.515 -1171.678 764.522 -1174.074 764.522 Z  M -1256.482 775.652 C -1260.065 775.652 -1262.988 778.652 -1262.988 782.33 C -1262.988 786.007 -1260.065 789.007 -1256.482 789.007 C -1252.9 789.007 -1249.976 786.007 -1249.976 782.33 C -1249.976 778.652 -1252.9 775.652 -1256.482 775.652 Z  M -1256.482 780.104 C -1255.289 780.104 -1254.314 781.105 -1254.314 782.33 C -1254.314 783.554 -1255.289 784.555 -1256.482 784.555 C -1257.675 784.555 -1258.651 783.554 -1258.651 782.33 C -1258.651 781.105 -1257.675 780.104 -1256.482 780.104 Z  M -1228.29 782.33 C -1229.488 782.33 -1230.458 783.326 -1230.458 784.555 C -1230.458 785.785 -1229.488 786.781 -1228.29 786.781 L -1223.953 786.781 C -1222.755 786.781 -1221.784 785.785 -1221.784 784.555 C -1221.784 783.326 -1222.755 782.33 -1223.953 782.33 L -1228.29 782.33 Z  M -1202.266 782.33 C -1203.464 782.33 -1204.435 783.326 -1204.435 784.555 C -1204.435 785.785 -1203.464 786.781 -1202.266 786.781 L -1197.929 786.781 C -1196.731 786.781 -1195.76 785.785 -1195.76 784.555 C -1195.76 783.326 -1196.731 782.33 -1197.929 782.33 L -1202.266 782.33 Z  M -1176.242 782.33 C -1177.44 782.33 -1178.411 783.326 -1178.411 784.555 C -1178.411 785.785 -1177.44 786.781 -1176.242 786.781 L -1171.905 786.781 C -1170.707 786.781 -1169.736 785.785 -1169.736 784.555 C -1169.736 783.326 -1170.707 782.33 -1171.905 782.33 L -1176.242 782.33 Z  M -1228.29 793.459 C -1229.488 793.459 -1230.458 794.456 -1230.458 795.685 C -1230.458 796.915 -1229.488 797.911 -1228.29 797.911 L -1223.953 797.911 C -1222.755 797.911 -1221.784 796.915 -1221.784 795.685 C -1221.784 794.456 -1222.755 793.459 -1223.953 793.459 L -1228.29 793.459 Z  M -1202.266 793.459 C -1203.464 793.459 -1204.435 794.456 -1204.435 795.685 C -1204.435 796.915 -1203.464 797.911 -1202.266 797.911 L -1197.929 797.911 C -1196.731 797.911 -1195.76 796.915 -1195.76 795.685 C -1195.76 794.456 -1196.731 793.459 -1197.929 793.459 L -1202.266 793.459 Z  M -1176.242 793.459 C -1177.44 793.459 -1178.411 794.456 -1178.411 795.685 C -1178.411 796.915 -1177.44 797.911 -1176.242 797.911 L -1171.905 797.911 C -1170.707 797.911 -1169.736 796.915 -1169.736 795.685 C -1169.736 794.456 -1170.707 793.459 -1171.905 793.459 L -1176.242 793.459 Z  M -1262.988 804.589 C -1264.186 804.589 -1265.157 805.586 -1265.157 806.815 C -1265.157 808.044 -1264.186 809.041 -1262.988 809.041 L -1249.976 809.041 C -1248.779 809.041 -1247.808 808.044 -1247.808 806.815 C -1247.808 805.586 -1248.779 804.589 -1249.976 804.589 L -1262.988 804.589 Z  M -1228.29 804.589 C -1229.488 804.589 -1230.458 805.586 -1230.458 806.815 C -1230.458 808.044 -1229.488 809.041 -1228.29 809.041 L -1223.953 809.041 C -1222.755 809.041 -1221.784 808.044 -1221.784 806.815 C -1221.784 805.586 -1222.755 804.589 -1223.953 804.589 L -1228.29 804.589 Z  M -1202.266 804.589 C -1203.464 804.589 -1204.435 805.586 -1204.435 806.815 C -1204.435 808.044 -1203.464 809.041 -1202.266 809.041 L -1197.929 809.041 C -1196.731 809.041 -1195.76 808.044 -1195.76 806.815 C -1195.76 805.586 -1196.731 804.589 -1197.929 804.589 L -1202.266 804.589 Z  M -1176.242 804.589 C -1177.44 804.589 -1178.411 805.586 -1178.411 806.815 C -1178.411 808.044 -1177.44 809.041 -1176.242 809.041 L -1171.905 809.041 C -1170.707 809.041 -1169.736 808.044 -1169.736 806.815 C -1169.736 805.586 -1170.707 804.589 -1171.905 804.589 L -1176.242 804.589 Z  M -1262.988 815.719 C -1264.186 815.719 -1265.157 816.715 -1265.157 817.945 C -1265.157 819.174 -1264.186 820.171 -1262.988 820.171 L -1249.976 820.171 C -1248.779 820.171 -1247.808 819.174 -1247.808 817.945 C -1247.808 816.715 -1248.779 815.719 -1249.976 815.719 L -1262.988 815.719 Z  M -1228.29 815.719 C -1229.488 815.719 -1230.458 816.715 -1230.458 817.945 C -1230.458 819.174 -1229.488 820.171 -1228.29 820.171 L -1223.953 820.171 C -1222.755 820.171 -1221.784 819.174 -1221.784 817.945 C -1221.784 816.715 -1222.755 815.719 -1223.953 815.719 L -1228.29 815.719 Z  M -1202.266 815.719 C -1203.464 815.719 -1204.435 816.715 -1204.435 817.945 C -1204.435 819.174 -1203.464 820.171 -1202.266 820.171 L -1197.929 820.171 C -1196.731 820.171 -1195.76 819.174 -1195.76 817.945 C -1195.76 816.715 -1196.731 815.719 -1197.929 815.719 L -1202.266 815.719 Z  M -1176.242 815.719 C -1177.44 815.719 -1178.411 816.715 -1178.411 817.945 C -1178.411 819.174 -1177.44 820.171 -1176.242 820.171 L -1171.905 820.171 C -1170.707 820.171 -1169.736 819.174 -1169.736 817.945 C -1169.736 816.715 -1170.707 815.719 -1171.905 815.719 L -1176.242 815.719 Z " fill="rgb(0,0,0)"/></svg>