<?xml version="1.0" standalone="no"?><!-- Generator: Gravit.io --><svg xmlns="http://www.w3.org/2000/svg" xmlns:xlink="http://www.w3.org/1999/xlink" style="isolation:isolate" viewBox="-937.739 1074.626 107.036 171.258" width="107.036" height="171.258"><path d=" M -921.684 1074.626 C -930.514 1074.626 -937.739 1081.851 -937.739 1090.682 L -937.739 1229.829 C -937.739 1238.659 -930.514 1245.884 -921.684 1245.884 L -846.758 1245.884 C -837.928 1245.884 -830.703 1238.659 -830.703 1229.829 L -830.703 1090.682 C -830.703 1081.851 -837.928 1074.626 -846.758 1074.626 L -921.684 1074.626 Z  M -921.684 1079.978 L -846.758 1079.978 C -840.821 1079.978 -836.055 1084.744 -836.055 1090.682 L -836.055 1229.829 C -836.055 1235.767 -840.821 1240.533 -846.758 1240.533 L -921.684 1240.533 C -927.622 1240.533 -932.388 1235.767 -932.388 1229.829 L -932.388 1090.682 C -932.388 1084.744 -927.622 1079.978 -921.684 1079.978 Z  M -897.601 1088.006 C -898.566 1087.994 -899.463 1088.501 -899.953 1089.333 C -900.434 1090.168 -900.434 1091.195 -899.953 1092.03 C -899.46 1092.865 -898.561 1093.368 -897.601 1093.357 L -870.842 1093.357 C -869.878 1093.368 -868.982 1092.865 -868.489 1092.03 C -868.009 1091.195 -868.009 1090.168 -868.489 1089.333 C -868.982 1088.498 -869.881 1087.995 -870.842 1088.006 L -897.601 1088.006 Z  M -913.79 1088.006 C -915.267 1088.006 -916.466 1089.21 -916.466 1090.682 C -916.479 1092.153 -915.275 1093.357 -913.803 1093.357 C -913.094 1093.365 -912.411 1093.085 -911.911 1092.581 C -911.408 1092.081 -911.117 1091.393 -911.117 1090.682 C -911.117 1089.21 -912.318 1088.016 -913.793 1088.006 L -913.79 1088.006 Z  M -921.684 1109.413 C -923.156 1109.413 -924.36 1110.617 -924.36 1112.089 C -924.36 1113.561 -923.156 1114.765 -921.684 1114.765 C -920.212 1114.765 -919.008 1113.561 -919.008 1112.089 C -919.008 1110.617 -920.212 1109.413 -921.684 1109.413 Z  M -921.684 1120.117 C -923.156 1120.117 -924.36 1121.321 -924.36 1122.792 C -924.36 1124.264 -923.156 1125.468 -921.684 1125.468 C -920.212 1125.468 -919.008 1124.264 -919.008 1122.792 C -919.008 1121.321 -920.212 1120.117 -921.684 1120.117 Z  M -921.684 1130.82 C -923.156 1130.82 -924.36 1132.024 -924.36 1133.496 C -924.36 1134.968 -923.156 1136.172 -921.684 1136.172 C -920.212 1136.172 -919.008 1134.968 -919.008 1133.496 C -919.008 1132.024 -920.212 1130.82 -921.684 1130.82 Z  M -921.684 1141.524 C -923.156 1141.524 -924.36 1142.728 -924.36 1144.2 C -924.36 1145.671 -923.156 1146.876 -921.684 1146.876 C -920.212 1146.876 -919.008 1145.671 -919.008 1144.2 C -919.008 1142.728 -920.212 1141.524 -921.684 1141.524 Z  M -921.684 1152.227 C -923.156 1152.227 -924.36 1153.432 -924.36 1154.903 C -924.36 1156.375 -923.156 1157.579 -921.684 1157.579 C -920.212 1157.579 -919.008 1156.375 -919.008 1154.903 C -919.008 1153.432 -920.212 1152.227 -921.684 1152.227 Z  M -921.684 1162.931 C -923.156 1162.931 -924.36 1164.135 -924.36 1165.607 C -924.36 1167.079 -923.156 1168.283 -921.684 1168.283 C -920.212 1168.283 -919.008 1167.079 -919.008 1165.607 C -919.008 1164.135 -920.212 1162.931 -921.684 1162.931 Z  M -921.684 1173.635 C -923.156 1173.635 -924.36 1174.839 -924.36 1176.311 C -924.36 1177.782 -923.156 1178.987 -921.684 1178.987 C -920.212 1178.987 -919.008 1177.782 -919.008 1176.311 C -919.008 1174.839 -920.212 1173.635 -921.684 1173.635 Z  M -921.684 1184.338 C -923.156 1184.338 -924.36 1185.543 -924.36 1187.014 C -924.36 1188.486 -923.156 1189.69 -921.684 1189.69 C -920.212 1189.69 -919.008 1188.486 -919.008 1187.014 C -919.008 1185.543 -920.212 1184.338 -921.684 1184.338 Z  M -921.684 1195.042 C -923.156 1195.042 -924.36 1196.246 -924.36 1197.718 C -924.36 1199.19 -923.156 1200.394 -921.684 1200.394 C -920.212 1200.394 -919.008 1199.19 -919.008 1197.718 C -919.008 1196.246 -920.212 1195.042 -921.684 1195.042 Z  M -921.684 1205.746 C -923.156 1205.746 -924.36 1206.95 -924.36 1208.422 C -924.36 1209.893 -923.156 1211.098 -921.684 1211.098 C -920.212 1211.098 -919.008 1209.893 -919.008 1208.422 C -919.008 1206.95 -920.212 1205.746 -921.684 1205.746 Z  M -897.601 1227.153 C -898.566 1227.142 -899.463 1227.648 -899.953 1228.48 C -900.434 1229.315 -900.434 1230.343 -899.953 1231.178 C -899.46 1232.012 -898.561 1232.516 -897.601 1232.505 L -870.842 1232.505 C -869.878 1232.516 -868.982 1232.012 -868.489 1231.178 C -868.009 1230.343 -868.009 1229.315 -868.489 1228.48 C -868.982 1227.645 -869.881 1227.142 -870.842 1227.153 L -897.601 1227.153 Z " fill="rgb(0,0,0)"/></svg>