<?xml version="1.0" standalone="no"?><!-- Generator: Gravit.io --><svg xmlns="http://www.w3.org/2000/svg" xmlns:xlink="http://www.w3.org/1999/xlink" style="isolation:isolate" viewBox="-1094 709.987 136.625 136.895" width="136.625" height="136.895"><g id="Group"><g id="Group"><path d=" M -1039 742.936 L -1063.443 742.936 L -1063.443 813.933 L -1056.141 813.933 L -1056.141 790.606 L -1038.29 790.606 C -1034.841 790.606 -1031.867 789.982 -1029.362 788.729 C -1026.862 787.479 -1025 786.029 -1023.786 784.368 C -1022.569 782.712 -1021.605 780.582 -1020.893 777.978 C -1020.18 775.374 -1019.762 773.211 -1019.625 771.485 C -1019.491 769.76 -1019.422 767.717 -1019.422 765.348 C -1019.422 758.654 -1021.03 753.246 -1024.24 749.123 C -1027.452 744.997 -1032.374 742.936 -1039 742.936 Z  M -1026.778 769.814 C -1026.813 770.828 -1027.047 772.349 -1027.488 774.38 C -1027.927 776.409 -1028.535 777.963 -1029.314 779.046 C -1030.092 780.128 -1031.327 781.14 -1033.016 782.089 C -1034.707 783.032 -1036.766 783.506 -1039.2 783.506 L -1056.141 783.506 L -1056.141 750.036 L -1039.606 750.036 C -1031.02 750.036 -1026.725 755.175 -1026.725 765.452 C -1026.725 767.346 -1026.742 768.799 -1026.778 769.814 Z " fill="rgb(0,0,0)"/><path d=" M -1002.588 765.757 L -1002.588 763.119 L -1009.688 763.119 L -1009.688 813.933 L -1002.385 813.933 L -1002.385 776.305 C -1002.385 774.073 -1001.389 772.298 -999.393 770.977 C -997.4 769.659 -995.131 769.002 -992.595 769.002 C -990.059 769.002 -987.61 769.372 -985.244 770.115 L -983.419 763.221 C -986.193 762.681 -988.728 762.409 -991.026 762.409 C -995.691 762.409 -999.543 763.525 -1002.588 765.757 Z " fill="rgb(0,0,0)"/></g><g id="Group"><path d="M -1062.928 709.987 L -988.447 709.987 C -971.298 709.987 -957.375 723.91 -957.375 741.059 L -957.375 815.81 C -957.375 832.959 -971.298 846.882 -988.447 846.882 L -1062.928 846.882 C -1080.077 846.882 -1094 832.959 -1094 815.81 L -1094 741.059 C -1094 723.91 -1080.077 709.987 -1062.928 709.987 Z" style="fill:none;stroke:#000000;stroke-width:14;stroke-linecap:square;stroke-miterlimit:3;"/></g></g></svg>