<?xml version="1.0" standalone="no"?><!-- Generator: Gravit.io --><svg xmlns="http://www.w3.org/2000/svg" xmlns:xlink="http://www.w3.org/1999/xlink" style="isolation:isolate" viewBox="-1094 512.424 136.625 136.895" width="136.625" height="136.895"><g id="Group"><g id="editor"><g id="Group"><path d=" M -1043.04 544.549 L -1067.527 544.549 L -1067.527 615.672 L -1060.211 615.672 L -1060.211 592.303 L -1042.329 592.303 C -1038.875 592.303 -1035.895 591.678 -1033.388 590.423 C -1030.884 589.171 -1029.019 587.718 -1027.8 586.054 C -1026.581 584.396 -1025.615 582.262 -1024.904 579.653 C -1024.193 577.047 -1023.771 574.878 -1023.634 573.148 C -1023.499 571.421 -1023.431 569.373 -1023.431 567.001 C -1023.431 560.295 -1025.041 554.877 -1028.257 550.747 C -1031.475 546.614 -1036.403 544.549 -1043.04 544.549 Z  M -1030.797 571.474 C -1030.833 572.49 -1031.069 574.014 -1031.508 576.049 C -1031.948 578.081 -1032.56 579.638 -1033.337 580.723 C -1034.117 581.807 -1035.354 582.821 -1037.046 583.771 C -1038.74 584.716 -1040.805 585.191 -1043.244 585.191 L -1060.211 585.191 L -1060.211 551.661 L -1043.65 551.661 C -1035.049 551.661 -1030.746 556.81 -1030.746 567.105 C -1030.746 569.003 -1030.764 570.458 -1030.797 571.474 Z " fill="rgb(0,0,0)"/><path d=" M -988.936 588.848 C -991.614 587.764 -994.306 586.783 -997.014 585.902 C -999.724 585.02 -1002.163 583.938 -1004.329 582.651 C -1006.499 581.365 -1007.581 579.602 -1007.581 577.367 C -1007.581 575.335 -1006.717 573.659 -1004.99 572.34 C -1003.263 571.017 -1000.639 570.359 -997.116 570.359 C -993.595 570.359 -990.75 571.207 -988.581 572.899 L -986.244 566.496 L -987.463 565.784 C -988.276 565.309 -989.632 564.819 -991.527 564.311 C -993.425 563.803 -995.457 563.549 -997.624 563.549 C -1003.788 563.549 -1008.241 565.02 -1010.984 567.966 C -1013.728 570.913 -1015.099 574.098 -1015.099 577.52 C -1015.099 580.941 -1013.847 583.834 -1011.34 586.207 C -1009.308 588.239 -1006.953 589.73 -1004.279 590.677 C -1001.604 591.627 -998.944 592.524 -996.303 593.37 C -993.661 594.218 -991.426 595.369 -989.597 596.824 C -987.768 598.28 -986.854 600.246 -986.854 602.717 C -986.854 605.189 -987.92 607.086 -990.054 608.405 C -992.188 609.728 -994.713 610.386 -997.624 610.386 C -1000.535 610.386 -1003.11 609.692 -1005.345 608.303 C -1007.581 606.916 -1008.836 604.968 -1009.105 602.461 L -1016.217 602.766 C -1016.082 606.83 -1014.355 610.251 -1011.035 613.027 C -1007.718 615.804 -1003.128 617.193 -997.268 617.193 C -991.411 617.193 -986.955 615.786 -983.907 612.979 C -980.859 610.17 -979.335 606.868 -979.335 603.073 C -979.335 599.28 -980.267 596.232 -982.129 593.929 C -983.991 591.625 -986.262 589.933 -988.936 588.848 Z " fill="rgb(0,0,0)"/></g></g><g id="Group"><path d="M -1062.928 512.424 L -988.447 512.424 C -971.298 512.424 -957.375 526.347 -957.375 543.496 L -957.375 618.247 C -957.375 635.396 -971.298 649.319 -988.447 649.319 L -1062.928 649.319 C -1080.077 649.319 -1094 635.396 -1094 618.247 L -1094 543.496 C -1094 526.347 -1080.077 512.424 -1062.928 512.424 Z" style="fill:none;stroke:#000000;stroke-width:14;stroke-linecap:square;stroke-miterlimit:3;"/></g></g></svg>