<?xml version="1.0" standalone="no"?><!-- Generator: Gravit.io --><svg xmlns="http://www.w3.org/2000/svg" xmlns:xlink="http://www.w3.org/1999/xlink" style="isolation:isolate" viewBox="-459.79 267.517 121.009 147.651" width="121.009" height="147.651"><path d=" M -399.241 415.168 C -400.003 415.168 -400.766 414.899 -401.394 414.405 L -429.202 391.307 C -450.954 371.393 -459.79 353.407 -459.79 329.188 L -459.79 296.132 C -459.79 294.832 -459.028 293.621 -457.817 293.082 L -400.631 267.786 C -399.779 267.427 -398.792 267.427 -397.94 267.786 L -340.755 293.082 C -339.544 293.621 -338.781 294.832 -338.781 296.132 L -338.781 329.188 C -338.781 353.407 -347.617 371.348 -369.235 391.172 L -397.178 414.36 C -397.732 414.89 -398.474 415.181 -399.241 415.168 L -399.241 415.168 Z  M -453.062 298.375 L -453.062 329.233 C -453.062 351.344 -444.855 367.894 -424.761 386.283 L -399.196 407.498 L -373.496 386.194 C -353.537 367.894 -345.33 351.344 -345.33 329.233 L -345.33 298.375 L -399.196 274.559 L -453.062 298.375 L -453.062 298.375 Z  M -419.11 329.681 L -413.773 363.454 L -368.832 319.276 L -407.718 344.661 L -419.11 329.681 L -419.11 329.681 Z  M -399.689 291.602 C -401.262 291.589 -402.615 290.488 -402.948 288.951 C -403.282 287.414 -402.506 285.852 -401.08 285.189 L -398.389 283.978 C -396.729 283.215 -394.711 283.933 -393.948 285.637 C -393.186 287.341 -393.904 289.315 -395.608 290.077 L -398.299 291.288 C -398.747 291.513 -399.196 291.602 -399.689 291.602 L -399.689 291.602 Z  M -441.85 326.138 C -443.688 326.138 -445.213 324.658 -445.213 322.774 L -445.213 307.435 C -445.213 306.134 -444.451 304.923 -443.24 304.385 L -410.633 289.539 C -408.974 288.777 -406.955 289.494 -406.193 291.199 C -405.43 292.858 -406.148 294.876 -407.852 295.639 L -438.531 309.632 L -438.531 322.819 C -438.531 324.658 -440.011 326.138 -441.85 326.138 L -441.85 326.138 Z " fill="rgb(0,0,0)"/></svg>