<?xml version="1.0" standalone="no"?><!-- Generator: Gravit.io --><svg xmlns="http://www.w3.org/2000/svg" xmlns:xlink="http://www.w3.org/1999/xlink" style="isolation:isolate" viewBox="294 259 44 58" width="44" height="58"><g id="Group"><path d=" M 316 259 C 316 259 309.333 267 294 267 L 294 286.085 C 294 296.051 298.328 305.662 306.164 311.82 C 308.937 314 312.208 315.875 316 317 C 319.792 315.875 323.062 314 325.836 311.82 C 333.672 305.662 338 296.051 338 286.085 L 338 267 C 322.667 267 316 259 316 259 Z " fill="rgb(55,71,79)"/><path d=" M 316 309.915 C 313.877 309.082 311.822 307.891 309.872 306.358 C 303.69 301.499 300 293.643 300 285.339 L 300 271.883 C 307.391 270.94 312.639 268.369 316 266.085 L 316 266.085 C 319.361 268.369 324.609 270.94 332 271.883 L 332 285.339 C 332 293.643 328.31 301.499 322.128 306.358 C 320.178 307.891 318.123 309.082 316 309.915 C 316 309.915 316 309.915 316 309.915 Z " fill="rgb(207,216,220)"/><path d=" M 325.924 278.255 L 312.399 291.795 L 306.816 286.225 L 304 289.048 L 312.404 297.431 L 328.744 281.073 L 325.924 278.255 Z " fill="rgb(68,138,255)"/></g></svg>