<?xml version="1.0" standalone="no"?><!-- Generator: Gravit.io --><svg xmlns="http://www.w3.org/2000/svg" xmlns:xlink="http://www.w3.org/1999/xlink" style="isolation:isolate" viewBox="415.047 3115 166.244 149" width="166.244" height="149"><path d=" M 555.4 3115.003 C 552.624 3115.003 549.849 3115.964 547.817 3117.913 L 540.368 3125.041 L 540.357 3125.051 L 539.132 3126.237 L 538.336 3127 L 538.336 3127.01 L 534.702 3130.494 C 534.421 3130.392 534.124 3130.335 533.823 3130.324 L 423.091 3130.324 C 418.662 3130.324 415.047 3133.789 415.047 3138.036 L 415.047 3256.288 C 415.047 3260.535 418.662 3264 423.091 3264 L 546.433 3264 C 550.863 3264 554.477 3260.535 554.477 3256.288 L 554.477 3169.717 L 568.68 3156.082 L 578.148 3146.992 C 580.169 3145.07 581.301 3142.451 581.291 3139.722 C 581.301 3136.993 580.169 3134.375 578.148 3132.452 L 562.983 3117.913 C 560.961 3115.974 558.175 3115 555.4 3115 L 555.4 3115.003 Z  M 555.4 3120.093 C 556.794 3120.093 558.175 3120.573 559.191 3121.548 L 574.357 3136.087 C 575.373 3137.064 575.928 3138.35 575.928 3139.722 C 575.928 3141.098 575.373 3142.383 574.357 3143.357 L 566.774 3150.627 L 544.025 3128.817 L 551.608 3121.548 C 552.621 3120.6 553.985 3120.076 555.4 3120.093 Z  M 540.231 3132.452 L 562.983 3154.265 L 559.18 3157.918 C 558.132 3156.961 556.479 3156.979 555.453 3157.959 L 551.673 3161.594 C 550.644 3162.579 550.624 3164.171 551.627 3165.18 L 547.828 3168.825 L 525.076 3147.013 L 540.231 3132.452 Z  M 423.091 3135.465 L 529.517 3135.465 L 519.494 3145.105 C 519.451 3145.136 519.411 3145.147 519.368 3145.185 C 519.338 3145.216 519.327 3145.265 519.285 3145.306 L 466.36 3196.159 C 465.928 3196.563 465.657 3197.1 465.596 3197.676 L 463.638 3213.895 L 461.729 3226.617 C 461.614 3227.422 461.898 3228.224 462.483 3228.807 C 462.998 3229.288 463.679 3229.55 464.389 3229.55 C 464.515 3229.55 464.641 3229.55 464.767 3229.53 L 477.965 3227.722 L 495.08 3225.985 C 495.694 3225.921 496.266 3225.658 496.702 3225.239 L 549.115 3174.871 L 549.115 3256.288 C 549.115 3257.702 547.908 3258.859 546.433 3258.859 L 423.091 3258.859 C 421.616 3258.859 420.41 3257.702 420.41 3256.288 L 420.41 3138.036 C 420.41 3136.622 421.616 3135.465 423.091 3135.465 Z  M 538.389 3139.031 C 537.681 3139.031 537.003 3139.302 536.504 3139.784 L 532.702 3143.419 C 531.934 3144.155 531.706 3145.263 532.123 3146.224 C 532.54 3147.185 533.52 3147.81 534.606 3147.807 C 535.318 3147.808 536.001 3147.537 536.504 3147.054 L 540.285 3143.419 C 541.052 3142.684 541.281 3141.578 540.866 3140.618 C 540.451 3139.657 539.474 3139.031 538.389 3139.031 Z  M 436.498 3145.748 C 433.543 3145.748 431.135 3148.057 431.135 3150.889 L 431.135 3243.434 C 431.135 3246.267 433.543 3248.576 436.498 3248.576 L 444.542 3248.576 C 446.023 3248.576 447.223 3247.425 447.223 3246.005 C 447.223 3244.585 446.023 3243.434 444.542 3243.434 L 436.498 3243.434 L 436.498 3150.889 L 504.422 3150.889 C 505.903 3150.889 507.103 3149.739 507.103 3148.319 C 507.103 3146.899 505.903 3145.748 504.422 3145.748 L 436.498 3145.748 Z  M 547.868 3148.118 C 547.157 3148.118 546.475 3148.389 545.972 3148.871 L 542.181 3152.506 C 541.484 3153.152 541.204 3154.108 541.449 3155.006 C 541.695 3155.905 542.427 3156.607 543.364 3156.842 C 544.302 3157.078 545.299 3156.81 545.972 3156.141 L 549.763 3152.506 C 550.53 3151.771 550.759 3150.666 550.344 3149.705 C 549.93 3148.745 548.952 3148.118 547.868 3148.118 Z  M 521.296 3150.648 L 544.044 3172.46 L 496.702 3217.938 L 495.496 3206.722 C 495.353 3205.412 494.202 3204.415 492.828 3204.411 L 487.926 3204.411 L 487.926 3200.776 L 502.317 3186.99 C 503.363 3185.974 503.363 3184.36 502.317 3183.344 C 501.266 3182.34 499.566 3182.34 498.515 3183.344 L 484.261 3197.021 L 474.09 3195.997 L 521.296 3150.648 Z  M 515.587 3168.051 C 514.895 3168.051 514.214 3168.301 513.683 3168.805 L 506.098 3176.075 C 505.052 3177.077 505.052 3178.704 506.098 3179.72 C 507.148 3180.715 508.838 3180.715 509.889 3179.72 L 517.483 3172.45 C 518.246 3171.712 518.473 3170.607 518.059 3169.647 C 517.645 3168.686 516.671 3168.057 515.587 3168.051 Z  M 535.708 3197.373 C 534.227 3197.373 533.026 3198.524 533.026 3199.943 L 533.026 3243.434 L 524.982 3243.434 C 523.502 3243.434 522.301 3244.585 522.301 3246.005 C 522.301 3247.425 523.502 3248.576 524.982 3248.576 L 533.026 3248.576 C 535.981 3248.576 538.389 3246.267 538.389 3243.434 L 538.389 3199.943 C 538.389 3198.524 537.189 3197.373 535.708 3197.373 Z  M 470.613 3200.817 L 482.563 3202.023 L 482.563 3206.972 C 482.561 3207.655 482.842 3208.312 483.345 3208.796 C 483.848 3209.28 484.532 3209.553 485.245 3209.553 L 490.42 3209.553 L 491.664 3221.152 L 478.646 3222.468 L 469.092 3213.308 L 470.613 3200.817 Z  M 457.949 3238.293 C 456.468 3238.293 455.267 3239.444 455.267 3240.864 L 455.267 3246.005 C 455.267 3247.425 456.468 3248.576 457.949 3248.576 C 459.43 3248.576 460.63 3247.425 460.63 3246.005 L 460.63 3240.864 C 460.63 3239.444 459.43 3238.293 457.949 3238.293 Z  M 471.355 3238.293 C 469.875 3238.293 468.674 3239.444 468.674 3240.864 L 468.674 3246.005 C 468.674 3247.425 469.875 3248.576 471.355 3248.576 C 472.836 3248.576 474.037 3247.425 474.037 3246.005 L 474.037 3240.864 C 474.037 3239.444 472.836 3238.293 471.355 3238.293 Z  M 484.762 3238.293 C 483.281 3238.293 482.081 3239.444 482.081 3240.864 L 482.081 3246.005 C 482.081 3247.425 483.281 3248.576 484.762 3248.576 C 486.243 3248.576 487.444 3247.425 487.444 3246.005 L 487.444 3240.864 C 487.444 3239.444 486.243 3238.293 484.762 3238.293 Z  M 498.169 3238.293 C 496.688 3238.293 495.488 3239.444 495.488 3240.864 L 495.488 3246.005 C 495.488 3247.425 496.688 3248.576 498.169 3248.576 C 499.65 3248.576 500.85 3247.425 500.85 3246.005 L 500.85 3240.864 C 500.85 3239.444 499.65 3238.293 498.169 3238.293 Z  M 511.576 3238.293 C 510.095 3238.293 508.894 3239.444 508.894 3240.864 L 508.894 3246.005 C 508.894 3247.425 510.095 3248.576 511.576 3248.576 C 513.057 3248.576 514.257 3247.425 514.257 3246.005 L 514.257 3240.864 C 514.257 3239.444 513.057 3238.293 511.576 3238.293 Z " fill="rgb(0,0,0)"/></svg>