<?xml version="1.0" standalone="no"?><!-- Generator: Gravit.io --><svg xmlns="http://www.w3.org/2000/svg" xmlns:xlink="http://www.w3.org/1999/xlink" style="isolation:isolate" viewBox="888.5 2973 143 124.074" width="143" height="124.074"><path d=" M 905.324 2973 L 905.324 2981.412 L 909.529 2981.412 L 909.529 2977.206 L 1010.471 2977.206 L 1010.471 2981.412 L 1014.676 2981.412 L 1014.676 2973 L 905.324 2973 Z  M 896.912 2985.618 L 896.912 2994.029 L 901.118 2994.029 L 901.118 2989.824 L 1018.882 2989.824 L 1018.882 2994.029 L 1023.088 2994.029 L 1023.088 2985.618 L 896.912 2985.618 Z  M 888.5 2998.235 L 888.5 3097.074 L 1031.5 3097.074 L 1031.5 2998.235 L 888.5 2998.235 Z  M 892.706 3002.441 L 1027.294 3002.441 L 1027.294 3092.868 L 892.706 3092.868 L 892.706 3002.441 Z  M 901.118 3010.853 C 899.956 3010.853 899.015 3011.794 899.015 3012.956 C 899.015 3014.117 899.956 3015.059 901.118 3015.059 C 902.279 3015.059 903.221 3014.117 903.221 3012.956 C 903.221 3011.794 902.279 3010.853 901.118 3010.853 Z  M 909.529 3010.853 C 908.368 3010.853 907.426 3011.794 907.426 3012.956 C 907.426 3014.117 908.368 3015.059 909.529 3015.059 C 910.691 3015.059 911.632 3014.117 911.632 3012.956 C 911.632 3011.794 910.691 3010.853 909.529 3010.853 Z  M 917.941 3010.853 C 916.78 3010.853 915.838 3011.794 915.838 3012.956 C 915.838 3014.117 916.78 3015.059 917.941 3015.059 C 919.103 3015.059 920.044 3014.117 920.044 3012.956 C 920.044 3011.794 919.103 3010.853 917.941 3010.853 Z  M 926.353 3010.853 C 925.192 3010.853 924.25 3011.794 924.25 3012.956 C 924.25 3014.117 925.192 3015.059 926.353 3015.059 C 927.514 3015.059 928.456 3014.117 928.456 3012.956 C 928.456 3011.794 927.514 3010.853 926.353 3010.853 Z  M 934.765 3010.853 C 933.603 3010.853 932.662 3011.794 932.662 3012.956 C 932.662 3014.117 933.603 3015.059 934.765 3015.059 C 935.926 3015.059 936.868 3014.117 936.868 3012.956 C 936.868 3011.794 935.926 3010.853 934.765 3010.853 Z  M 943.176 3010.853 C 942.015 3010.853 941.074 3011.794 941.074 3012.956 C 941.074 3014.117 942.015 3015.059 943.176 3015.059 C 944.338 3015.059 945.279 3014.117 945.279 3012.956 C 945.279 3011.794 944.338 3010.853 943.176 3010.853 Z  M 951.588 3010.853 C 950.427 3010.853 949.485 3011.794 949.485 3012.956 C 949.485 3014.117 950.427 3015.059 951.588 3015.059 C 952.75 3015.059 953.691 3014.117 953.691 3012.956 C 953.691 3011.794 952.75 3010.853 951.588 3010.853 Z  M 960 3010.853 C 958.839 3010.853 957.897 3011.794 957.897 3012.956 C 957.897 3014.117 958.839 3015.059 960 3015.059 C 961.161 3015.059 962.103 3014.117 962.103 3012.956 C 962.103 3011.794 961.161 3010.853 960 3010.853 Z  M 968.412 3010.853 C 967.25 3010.853 966.309 3011.794 966.309 3012.956 C 966.309 3014.117 967.25 3015.059 968.412 3015.059 C 969.573 3015.059 970.515 3014.117 970.515 3012.956 C 970.515 3011.794 969.573 3010.853 968.412 3010.853 Z  M 976.824 3010.853 C 975.662 3010.853 974.721 3011.794 974.721 3012.956 C 974.721 3014.117 975.662 3015.059 976.824 3015.059 C 977.985 3015.059 978.926 3014.117 978.926 3012.956 C 978.926 3011.794 977.985 3010.853 976.824 3010.853 Z  M 985.235 3010.853 C 984.074 3010.853 983.132 3011.794 983.132 3012.956 C 983.132 3014.117 984.074 3015.059 985.235 3015.059 C 986.397 3015.059 987.338 3014.117 987.338 3012.956 C 987.338 3011.794 986.397 3010.853 985.235 3010.853 Z  M 993.647 3010.853 C 992.486 3010.853 991.544 3011.794 991.544 3012.956 C 991.544 3014.117 992.486 3015.059 993.647 3015.059 C 994.808 3015.059 995.75 3014.117 995.75 3012.956 C 995.75 3011.794 994.808 3010.853 993.647 3010.853 Z  M 1002.059 3010.853 C 1000.897 3010.853 999.956 3011.794 999.956 3012.956 C 999.956 3014.117 1000.897 3015.059 1002.059 3015.059 C 1003.22 3015.059 1004.162 3014.117 1004.162 3012.956 C 1004.162 3011.794 1003.22 3010.853 1002.059 3010.853 Z  M 1010.471 3010.853 C 1009.309 3010.853 1008.368 3011.794 1008.368 3012.956 C 1008.368 3014.117 1009.309 3015.059 1010.471 3015.059 C 1011.632 3015.059 1012.574 3014.117 1012.574 3012.956 C 1012.574 3011.794 1011.632 3010.853 1010.471 3010.853 Z  M 1018.882 3010.853 C 1017.721 3010.853 1016.779 3011.794 1016.779 3012.956 C 1016.779 3014.117 1017.721 3015.059 1018.882 3015.059 C 1020.044 3015.059 1020.985 3014.117 1020.985 3012.956 C 1020.985 3011.794 1020.044 3010.853 1018.882 3010.853 Z  M 947.382 3027.676 C 946.221 3027.676 945.279 3028.618 945.279 3029.779 C 945.279 3029.782 945.279 3029.785 945.279 3029.788 L 945.279 3063.418 C 945.279 3063.421 945.279 3063.424 945.279 3063.426 C 945.279 3064.588 946.221 3065.529 947.382 3065.529 C 947.786 3065.53 948.181 3065.415 948.52 3065.197 L 977.78 3048.477 L 977.78 3048.472 C 978.483 3048.114 978.925 3047.392 978.926 3046.603 C 978.925 3045.814 978.483 3045.092 977.78 3044.733 L 977.78 3044.729 L 948.52 3028.011 C 948.51 3028.004 948.5 3027.998 948.491 3027.992 C 948.158 3027.786 947.774 3027.676 947.382 3027.676 Z  M 901.118 3080.25 C 899.956 3080.25 899.015 3081.192 899.015 3082.353 C 899.015 3083.514 899.956 3084.456 901.118 3084.456 C 902.279 3084.456 903.221 3083.514 903.221 3082.353 C 903.221 3081.192 902.279 3080.25 901.118 3080.25 Z  M 909.529 3080.25 C 908.368 3080.25 907.426 3081.192 907.426 3082.353 C 907.426 3083.514 908.368 3084.456 909.529 3084.456 C 910.691 3084.456 911.632 3083.514 911.632 3082.353 C 911.632 3081.192 910.691 3080.25 909.529 3080.25 Z  M 917.941 3080.25 C 916.78 3080.25 915.838 3081.192 915.838 3082.353 C 915.838 3083.514 916.78 3084.456 917.941 3084.456 C 919.103 3084.456 920.044 3083.514 920.044 3082.353 C 920.044 3081.192 919.103 3080.25 917.941 3080.25 Z  M 926.353 3080.25 C 925.192 3080.25 924.25 3081.192 924.25 3082.353 C 924.25 3083.514 925.192 3084.456 926.353 3084.456 C 927.514 3084.456 928.456 3083.514 928.456 3082.353 C 928.456 3081.192 927.514 3080.25 926.353 3080.25 Z  M 934.765 3080.25 C 933.603 3080.25 932.662 3081.192 932.662 3082.353 C 932.662 3083.514 933.603 3084.456 934.765 3084.456 C 935.926 3084.456 936.868 3083.514 936.868 3082.353 C 936.868 3081.192 935.926 3080.25 934.765 3080.25 Z  M 943.176 3080.25 C 942.015 3080.25 941.074 3081.192 941.074 3082.353 C 941.074 3083.514 942.015 3084.456 943.176 3084.456 C 944.338 3084.456 945.279 3083.514 945.279 3082.353 C 945.279 3081.192 944.338 3080.25 943.176 3080.25 Z  M 951.588 3080.25 C 950.427 3080.25 949.485 3081.192 949.485 3082.353 C 949.485 3083.514 950.427 3084.456 951.588 3084.456 C 952.75 3084.456 953.691 3083.514 953.691 3082.353 C 953.691 3081.192 952.75 3080.25 951.588 3080.25 Z  M 960 3080.25 C 958.839 3080.25 957.897 3081.192 957.897 3082.353 C 957.897 3083.514 958.839 3084.456 960 3084.456 C 961.161 3084.456 962.103 3083.514 962.103 3082.353 C 962.103 3081.192 961.161 3080.25 960 3080.25 Z  M 968.412 3080.25 C 967.25 3080.25 966.309 3081.192 966.309 3082.353 C 966.309 3083.514 967.25 3084.456 968.412 3084.456 C 969.573 3084.456 970.515 3083.514 970.515 3082.353 C 970.515 3081.192 969.573 3080.25 968.412 3080.25 Z  M 976.824 3080.25 C 975.662 3080.25 974.721 3081.192 974.721 3082.353 C 974.721 3083.514 975.662 3084.456 976.824 3084.456 C 977.985 3084.456 978.926 3083.514 978.926 3082.353 C 978.926 3081.192 977.985 3080.25 976.824 3080.25 Z  M 985.235 3080.25 C 984.074 3080.25 983.132 3081.192 983.132 3082.353 C 983.132 3083.514 984.074 3084.456 985.235 3084.456 C 986.397 3084.456 987.338 3083.514 987.338 3082.353 C 987.338 3081.192 986.397 3080.25 985.235 3080.25 Z  M 993.647 3080.25 C 992.486 3080.25 991.544 3081.192 991.544 3082.353 C 991.544 3083.514 992.486 3084.456 993.647 3084.456 C 994.808 3084.456 995.75 3083.514 995.75 3082.353 C 995.75 3081.192 994.808 3080.25 993.647 3080.25 Z  M 1002.059 3080.25 C 1000.897 3080.25 999.956 3081.192 999.956 3082.353 C 999.956 3083.514 1000.897 3084.456 1002.059 3084.456 C 1003.22 3084.456 1004.162 3083.514 1004.162 3082.353 C 1004.162 3081.192 1003.22 3080.25 1002.059 3080.25 Z  M 1010.471 3080.25 C 1009.309 3080.25 1008.368 3081.192 1008.368 3082.353 C 1008.368 3083.514 1009.309 3084.456 1010.471 3084.456 C 1011.632 3084.456 1012.574 3083.514 1012.574 3082.353 C 1012.574 3081.192 1011.632 3080.25 1010.471 3080.25 Z  M 1018.882 3080.25 C 1017.721 3080.25 1016.779 3081.192 1016.779 3082.353 C 1016.779 3083.514 1017.721 3084.456 1018.882 3084.456 C 1020.044 3084.456 1020.985 3083.514 1020.985 3082.353 C 1020.985 3081.192 1020.044 3080.25 1018.882 3080.25 Z " fill="rgb(0,0,0)"/></svg>