<?xml version="1.0" standalone="no"?><!-- Generator: Gravit.io --><svg xmlns="http://www.w3.org/2000/svg" xmlns:xlink="http://www.w3.org/1999/xlink" style="isolation:isolate" viewBox="-534 523.615 148.42 184.071" width="148.42" height="184.071"><path d=" M -438.046 683.563 C -439.143 683.563 -440.19 683.076 -440.938 682.102 C -442.224 680.377 -442.002 677.854 -440.44 676.423 C -435.951 672.475 -432.261 667.174 -429.667 661.116 C -428.819 659.115 -426.575 658.195 -424.73 659.169 C -422.885 660.088 -422.037 662.522 -422.935 664.523 C -425.977 671.663 -430.415 677.938 -435.752 682.643 C -436.4 683.238 -437.248 683.563 -438.046 683.563 L -438.046 683.563 Z  M -422.137 651.109 C -422.286 651.109 -422.436 651.109 -422.585 651.055 C -424.63 650.785 -426.076 648.784 -425.827 646.566 C -425.578 644.511 -425.478 642.455 -425.478 640.346 C -425.478 638.105 -423.803 636.289 -421.738 636.289 C -419.672 636.289 -417.997 638.105 -417.997 640.346 C -417.997 642.78 -418.147 645.16 -418.396 647.54 C -418.695 649.649 -420.291 651.109 -422.137 651.109 Z  M -387.126 669.067 L -405.828 654.03 C -405.08 649.649 -404.681 645.051 -404.681 640.4 C -404.681 625.093 -408.92 610.975 -416.002 599.617 L -398.348 585.445 C -397.4 584.688 -396.851 583.498 -396.851 582.2 L -396.851 555.047 C -396.851 552.807 -398.526 550.991 -400.592 550.991 C -402.658 550.991 -404.332 552.807 -404.332 555.047 L -404.332 580.145 L -420.591 593.18 C -421.488 592.044 -422.436 590.963 -423.383 589.935 C -423.433 589.827 -423.533 589.718 -423.583 589.664 C -423.732 589.502 -423.882 589.394 -424.032 589.286 C -426.126 587.122 -428.371 585.121 -430.715 583.282 C -430.665 583.066 -430.665 582.849 -430.665 582.633 C -430.665 572.302 -435.303 563.107 -442.435 557.319 L -428.77 529.572 C -427.822 527.624 -428.47 525.19 -430.316 524.109 C -432.111 523.027 -434.355 523.784 -435.353 525.785 L -448.918 553.371 C -452.309 551.856 -456 551.045 -459.89 551.045 C -463.78 551.045 -467.47 551.91 -470.862 553.371 L -484.427 525.785 C -485.375 523.838 -487.669 523.081 -489.464 524.109 C -491.259 525.136 -491.958 527.57 -491.01 529.572 L -477.345 557.319 C -484.477 563.107 -489.115 572.248 -489.115 582.633 C -489.115 582.849 -489.065 583.066 -489.065 583.282 C -492.796 586.126 -496.195 589.449 -499.189 593.18 L -515.298 580.145 L -515.298 555.047 C -515.298 552.807 -516.973 550.991 -519.038 550.991 C -521.104 550.991 -522.779 552.807 -522.779 555.047 L -522.779 582.2 C -522.779 583.498 -522.23 584.688 -521.283 585.445 L -503.628 599.617 C -510.71 610.921 -514.949 625.093 -514.949 640.4 C -514.949 645.051 -514.55 649.649 -513.802 654.03 L -532.504 669.067 C -533.451 669.824 -534 671.014 -534 672.312 L -534 699.952 C -534 702.192 -532.325 704.008 -530.26 704.008 C -528.194 704.008 -526.519 702.192 -526.519 699.952 L -526.519 674.368 L -511.807 662.522 C -504.276 688.755 -483.829 707.686 -459.79 707.686 C -435.752 707.686 -415.254 688.809 -407.773 662.522 L -393.061 674.368 L -393.061 699.952 C -393.061 702.192 -391.386 704.008 -389.321 704.008 C -387.255 704.008 -385.58 702.192 -385.58 699.952 L -385.58 672.312 C -385.63 671.014 -386.179 669.824 -387.126 669.067 Z  M -459.84 603.836 C -470.014 603.836 -479.639 599.887 -487.768 592.531 C -479.889 585.445 -470.263 581.227 -459.84 581.227 C -449.417 581.227 -439.741 585.445 -431.862 592.531 C -439.941 599.833 -449.766 603.836 -459.84 603.836 Z  M -459.84 559.104 C -449.217 559.104 -440.34 567.434 -438.495 578.414 C -445.157 574.95 -452.452 573.157 -459.84 573.167 C -467.421 573.167 -474.602 575.06 -481.185 578.414 C -479.29 567.434 -470.463 559.104 -459.84 559.104 Z  M -459.84 699.573 C -486.123 699.573 -507.518 673.015 -507.518 640.4 C -507.518 623.849 -502.032 608.866 -493.155 598.156 C -484.577 606.107 -474.303 610.813 -463.531 611.733 L -463.531 658.195 C -463.531 660.436 -461.856 662.252 -459.79 662.252 C -457.724 662.252 -456.05 660.436 -456.05 658.195 L -456.05 611.679 C -445.277 610.813 -435.004 606.107 -426.426 598.156 C -417.598 608.92 -412.112 623.903 -412.112 640.4 C -412.162 673.015 -433.557 699.573 -459.84 699.573 L -459.84 699.573 Z " fill="rgb(0,0,0)"/></svg>