<?xml version="1.0" standalone="no"?><!-- Generator: Gravit.io --><svg xmlns="http://www.w3.org/2000/svg" xmlns:xlink="http://www.w3.org/1999/xlink" style="isolation:isolate" viewBox="668.356 304.583 83.333 70.833" width="83.333" height="70.833"><g id="website2"><rect x="668.356" y="312.917" width="83.333" height="33.333" transform="matrix(1,0,0,1,0,0)" fill="rgb(31,115,210)"/><path d=" M 747.522 375.417 L 710.022 375.417 L 710.022 346.25 L 751.689 346.25 L 751.689 371.25 C 751.689 373.552 749.825 375.417 747.522 375.417 Z " fill="rgb(27,99,181)"/><path d=" M 710.022 375.417 L 672.522 375.417 C 670.22 375.417 668.356 373.552 668.356 371.25 L 668.356 346.25 L 710.022 346.25 L 710.022 375.417 Z " fill="rgb(224,224,224)"/><path d=" M 751.689 312.917 L 668.356 312.917 L 668.356 308.75 C 668.356 306.448 670.22 304.583 672.522 304.583 L 747.522 304.583 C 749.825 304.583 751.689 306.448 751.689 308.75 L 751.689 312.917 Z " fill="rgb(81,99,108)"/><path d=" M 672.522 308.75 C 672.522 307.6 673.456 306.667 674.606 306.667 C 675.756 306.667 676.689 307.6 676.689 308.75 C 676.689 309.9 675.756 310.833 674.606 310.833 C 673.456 310.833 672.522 309.9 672.522 308.75 Z " fill="rgb(221,59,23)"/><path d=" M 678.772 308.75 C 678.772 307.6 679.706 306.667 680.856 306.667 C 682.006 306.667 682.939 307.6 682.939 308.75 C 682.939 309.9 682.006 310.833 680.856 310.833 C 679.706 310.833 678.772 309.9 678.772 308.75 Z " fill="rgb(100,221,23)"/><line x1="674.606" y1="351.458" x2="703.772" y2="351.458" vector-effect="non-scaling-stroke" stroke-width="2.083" stroke="rgb(158,158,158)" stroke-linejoin="miter" stroke-linecap="butt" stroke-miterlimit="10"/><line x1="674.606" y1="357.708" x2="703.772" y2="357.708" vector-effect="non-scaling-stroke" stroke-width="2.083" stroke="rgb(158,158,158)" stroke-linejoin="miter" stroke-linecap="butt" stroke-miterlimit="10"/><line x1="674.606" y1="363.958" x2="703.772" y2="363.958" vector-effect="non-scaling-stroke" stroke-width="2.083" stroke="rgb(158,158,158)" stroke-linejoin="miter" stroke-linecap="butt" stroke-miterlimit="10"/><line x1="674.606" y1="370.208" x2="693.356" y2="370.208" vector-effect="non-scaling-stroke" stroke-width="2.083" stroke="rgb(158,158,158)" stroke-linejoin="miter" stroke-linecap="butt" stroke-miterlimit="10"/><g id="Group"><line x1="690.092" y1="325.312" x2="729.953" y2="325.312" vector-effect="non-scaling-stroke" stroke-width="2.083" stroke="rgb(224,224,224)" stroke-linejoin="miter" stroke-linecap="butt" stroke-miterlimit="10"/><line x1="690.092" y1="333.854" x2="715.717" y2="333.854" vector-effect="non-scaling-stroke" stroke-width="2.083" stroke="rgb(224,224,224)" stroke-linejoin="miter" stroke-linecap="butt" stroke-miterlimit="10"/></g></g></svg>