<?xml version="1.0" standalone="no"?><!-- Generator: Gravit.io --><svg xmlns="http://www.w3.org/2000/svg" xmlns:xlink="http://www.w3.org/1999/xlink" style="isolation:isolate" viewBox="-678.206 1265 271.217 216.948" width="271.217" height="216.948"><path d=" M -661.903 1265 C -671.123 1265 -678.174 1272.051 -678.174 1281.271 L -678.174 1323.646 C -678.216 1323.983 -678.216 1324.324 -678.174 1324.661 L -678.174 1465.677 C -678.174 1474.599 -670.825 1481.948 -661.903 1481.948 L -423.26 1481.948 C -414.338 1481.948 -406.989 1474.599 -406.989 1465.677 L -406.989 1281.271 C -406.989 1272.051 -414.04 1265 -423.26 1265 L -661.903 1265 Z  M -640.208 1286.695 C -634.231 1286.695 -629.361 1291.565 -629.361 1297.542 C -629.361 1303.519 -634.231 1308.39 -640.208 1308.39 C -646.185 1308.39 -651.056 1303.519 -651.056 1297.542 C -651.056 1291.565 -646.185 1286.695 -640.208 1286.695 Z  M -602.242 1286.695 C -596.265 1286.695 -591.395 1291.565 -591.395 1297.542 C -591.395 1303.519 -596.265 1308.39 -602.242 1308.39 C -608.219 1308.39 -613.09 1303.519 -613.09 1297.542 C -613.09 1291.565 -608.219 1286.695 -602.242 1286.695 Z  M -569.7 1286.695 L -434.108 1286.695 L -434.108 1308.39 L -569.7 1308.39 L -569.7 1286.695 Z  M -667.327 1330.084 L -417.837 1330.084 L -417.837 1465.677 C -417.837 1468.687 -420.25 1471.101 -423.26 1471.101 L -661.903 1471.101 C -664.913 1471.101 -667.327 1468.687 -667.327 1465.677 L -667.327 1330.084 Z " fill="rgb(0,0,0)"/></svg>