<?xml version="1.0" standalone="no"?><!-- Generator: Gravit.io --><svg xmlns="http://www.w3.org/2000/svg" xmlns:xlink="http://www.w3.org/1999/xlink" style="isolation:isolate" viewBox="-362.733 1074.626 257.43 205.944" width="257.43" height="205.944"><path d=" M -347.287 1074.626 C -355.756 1074.626 -362.733 1081.602 -362.733 1090.072 L -362.733 1265.124 C -362.733 1273.594 -355.756 1280.57 -347.287 1280.57 L -120.749 1280.57 C -112.279 1280.57 -105.303 1273.594 -105.303 1265.124 L -105.303 1090.072 C -105.303 1081.602 -112.279 1074.626 -120.749 1074.626 L -347.287 1074.626 Z  M -347.287 1084.923 L -120.749 1084.923 C -117.891 1084.923 -115.6 1087.214 -115.6 1090.072 L -115.6 1136.409 L -352.436 1136.409 L -352.436 1090.072 C -352.436 1087.214 -350.145 1084.923 -347.287 1084.923 Z  M -326.693 1095.22 C -335.162 1095.22 -342.138 1102.197 -342.138 1110.666 C -342.138 1119.136 -335.162 1126.112 -326.693 1126.112 C -318.223 1126.112 -311.247 1119.136 -311.247 1110.666 C -311.247 1102.197 -318.223 1095.22 -326.693 1095.22 Z  M -290.652 1095.22 C -299.122 1095.22 -306.098 1102.197 -306.098 1110.666 C -306.098 1119.136 -299.122 1126.112 -290.652 1126.112 C -282.183 1126.112 -275.207 1119.136 -275.207 1110.666 C -275.207 1102.197 -282.183 1095.22 -290.652 1095.22 Z  M -260.724 1095.22 C -263.186 1095.689 -264.954 1097.863 -264.909 1100.369 L -264.909 1120.963 C -264.909 1123.795 -262.593 1126.112 -259.761 1126.112 L -131.046 1126.112 C -128.214 1126.112 -125.897 1123.795 -125.897 1120.963 L -125.897 1100.369 C -125.897 1097.537 -128.214 1095.22 -131.046 1095.22 L -260.724 1095.22 Z  M -326.693 1105.518 C -323.794 1105.518 -321.544 1107.773 -321.544 1110.666 C -321.544 1113.565 -323.799 1115.815 -326.693 1115.815 C -329.591 1115.815 -331.841 1113.56 -331.841 1110.666 C -331.841 1107.768 -329.586 1105.518 -326.693 1105.518 Z  M -290.652 1105.518 C -287.754 1105.518 -285.504 1107.773 -285.504 1110.666 C -285.504 1113.565 -287.759 1115.815 -290.652 1115.815 C -293.551 1115.815 -295.801 1113.56 -295.801 1110.666 C -295.801 1107.768 -293.546 1105.518 -290.652 1105.518 Z  M -254.612 1105.518 L -136.194 1105.518 L -136.194 1115.815 L -254.612 1115.815 L -254.612 1105.518 Z  M -352.436 1146.706 L -115.6 1146.706 L -115.6 1265.124 C -115.6 1267.982 -117.891 1270.273 -120.749 1270.273 L -347.287 1270.273 C -350.145 1270.273 -352.436 1267.982 -352.436 1265.124 L -352.436 1146.706 Z " fill="rgb(0,0,0)"/></svg>