<?xml version="1.0" standalone="no"?><!-- Generator: Gravit.io --><svg xmlns="http://www.w3.org/2000/svg" xmlns:xlink="http://www.w3.org/1999/xlink" style="isolation:isolate" viewBox="-629.015 1056.736 195.445 159.909" width="195.445" height="159.909"><path d=" M -617.17 1056.736 C -623.685 1056.736 -629.015 1062.066 -629.015 1068.581 L -629.015 1204.8 C -629.015 1211.315 -623.685 1216.645 -617.17 1216.645 L -445.415 1216.645 C -438.9 1216.645 -433.57 1211.315 -433.57 1204.8 L -433.57 1068.581 C -433.57 1062.066 -438.9 1056.736 -445.415 1056.736 L -617.17 1056.736 Z  M -617.17 1062.658 L -445.415 1062.658 C -442.108 1062.658 -439.493 1065.273 -439.493 1068.581 L -439.493 1204.8 C -439.493 1208.108 -442.108 1210.723 -445.415 1210.723 L -617.17 1210.723 C -620.478 1210.723 -623.093 1208.108 -623.093 1204.8 L -623.093 1068.581 C -623.093 1065.273 -620.478 1062.658 -617.17 1062.658 Z  M -623.093 1107.078 C -623.093 1108.706 -621.76 1110.039 -620.131 1110.039 C -618.503 1110.039 -617.17 1108.706 -617.17 1107.078 C -617.17 1105.449 -618.503 1104.116 -620.131 1104.116 C -621.76 1104.116 -623.093 1105.449 -623.093 1107.078 Z  M -439.493 1107.078 C -439.493 1105.449 -440.825 1104.116 -442.454 1104.116 C -444.083 1104.116 -445.415 1105.449 -445.415 1107.078 C -445.415 1108.706 -444.083 1110.039 -442.454 1110.039 C -440.825 1110.039 -439.493 1108.706 -439.493 1107.078 Z  M -602.363 1071.542 C -608.878 1071.542 -614.209 1076.872 -614.209 1083.387 C -614.209 1089.902 -608.878 1095.232 -602.363 1095.232 C -595.849 1095.232 -590.518 1089.902 -590.518 1083.387 C -590.518 1076.872 -595.849 1071.542 -602.363 1071.542 Z  M -572.751 1071.542 C -579.265 1071.542 -584.596 1076.872 -584.596 1083.387 C -584.596 1089.902 -579.265 1095.232 -572.751 1095.232 C -566.236 1095.232 -560.905 1089.902 -560.905 1083.387 C -560.905 1076.872 -566.236 1071.542 -572.751 1071.542 Z  M -552.022 1071.542 L -552.022 1095.232 L -448.377 1095.232 L -448.377 1071.542 L -552.022 1071.542 Z  M -602.363 1077.465 C -599.056 1077.465 -596.441 1080.08 -596.441 1083.387 C -596.441 1086.695 -599.056 1089.31 -602.363 1089.31 C -605.671 1089.31 -608.286 1086.695 -608.286 1083.387 C -608.286 1080.08 -605.671 1077.465 -602.363 1077.465 Z  M -572.751 1077.465 C -569.443 1077.465 -566.828 1080.08 -566.828 1083.387 C -566.828 1086.695 -569.443 1089.31 -572.751 1089.31 C -576.058 1089.31 -578.673 1086.695 -578.673 1083.387 C -578.673 1080.08 -576.058 1077.465 -572.751 1077.465 Z  M -546.099 1077.465 L -454.299 1077.465 L -454.299 1089.31 L -546.099 1089.31 L -546.099 1077.465 Z  M -608.286 1104.116 C -609.915 1104.116 -611.247 1105.449 -611.247 1107.078 C -611.247 1108.706 -609.915 1110.039 -608.286 1110.039 C -606.657 1110.039 -605.325 1108.706 -605.325 1107.078 C -605.325 1105.449 -606.657 1104.116 -608.286 1104.116 Z  M -596.441 1104.116 C -598.07 1104.116 -599.402 1105.449 -599.402 1107.078 C -599.402 1108.706 -598.07 1110.039 -596.441 1110.039 C -594.812 1110.039 -593.48 1108.706 -593.48 1107.078 C -593.48 1105.449 -594.812 1104.116 -596.441 1104.116 Z  M -584.596 1104.116 C -586.224 1104.116 -587.557 1105.449 -587.557 1107.078 C -587.557 1108.706 -586.224 1110.039 -584.596 1110.039 C -582.967 1110.039 -581.634 1108.706 -581.634 1107.078 C -581.634 1105.449 -582.967 1104.116 -584.596 1104.116 Z  M -572.751 1104.116 C -574.379 1104.116 -575.712 1105.449 -575.712 1107.078 C -575.712 1108.706 -574.379 1110.039 -572.751 1110.039 C -571.122 1110.039 -569.789 1108.706 -569.789 1107.078 C -569.789 1105.449 -571.122 1104.116 -572.751 1104.116 Z  M -560.905 1104.116 C -562.534 1104.116 -563.867 1105.449 -563.867 1107.078 C -563.867 1108.706 -562.534 1110.039 -560.905 1110.039 C -559.277 1110.039 -557.944 1108.706 -557.944 1107.078 C -557.944 1105.449 -559.277 1104.116 -560.905 1104.116 Z  M -549.06 1104.116 C -550.689 1104.116 -552.022 1105.449 -552.022 1107.078 C -552.022 1108.706 -550.689 1110.039 -549.06 1110.039 C -547.432 1110.039 -546.099 1108.706 -546.099 1107.078 C -546.099 1105.449 -547.432 1104.116 -549.06 1104.116 Z  M -537.215 1104.116 C -538.844 1104.116 -540.176 1105.449 -540.176 1107.078 C -540.176 1108.706 -538.844 1110.039 -537.215 1110.039 C -535.586 1110.039 -534.254 1108.706 -534.254 1107.078 C -534.254 1105.449 -535.586 1104.116 -537.215 1104.116 Z  M -525.37 1104.116 C -526.999 1104.116 -528.331 1105.449 -528.331 1107.078 C -528.331 1108.706 -526.999 1110.039 -525.37 1110.039 C -523.741 1110.039 -522.409 1108.706 -522.409 1107.078 C -522.409 1105.449 -523.741 1104.116 -525.37 1104.116 Z  M -513.525 1104.116 C -515.154 1104.116 -516.486 1105.449 -516.486 1107.078 C -516.486 1108.706 -515.154 1110.039 -513.525 1110.039 C -511.896 1110.039 -510.564 1108.706 -510.564 1107.078 C -510.564 1105.449 -511.896 1104.116 -513.525 1104.116 Z  M -501.68 1104.116 C -503.308 1104.116 -504.641 1105.449 -504.641 1107.078 C -504.641 1108.706 -503.308 1110.039 -501.68 1110.039 C -500.051 1110.039 -498.718 1108.706 -498.718 1107.078 C -498.718 1105.449 -500.051 1104.116 -501.68 1104.116 Z  M -489.835 1104.116 C -491.463 1104.116 -492.796 1105.449 -492.796 1107.078 C -492.796 1108.706 -491.463 1110.039 -489.835 1110.039 C -488.206 1110.039 -486.873 1108.706 -486.873 1107.078 C -486.873 1105.449 -488.206 1104.116 -489.835 1104.116 Z  M -477.989 1104.116 C -479.618 1104.116 -480.951 1105.449 -480.951 1107.078 C -480.951 1108.706 -479.618 1110.039 -477.989 1110.039 C -476.361 1110.039 -475.028 1108.706 -475.028 1107.078 C -475.028 1105.449 -476.361 1104.116 -477.989 1104.116 Z  M -466.144 1104.116 C -467.773 1104.116 -469.106 1105.449 -469.106 1107.078 C -469.106 1108.706 -467.773 1110.039 -466.144 1110.039 C -464.516 1110.039 -463.183 1108.706 -463.183 1107.078 C -463.183 1105.449 -464.516 1104.116 -466.144 1104.116 Z  M -454.299 1104.116 C -455.928 1104.116 -457.26 1105.449 -457.26 1107.078 C -457.26 1108.706 -455.928 1110.039 -454.299 1110.039 C -452.67 1110.039 -451.338 1108.706 -451.338 1107.078 C -451.338 1105.449 -452.67 1104.116 -454.299 1104.116 Z " fill="rgb(0,0,0)"/></svg>