<?xml version="1.0" standalone="no"?><!-- Generator: Gravit.io --><svg xmlns="http://www.w3.org/2000/svg" xmlns:xlink="http://www.w3.org/1999/xlink" style="isolation:isolate" viewBox="472.333 359.612 32.388 32.388" width="32.388" height="32.388"><g><path d="M 477.41 359.612 L 499.645 359.612 C 502.446 359.612 504.721 361.887 504.721 364.689 L 504.721 386.924 C 504.721 389.725 502.446 392 499.645 392 L 477.41 392 C 474.608 392 472.333 389.725 472.333 386.924 L 472.333 364.689 C 472.333 361.887 474.608 359.612 477.41 359.612 Z" style="stroke:none;fill:#3C5A99;stroke-miterlimit:10;"/><path d=" M 490.268 385.264 L 490.268 376.636 L 493.164 376.636 L 493.598 373.273 L 490.268 373.273 L 490.268 371.126 C 490.268 370.153 490.539 369.489 491.935 369.489 L 493.715 369.489 L 493.715 366.481 C 493.407 366.44 492.35 366.349 491.121 366.349 C 488.553 366.349 486.796 367.916 486.796 370.793 L 486.796 373.273 L 483.892 373.273 L 483.892 376.636 L 486.796 376.636 L 486.796 385.264 L 490.268 385.264 Z " fill="rgb(255,255,255)"/></g></svg>