<?xml version="1.0" standalone="no"?><!-- Generator: Gravit.io --><svg xmlns="http://www.w3.org/2000/svg" xmlns:xlink="http://www.w3.org/1999/xlink" style="isolation:isolate" viewBox="591.5 -93 256 256" width="256" height="256"><g><path d="M 631.624 -93 L 807.376 -93 C 829.521 -93 847.5 -75.021 847.5 -52.876 L 847.5 122.876 C 847.5 145.021 829.521 163 807.376 163 L 631.624 163 C 609.479 163 591.5 145.021 591.5 122.876 L 591.5 -52.876 C 591.5 -75.021 609.479 -93 631.624 -93 Z" style="stroke:none;fill:#3C5A99;stroke-miterlimit:10;"/><path d=" M 754.393 163 L 754.393 74.507 L 784.096 74.507 L 788.543 40.02 L 754.393 40.02 L 754.393 18.002 C 754.393 8.017 757.166 1.213 771.484 1.213 L 789.746 1.205 L 789.746 -29.641 C 786.587 -30.061 775.747 -31 763.135 -31 C 736.805 -31 718.779 -14.928 718.779 14.587 L 718.779 40.02 L 689 40.02 L 689 74.507 L 718.779 74.507 L 718.779 163 L 754.393 163 Z " fill="rgb(255,255,255)"/></g></svg>