<?xml version="1.0" standalone="no"?><!-- Generator: Gravit.io --><svg xmlns="http://www.w3.org/2000/svg" xmlns:xlink="http://www.w3.org/1999/xlink" style="isolation:isolate" viewBox="684 359.612 32.388 32.388" width="32.388" height="32.388"><g><path d="M 689.076 359.612 L 711.311 359.612 C 714.113 359.612 716.388 361.887 716.388 364.689 L 716.388 386.924 C 716.388 389.725 714.113 392 711.311 392 L 689.076 392 C 686.275 392 684 389.725 684 386.924 L 684 364.689 C 684 361.887 686.275 359.612 689.076 359.612 Z" style="stroke:none;fill:#000000;stroke-miterlimit:10;"/><path d=" M 695.739 392 C 695.945 391.81 696.159 391.368 696.159 391.085 C 696.159 391.038 696.155 390.613 696.148 389.809 C 696.139 389.006 696.135 388.305 696.135 387.707 L 695.593 387.801 C 695.246 387.865 694.808 387.892 694.282 387.883 C 693.754 387.876 693.206 387.821 692.639 387.718 C 692.072 387.616 691.545 387.381 691.057 387.01 C 690.568 386.64 690.223 386.156 690.017 385.557 L 689.781 385.014 C 689.624 384.651 689.376 384.251 689.037 383.809 C 688.698 383.368 688.355 383.068 688.01 382.911 L 687.844 382.794 C 687.734 382.714 687.632 382.62 687.537 382.509 C 687.442 382.4 687.371 382.289 687.324 382.179 C 687.278 382.069 687.316 381.978 687.442 381.907 C 687.568 381.835 687.797 381.801 688.127 381.801 L 688.6 381.872 C 688.915 381.934 689.305 382.124 689.77 382.438 C 690.234 382.754 690.616 383.163 690.915 383.667 C 691.277 384.313 691.713 384.804 692.226 385.144 C 692.738 385.482 693.254 385.651 693.773 385.651 C 694.293 385.651 694.742 385.611 695.12 385.533 C 695.498 385.454 695.852 385.337 696.183 385.179 C 696.325 384.123 696.711 383.312 697.34 382.745 C 696.442 382.65 695.635 382.509 694.919 382.319 C 694.202 382.131 693.462 381.824 692.699 381.397 C 691.934 380.973 691.3 380.445 690.796 379.816 C 690.293 379.186 689.879 378.358 689.557 377.335 C 689.234 376.31 689.073 375.13 689.073 373.792 C 689.073 371.886 689.695 370.264 690.939 368.924 C 690.356 367.491 690.411 365.886 691.105 364.106 C 691.56 363.963 692.239 364.071 693.136 364.425 C 694.034 364.779 694.691 365.083 695.108 365.334 C 695.526 365.586 695.86 365.8 696.112 365.972 C 697.578 365.563 699.09 365.358 700.649 365.358 C 702.207 365.358 703.719 365.563 705.185 365.972 L 706.083 365.404 C 706.695 365.026 707.42 364.681 708.256 364.365 C 709.09 364.051 709.728 363.965 710.17 364.106 C 710.878 365.886 710.942 367.491 710.358 368.926 C 711.603 370.264 712.224 371.886 712.224 373.792 C 712.224 375.13 712.063 376.315 711.74 377.347 C 711.417 378.379 711.001 379.206 710.488 379.827 C 709.976 380.45 709.339 380.973 708.574 381.399 C 707.811 381.824 707.071 382.131 706.354 382.319 C 705.638 382.509 704.831 382.65 703.933 382.745 C 704.752 383.455 705.161 384.572 705.161 386.099 L 705.161 391.085 C 705.161 391.368 705.284 391.812 705.481 392 C 704.635 391.995 696.216 391.998 695.739 392 Z " fill="rgb(255,255,255)"/></g></svg>