<?xml version="1.0" standalone="no"?><!-- Generator: Gravit.io --><svg xmlns="http://www.w3.org/2000/svg" xmlns:xlink="http://www.w3.org/1999/xlink" style="isolation:isolate" viewBox="430 359.612 32.388 32.388" width="32.388" height="32.388"><g><defs><linearGradient id="_lgradient_0" x1="0.4302191198224853" y1="1.0570220044378704" x2="1.0148076082571278" y2="-0.0008047841581491078"><stop offset="0%" style="stop-color:#FBA140"/><stop offset="31.73913043478261%" style="stop-color:#E94954"/><stop offset="64.78260869565217%" style="stop-color:#CC308C"/><stop offset="100%" style="stop-color:#953DAB"/></linearGradient></defs><path d="M 435.076 359.612 L 457.311 359.612 C 460.113 359.612 462.388 361.887 462.388 364.689 L 462.388 386.924 C 462.388 389.725 460.113 392 457.311 392 L 435.076 392 C 432.275 392 430 389.725 430 386.924 L 430 364.689 C 430 361.887 432.275 359.612 435.076 359.612 Z" style="stroke:none;fill:url(#_lgradient_0);stroke-miterlimit:10;"/><g><path d=" M 450.075 366.205 L 442.313 366.205 C 439.159 366.205 436.592 368.771 436.592 371.925 L 436.592 379.687 C 436.592 382.841 439.159 385.408 442.313 385.408 L 450.075 385.408 C 453.229 385.408 455.795 382.841 455.795 379.687 L 455.795 371.925 C 455.795 368.771 453.229 366.205 450.075 366.205 Z  M 453.863 379.687 C 453.863 381.779 452.167 383.476 450.075 383.476 L 442.313 383.476 C 440.221 383.476 438.524 381.779 438.524 379.687 L 438.524 371.925 C 438.524 369.833 440.221 368.137 442.313 368.137 L 450.075 368.137 C 452.167 368.137 453.863 369.833 453.863 371.925 L 453.863 379.687 L 453.863 379.687 Z " fill="rgb(255,255,255)"/><path d=" M 446.194 370.84 C 443.455 370.84 441.227 373.068 441.227 375.806 C 441.227 378.545 443.455 380.773 446.194 380.773 C 448.932 380.773 451.16 378.545 451.16 375.806 C 451.16 373.068 448.932 370.84 446.194 370.84 Z  M 446.194 378.841 C 444.518 378.841 443.159 377.482 443.159 375.806 C 443.159 374.13 444.518 372.771 446.194 372.771 C 447.87 372.771 449.229 374.13 449.229 375.806 C 449.229 377.482 447.87 378.841 446.194 378.841 Z " fill="rgb(255,255,255)"/><circle vector-effect="non-scaling-stroke" cx="451.1698659595207" cy="370.8769627082921" r="1.1900554015542184" fill="rgb(255,255,255)"/></g></g></svg>