<?xml version="1.0" standalone="no"?><!-- Generator: Gravit.io --><svg xmlns="http://www.w3.org/2000/svg" xmlns:xlink="http://www.w3.org/1999/xlink" style="isolation:isolate" viewBox="599.333 359.612 32.388 32.388" width="32.388" height="32.388"><g><path d="M 604.41 359.612 L 626.645 359.612 C 629.446 359.612 631.721 361.887 631.721 364.689 L 631.721 386.924 C 631.721 389.725 629.446 392 626.645 392 L 604.41 392 C 601.608 392 599.333 389.725 599.333 386.924 L 599.333 364.689 C 599.333 361.887 601.608 359.612 604.41 359.612 Z" style="stroke:none;fill:#FF3A00;stroke-miterlimit:10;"/><g><path d=" M 603.764 376.02 C 603.708 376.02 603.663 376.064 603.656 376.125 L 603.4 378.464 L 603.656 380.751 C 603.663 380.812 603.708 380.856 603.764 380.856 C 603.819 380.856 603.863 380.813 603.872 380.751 L 604.164 378.464 L 603.872 376.125 C 603.863 376.063 603.819 376.02 603.764 376.02 Z " fill="rgb(255,255,255)"/><path d=" M 602.801 376.916 C 602.747 376.916 602.704 376.958 602.697 377.018 L 602.506 378.464 L 602.697 379.886 C 602.704 379.946 602.747 379.987 602.801 379.987 C 602.854 379.987 602.897 379.946 602.905 379.886 L 603.131 378.464 L 602.905 377.017 C 602.897 376.958 602.854 376.916 602.801 376.916 Z " fill="rgb(255,255,255)"/><path d=" M 604.787 375.561 C 604.718 375.561 604.663 375.615 604.657 375.689 L 604.413 378.464 L 604.657 381.137 C 604.663 381.212 604.718 381.265 604.787 381.265 C 604.854 381.265 604.909 381.212 604.917 381.138 L 605.193 378.464 L 604.917 375.689 C 604.909 375.615 604.854 375.561 604.787 375.561 Z " fill="rgb(255,255,255)"/><path d=" M 605.819 375.463 C 605.738 375.463 605.672 375.528 605.665 375.614 L 605.436 378.465 L 605.665 381.223 C 605.672 381.308 605.738 381.373 605.819 381.373 C 605.898 381.373 605.964 381.308 605.971 381.223 L 606.232 378.465 L 605.971 375.613 C 605.964 375.528 605.898 375.463 605.819 375.463 Z " fill="rgb(255,255,255)"/><path d=" M 607.033 381.246 L 607.033 381.246 L 607.033 381.246 L 607.033 381.246 Z " fill="rgb(255,255,255)"/><path d=" M 607.033 375.819 C 607.027 375.722 606.951 375.647 606.858 375.647 C 606.764 375.647 606.689 375.721 606.683 375.82 L 606.466 378.465 L 606.683 381.246 C 606.689 381.343 606.764 381.418 606.858 381.418 C 606.951 381.418 607.027 381.343 607.033 381.246 L 607.279 378.465 L 607.033 375.819 Z " fill="rgb(255,255,255)"/><path d=" M 607.907 373.968 C 607.801 373.968 607.715 374.054 607.709 374.163 L 607.506 378.466 L 607.709 381.247 C 607.715 381.355 607.801 381.441 607.907 381.441 C 608.011 381.441 608.097 381.355 608.104 381.246 L 608.104 381.247 L 608.334 378.466 L 608.104 374.163 C 608.097 374.054 608.011 373.968 607.907 373.968 Z " fill="rgb(255,255,255)"/><path d=" M 608.947 372.977 C 608.829 372.977 608.732 373.072 608.727 373.194 C 608.727 373.194 608.537 378.481 608.537 378.481 L 608.727 381.244 C 608.733 381.365 608.829 381.461 608.947 381.461 C 609.064 381.461 609.161 381.365 609.166 381.244 L 609.166 381.245 L 609.381 378.481 L 609.166 373.194 C 609.161 373.072 609.064 372.977 608.947 372.977 Z " fill="rgb(255,255,255)"/><path d=" M 610.028 372.499 C 609.897 372.499 609.791 372.604 609.786 372.739 C 609.786 372.739 609.609 378.467 609.609 378.467 L 609.786 381.202 C 609.791 381.335 609.897 381.441 610.028 381.441 C 610.158 381.441 610.264 381.335 610.27 381.201 L 610.27 381.203 L 610.47 378.468 L 610.27 372.739 C 610.264 372.604 610.158 372.499 610.028 372.499 Z " fill="rgb(255,255,255)"/><path d=" M 611.365 372.546 C 611.36 372.399 611.244 372.284 611.101 372.284 C 610.957 372.284 610.841 372.399 610.837 372.546 L 610.673 378.467 L 610.838 381.185 C 610.842 381.331 610.957 381.446 611.101 381.446 C 611.244 381.446 611.361 381.331 611.365 381.184 L 611.55 378.468 L 611.365 372.546 Z " fill="rgb(255,255,255)"/><path d=" M 611.365 381.184 L 611.365 381.184 L 611.365 381.185 L 611.365 381.184 Z " fill="rgb(255,255,255)"/><path d=" M 612.183 372.413 C 612.026 372.413 611.9 372.538 611.897 372.698 L 611.746 378.468 L 611.897 381.16 C 611.901 381.318 612.026 381.443 612.183 381.443 C 612.339 381.443 612.465 381.317 612.469 381.158 L 612.469 381.16 L 612.639 378.468 L 612.469 372.697 C 612.465 372.538 612.339 372.413 612.183 372.413 Z " fill="rgb(255,255,255)"/><path d=" M 613.273 372.602 C 613.104 372.602 612.968 372.737 612.965 372.909 L 612.827 378.468 L 612.965 381.144 C 612.968 381.314 613.104 381.449 613.273 381.449 C 613.442 381.449 613.578 381.314 613.581 381.142 L 613.581 381.144 L 613.736 378.469 L 613.581 372.909 C 613.578 372.737 613.442 372.602 613.273 372.602 Z " fill="rgb(255,255,255)"/><path d=" M 614.554 371.58 C 614.502 371.545 614.439 371.524 614.372 371.524 C 614.306 371.524 614.245 371.544 614.194 371.577 C 614.103 371.636 614.043 371.738 614.041 371.853 L 614.04 371.916 L 613.916 378.467 C 613.916 378.471 614.041 381.126 614.041 381.126 C 614.041 381.131 614.042 381.134 614.042 381.138 C 614.046 381.212 614.074 381.28 614.119 381.334 C 614.18 381.407 614.271 381.454 614.372 381.454 C 614.461 381.454 614.543 381.417 614.603 381.357 C 614.663 381.297 614.701 381.215 614.702 381.124 L 614.716 380.862 L 614.841 378.469 L 614.702 371.853 C 614.7 371.739 614.642 371.639 614.554 371.58 Z " fill="rgb(255,255,255)"/><path d=" M 614.702 381.126 L 614.702 381.126 L 614.702 381.127 L 614.702 381.125 L 614.702 381.124 L 614.702 381.124 L 614.702 381.126 L 614.702 381.126 Z " fill="rgb(255,255,255)"/><path d=" M 615.645 370.953 C 615.593 370.921 615.531 370.902 615.465 370.902 C 615.381 370.902 615.304 370.933 615.243 370.983 C 615.165 371.047 615.114 371.145 615.112 371.254 L 615.112 371.29 L 614.968 378.47 L 615.041 379.797 L 615.112 381.089 C 615.115 381.28 615.273 381.438 615.465 381.438 C 615.657 381.438 615.815 381.28 615.818 381.086 L 615.818 381.089 L 615.818 381.089 L 615.975 378.47 L 615.975 378.47 L 615.818 371.253 C 615.816 371.126 615.746 371.014 615.645 370.953 Z " fill="rgb(255,255,255)"/><path d=" M 625.345 375.054 C 624.906 375.054 624.487 375.143 624.106 375.303 C 623.851 372.416 621.43 370.152 618.478 370.152 C 617.755 370.152 617.051 370.294 616.429 370.534 C 616.187 370.628 616.123 370.724 616.121 370.911 C 616.121 370.911 616.121 381.077 616.121 381.077 C 616.123 381.273 616.275 381.425 616.466 381.444 C 616.475 381.445 625.345 381.444 625.345 381.444 C 627.115 381.444 628.548 380.026 628.548 378.257 C 628.548 376.488 627.114 375.054 625.345 375.054 Z " fill="rgb(255,255,255)"/></g></g></svg>