<?xml version="1.0" standalone="no"?><!-- Generator: Gravit.io --><svg xmlns="http://www.w3.org/2000/svg" xmlns:xlink="http://www.w3.org/1999/xlink" style="isolation:isolate" viewBox="1670 -94.5 259 259" width="259" height="259"><g><path d="M 1710.124 -91.5 L 1885.876 -91.5 C 1908.021 -91.5 1926 -73.521 1926 -51.376 L 1926 124.376 C 1926 146.521 1908.021 164.5 1885.876 164.5 L 1710.124 164.5 C 1687.979 164.5 1670 146.521 1670 124.376 L 1670 -51.376 C 1670 -73.521 1687.979 -91.5 1710.124 -91.5 Z" style="stroke:none;fill:#FFFC00;stroke-miterlimit:10;"/><path d=" M 1711.62 -94.5 L 1887.38 -94.5 C 1898.41 -94.5 1909.01 -90.11 1916.81 -82.31 C 1924.61 -74.51 1929 -63.91 1929 -52.88 L 1929 122.88 C 1929 133.91 1924.61 144.51 1916.81 152.31 C 1909.01 160.11 1898.41 164.5 1887.38 164.5 L 1711.62 164.5 C 1700.59 164.5 1689.99 160.11 1682.19 152.31 C 1674.39 144.51 1670 133.91 1670 122.88 L 1670 -52.88 C 1670 -63.91 1674.39 -74.51 1682.19 -82.31 C 1689.99 -90.11 1700.59 -94.5 1711.62 -94.5 Z  M 1711.62 -91.5 L 1887.38 -91.5 C 1897.62 -91.5 1907.45 -87.43 1914.69 -80.19 C 1921.93 -72.95 1926 -63.12 1926 -52.88 L 1926 122.88 C 1926 133.12 1921.93 142.95 1914.69 150.19 C 1907.45 157.43 1897.62 161.5 1887.38 161.5 L 1711.62 161.5 C 1701.38 161.5 1691.55 157.43 1684.31 150.19 C 1677.07 142.95 1673 133.12 1673 122.88 L 1673 -52.88 C 1673 -63.12 1677.07 -72.95 1684.31 -80.19 C 1691.55 -87.43 1701.38 -91.5 1711.62 -91.5 Z " fill-rule="evenodd" fill="rgb(0,0,0)"/><path d=" M 1800.526 111.514 C 1800.064 111.514 1799.624 111.497 1799.288 111.481 C 1799.022 111.504 1798.748 111.514 1798.473 111.514 C 1788.767 111.514 1782.278 106.926 1776.551 102.874 C 1772.447 99.975 1768.576 97.238 1764.041 96.483 C 1761.813 96.114 1759.598 95.927 1757.457 95.927 C 1753.6 95.927 1750.552 96.525 1748.326 96.96 C 1746.957 97.227 1745.776 97.457 1744.863 97.457 C 1743.907 97.457 1742.746 97.245 1742.262 95.592 C 1741.878 94.288 1741.603 93.025 1741.337 91.809 C 1740.673 88.769 1740.191 86.914 1739.053 86.738 C 1726.881 84.86 1719.688 82.093 1718.256 78.742 C 1718.11 78.407 1718.025 78.05 1718.003 77.685 C 1717.947 76.689 1718.652 75.81 1719.637 75.648 C 1729.304 74.056 1737.899 68.947 1745.186 60.457 C 1750.83 53.884 1753.602 47.604 1753.9 46.911 C 1753.913 46.879 1753.927 46.847 1753.943 46.817 C 1755.348 43.967 1755.627 41.505 1754.776 39.5 C 1753.208 35.801 1748.013 34.153 1744.577 33.062 C 1743.722 32.792 1742.914 32.536 1742.269 32.28 C 1739.223 31.077 1734.213 28.534 1734.88 25.025 C 1735.366 22.466 1738.751 20.683 1741.487 20.683 C 1742.246 20.683 1742.919 20.817 1743.486 21.083 C 1746.577 22.531 1749.358 23.265 1751.75 23.265 C 1754.724 23.265 1756.16 22.132 1756.508 21.811 C 1756.417 20.187 1756.32 18.563 1756.214 16.939 C 1755.516 5.833 1754.645 -7.988 1758.18 -15.914 C 1768.762 -39.638 1791.201 -41.483 1797.825 -41.483 C 1798.918 -41.492 1800.011 -41.503 1801.104 -41.514 C 1807.746 -41.514 1830.233 -39.667 1840.821 -15.928 C 1844.356 -7.997 1843.484 5.836 1842.784 16.954 L 1842.751 17.486 C 1842.655 18.995 1842.566 20.424 1842.491 21.809 C 1842.818 22.11 1844.133 23.148 1846.807 23.253 C 1849.087 23.166 1851.708 22.435 1854.593 21.084 C 1855.485 20.666 1856.472 20.579 1857.143 20.579 C 1858.156 20.579 1859.187 20.776 1860.047 21.135 L 1860.092 21.152 C 1862.541 22.022 1864.144 23.758 1864.179 25.583 C 1864.21 27.283 1862.946 29.826 1856.729 32.281 C 1856.092 32.533 1855.28 32.791 1854.422 33.063 C 1850.982 34.155 1845.791 35.802 1844.223 39.499 C 1843.371 41.504 1843.651 43.965 1845.056 46.814 C 1845.072 46.845 1845.085 46.877 1845.1 46.91 C 1845.533 47.923 1856.003 71.797 1879.363 75.646 C 1880.348 75.809 1881.052 76.687 1880.997 77.684 C 1880.974 78.051 1880.887 78.412 1880.738 78.75 C 1879.316 82.082 1872.124 84.845 1859.948 86.725 C 1858.805 86.902 1858.324 88.749 1857.665 91.772 C 1857.393 93.021 1857.115 94.245 1856.737 95.532 C 1856.383 96.742 1855.594 97.333 1854.329 97.333 L 1854.138 97.333 C 1853.314 97.333 1852.146 97.183 1850.674 96.895 C 1848.1 96.394 1845.214 95.928 1841.543 95.928 C 1839.403 95.928 1837.188 96.116 1834.958 96.484 C 1830.427 97.239 1826.557 99.972 1822.46 102.868 C 1816.722 106.925 1810.231 111.514 1800.526 111.514" fill="rgb(255,255,255)"/><path d=" M 1752.54 46.28 L 1752.58 46.18 C 1752.59 46.17 1752.6 46.16 1752.6 46.14 C 1752.97 45.41 1753.26 44.65 1753.48 43.86 C 1753.66 43.24 1753.75 42.59 1753.76 41.94 C 1753.76 41.31 1753.64 40.68 1753.4 40.09 C 1753.08 39.37 1752.6 38.73 1752.01 38.21 C 1751.31 37.59 1750.53 37.06 1749.69 36.64 C 1748.79 36.17 1747.85 35.76 1746.89 35.42 C 1745.98 35.09 1745.06 34.78 1744.14 34.5 C 1744.14 34.5 1744.14 34.5 1744.13 34.5 C 1744.13 34.49 1744.13 34.49 1744.12 34.49 L 1744.12 34.49 L 1744.15 34.5 C 1744.14 34.5 1744.14 34.5 1744.14 34.5 C 1743.33 34.25 1742.52 33.98 1741.73 33.68 C 1740.88 33.35 1740.04 32.97 1739.22 32.56 C 1738.31 32.1 1737.43 31.56 1736.6 30.96 C 1735.74 30.35 1734.99 29.61 1734.37 28.76 C 1733.71 27.87 1733.34 26.79 1733.32 25.68 C 1733.32 25.36 1733.35 25.04 1733.41 24.73 C 1733.59 23.84 1734 23 1734.58 22.3 C 1735.14 21.63 1735.81 21.06 1736.57 20.61 C 1737.31 20.16 1738.11 19.81 1738.94 19.56 C 1739.76 19.32 1740.61 19.19 1741.46 19.18 C 1742.38 19.16 1743.28 19.35 1744.11 19.72 C 1745.45 20.36 1746.85 20.88 1748.28 21.27 C 1749.42 21.59 1750.59 21.75 1751.77 21.77 C 1752.73 21.78 1753.68 21.61 1754.57 21.26 C 1754.7 21.21 1754.83 21.15 1754.96 21.08 L 1754.72 17.03 L 1754.72 17.02 C 1754.55 14.53 1754.41 12.04 1754.29 9.55 C 1754.16 6.97 1754.09 4.38 1754.08 1.79 C 1754.08 0.11 1754.12 -1.58 1754.21 -3.27 C 1754.29 -4.88 1754.43 -6.49 1754.64 -8.09 C 1754.83 -9.59 1755.11 -11.08 1755.47 -12.55 C 1755.8 -13.91 1756.25 -15.24 1756.81 -16.52 C 1758.08 -19.38 1759.62 -22.12 1761.42 -24.69 C 1763.03 -26.97 1764.86 -29.08 1766.87 -31.01 C 1770.39 -34.33 1774.45 -37.02 1778.88 -38.97 C 1782.46 -40.54 1786.22 -41.66 1790.07 -42.3 C 1792.63 -42.75 1795.22 -42.97 1797.82 -42.98 L 1801.09 -43.01 C 1801.1 -43.01 1801.1 -43.01 1801.11 -43.01 C 1803.71 -43 1806.31 -42.78 1808.87 -42.33 C 1812.73 -41.69 1816.5 -40.57 1820.08 -39 C 1824.52 -37.05 1828.59 -34.36 1832.11 -31.03 C 1834.14 -29.11 1835.97 -26.99 1837.57 -24.71 C 1839.38 -22.14 1840.92 -19.4 1842.19 -16.53 C 1842.75 -15.25 1843.2 -13.92 1843.53 -12.56 C 1843.89 -11.09 1844.17 -9.6 1844.36 -8.1 C 1844.57 -6.5 1844.71 -4.89 1844.79 -3.28 C 1844.88 -1.59 1844.92 0.1 1844.92 1.78 C 1844.91 4.38 1844.84 6.97 1844.71 9.56 C 1844.59 12.06 1844.44 14.55 1844.28 17.05 C 1844.28 17.05 1844.28 17.05 1844.28 17.05 L 1844.28 17.05 L 1844.28 17.05 L 1844.28 17.05 L 1844.25 17.58 C 1844.25 17.58 1844.25 17.58 1844.25 17.58 C 1844.17 18.75 1844.1 19.91 1844.04 21.07 C 1844.14 21.13 1844.24 21.18 1844.35 21.22 C 1845.12 21.55 1845.95 21.73 1846.79 21.75 C 1847.9 21.69 1848.99 21.51 1850.06 21.2 C 1851.4 20.82 1852.71 20.32 1853.97 19.72 C 1854.97 19.28 1856.06 19.06 1857.15 19.08 C 1858.33 19.07 1859.5 19.3 1860.6 19.74 L 1860.6 19.74 C 1861.94 20.19 1863.15 20.96 1864.13 21.98 C 1864.58 22.46 1864.96 23.01 1865.23 23.62 C 1865.51 24.22 1865.66 24.88 1865.68 25.54 C 1865.68 25.55 1865.68 25.56 1865.68 25.57 L 1865.68 25.63 C 1865.68 25.64 1865.68 25.65 1865.68 25.65 C 1865.67 26.35 1865.53 27.03 1865.25 27.66 C 1864.91 28.44 1864.42 29.14 1863.82 29.75 C 1863.06 30.52 1862.19 31.2 1861.25 31.75 C 1859.98 32.51 1858.64 33.15 1857.26 33.68 C 1856.47 33.98 1855.67 34.25 1854.86 34.5 C 1854.86 34.5 1854.86 34.5 1854.85 34.5 L 1854.88 34.49 L 1854.87 34.49 C 1854.87 34.49 1854.87 34.5 1854.86 34.5 C 1854.86 34.5 1854.86 34.5 1854.86 34.5 C 1853.94 34.78 1853.02 35.09 1852.1 35.42 C 1851.14 35.77 1850.21 36.17 1849.3 36.64 C 1848.47 37.06 1847.69 37.59 1846.99 38.21 C 1846.39 38.73 1845.92 39.37 1845.6 40.09 C 1845.36 40.68 1845.24 41.31 1845.24 41.94 C 1845.25 42.59 1845.34 43.24 1845.52 43.86 C 1845.73 44.65 1846.03 45.41 1846.4 46.14 C 1846.4 46.15 1846.41 46.17 1846.42 46.18 L 1846.45 46.25 L 1846.47 46.29 C 1846.47 46.3 1846.47 46.3 1846.48 46.31 C 1846.67 46.75 1846.87 47.18 1847.08 47.61 C 1847.57 48.6 1848.1 49.58 1848.65 50.54 C 1850.43 53.62 1852.48 56.54 1854.78 59.25 C 1857.74 62.78 1861.2 65.87 1865.04 68.42 C 1867.16 69.82 1869.42 71 1871.77 71.96 C 1874.29 72.98 1876.92 73.72 1879.61 74.17 C 1880.42 74.3 1881.15 74.72 1881.68 75.34 C 1882.21 75.96 1882.5 76.76 1882.5 77.57 C 1882.5 77.59 1882.5 77.6 1882.5 77.62 L 1882.5 77.72 C 1882.5 77.74 1882.5 77.76 1882.49 77.78 C 1882.46 78.32 1882.33 78.86 1882.11 79.36 C 1881.85 79.95 1881.48 80.51 1881.04 80.99 C 1880.57 81.5 1880.04 81.97 1879.46 82.37 C 1878.81 82.82 1878.13 83.23 1877.42 83.58 C 1876.6 83.99 1875.76 84.36 1874.9 84.69 C 1872.8 85.47 1870.66 86.11 1868.47 86.62 C 1865.77 87.25 1863.05 87.77 1860.3 88.19 C 1860.19 88.35 1860.1 88.52 1860.03 88.7 C 1859.86 89.16 1859.71 89.62 1859.59 90.09 C 1859.43 90.75 1859.27 91.42 1859.13 92.08 C 1858.86 93.37 1858.55 94.65 1858.19 95.92 C 1857.96 96.78 1857.47 97.54 1856.77 98.09 C 1856.05 98.6 1855.19 98.86 1854.3 98.83 L 1854.14 98.83 C 1854.13 98.83 1854.13 98.83 1854.12 98.83 C 1853.56 98.83 1853 98.78 1852.45 98.71 C 1851.76 98.62 1851.07 98.5 1850.38 98.37 C 1849.04 98.1 1847.69 97.88 1846.34 97.71 C 1844.75 97.52 1843.15 97.43 1841.54 97.43 C 1839.42 97.43 1837.3 97.61 1835.21 97.96 C 1834.18 98.14 1833.18 98.42 1832.21 98.79 C 1831.2 99.18 1830.23 99.65 1829.28 100.18 C 1828.28 100.75 1827.3 101.35 1826.34 102 C 1825.33 102.68 1824.33 103.38 1823.33 104.09 C 1821.84 105.16 1820.33 106.19 1818.79 107.19 C 1817.13 108.26 1815.41 109.22 1813.62 110.07 C 1811.69 110.98 1809.67 111.69 1807.59 112.19 C 1805.28 112.74 1802.9 113.02 1800.52 113.01 C 1800.09 113.01 1799.65 113 1799.21 112.98 C 1799.03 113 1798.75 113.01 1798.47 113.01 C 1796.09 113.02 1793.72 112.74 1791.41 112.19 C 1789.33 111.69 1787.31 110.98 1785.38 110.07 C 1783.6 109.23 1781.87 108.26 1780.21 107.19 C 1778.68 106.2 1777.17 105.16 1775.68 104.1 L 1775.67 104.09 C 1775.67 104.09 1775.67 104.09 1775.67 104.09 C 1774.67 103.38 1773.67 102.68 1772.65 101.99 C 1771.7 101.35 1770.72 100.74 1769.71 100.18 C 1768.77 99.65 1767.79 99.18 1766.78 98.79 C 1765.82 98.41 1764.81 98.14 1763.79 97.96 C 1761.7 97.61 1759.58 97.43 1757.46 97.43 C 1755.8 97.43 1754.14 97.54 1752.5 97.76 C 1751.21 97.95 1749.92 98.17 1748.64 98.43 C 1748.64 98.43 1748.64 98.43 1748.63 98.43 L 1748.62 98.43 C 1747.97 98.56 1747.32 98.68 1746.67 98.79 C 1746.09 98.89 1745.5 98.94 1744.91 98.96 C 1744.14 98.99 1743.37 98.82 1742.69 98.47 C 1742.24 98.23 1741.84 97.89 1741.53 97.47 C 1741.21 97.03 1740.96 96.53 1740.82 95.99 C 1740.46 94.73 1740.15 93.45 1739.88 92.16 L 1739.87 92.13 C 1739.87 92.13 1739.87 92.12 1739.87 92.12 C 1739.73 91.45 1739.57 90.78 1739.4 90.12 C 1739.29 89.64 1739.14 89.18 1738.97 88.72 C 1738.9 88.53 1738.81 88.36 1738.69 88.2 C 1735.95 87.79 1733.23 87.26 1730.53 86.63 C 1728.35 86.13 1726.2 85.48 1724.1 84.7 C 1723.24 84.37 1722.4 84 1721.58 83.59 C 1720.87 83.23 1720.19 82.83 1719.54 82.37 C 1718.96 81.97 1718.43 81.5 1717.96 80.98 C 1717.51 80.5 1717.15 79.95 1716.88 79.35 C 1716.67 78.85 1716.54 78.32 1716.51 77.77 C 1716.5 77.76 1716.5 77.74 1716.5 77.73 L 1716.5 77.62 C 1716.5 77.6 1716.5 77.59 1716.5 77.57 C 1716.5 76.76 1716.79 75.96 1717.32 75.34 C 1717.85 74.72 1718.58 74.3 1719.39 74.17 C 1724.04 73.4 1728.49 71.76 1732.54 69.35 C 1734.64 68.09 1736.64 66.65 1738.5 65.05 C 1740.49 63.34 1742.34 61.48 1744.05 59.48 C 1746.38 56.76 1748.46 53.83 1750.25 50.72 C 1751.1 49.3 1751.86 47.82 1752.53 46.3 C 1752.53 46.3 1752.54 46.29 1752.54 46.28 Z  M 1745.03 31.63 C 1745.02 31.63 1745.02 31.63 1745.02 31.63 L 1745.03 31.63 L 1745.03 31.63 C 1745.03 31.63 1745.03 31.63 1745.03 31.63 C 1745.02 31.63 1745.01 31.63 1745.01 31.63 C 1744.27 31.4 1743.53 31.15 1742.81 30.88 C 1742.05 30.58 1741.3 30.25 1740.57 29.88 C 1739.8 29.49 1739.05 29.03 1738.35 28.52 C 1737.75 28.1 1737.22 27.58 1736.79 26.99 C 1736.5 26.6 1736.34 26.13 1736.32 25.64 C 1736.32 25.53 1736.33 25.42 1736.35 25.32 C 1736.44 24.92 1736.62 24.54 1736.88 24.23 C 1737.23 23.81 1737.65 23.46 1738.11 23.18 C 1738.64 22.86 1739.2 22.61 1739.79 22.44 C 1740.35 22.27 1740.93 22.19 1741.51 22.18 C 1741.97 22.17 1742.44 22.26 1742.86 22.45 C 1744.35 23.16 1745.89 23.73 1747.48 24.16 C 1748.87 24.55 1750.29 24.75 1751.73 24.76 C 1753.07 24.79 1754.41 24.55 1755.66 24.06 C 1756.33 23.79 1756.96 23.41 1757.5 22.94 C 1757.85 22.63 1758.03 22.18 1758 21.72 L 1757.71 16.85 L 1757.71 16.83 C 1757.71 16.83 1757.71 16.83 1757.71 16.83 C 1757.55 14.35 1757.41 11.88 1757.28 9.4 C 1757.16 6.87 1757.09 4.33 1757.08 1.79 C 1757.08 0.15 1757.12 -1.48 1757.2 -3.11 C 1757.28 -4.65 1757.42 -6.18 1757.61 -7.71 C 1757.79 -9.1 1758.05 -10.48 1758.38 -11.83 C 1758.67 -13.02 1759.06 -14.19 1759.55 -15.31 C 1760.74 -17.99 1762.19 -20.56 1763.88 -22.96 C 1765.37 -25.08 1767.06 -27.04 1768.94 -28.83 C 1772.2 -31.92 1775.98 -34.42 1780.09 -36.22 C 1783.44 -37.69 1786.96 -38.74 1790.58 -39.35 C 1792.97 -39.76 1795.4 -39.97 1797.83 -39.98 C 1797.83 -39.98 1797.84 -39.98 1797.84 -39.98 L 1801.11 -40.01 C 1803.54 -40 1805.97 -39.79 1808.37 -39.38 C 1811.99 -38.77 1815.52 -37.72 1818.88 -36.25 C 1823 -34.44 1826.78 -31.94 1830.05 -28.85 C 1831.93 -27.07 1833.63 -25.1 1835.12 -22.98 C 1836.81 -20.58 1838.26 -18.01 1839.45 -15.32 C 1839.94 -14.2 1840.33 -13.04 1840.62 -11.85 C 1840.95 -10.49 1841.21 -9.11 1841.39 -7.72 C 1841.58 -6.2 1841.72 -4.66 1841.8 -3.13 C 1841.88 -1.49 1841.92 0.14 1841.92 1.78 C 1841.91 4.32 1841.84 6.87 1841.72 9.41 C 1841.59 11.89 1841.45 14.37 1841.29 16.85 C 1841.29 16.85 1841.29 16.86 1841.29 16.86 L 1841.29 16.86 L 1841.25 17.39 C 1841.15 19.06 1841.05 20.73 1840.96 22.39 C 1841.57 23.09 1842.33 23.63 1843.19 23.99 C 1844.34 24.47 1845.58 24.73 1846.83 24.75 C 1848.2 24.69 1849.57 24.47 1850.89 24.08 C 1852.37 23.66 1853.82 23.11 1855.22 22.45 C 1855.82 22.19 1856.47 22.06 1857.13 22.08 C 1857.94 22.07 1858.74 22.22 1859.48 22.52 C 1859.49 22.53 1859.5 22.53 1859.51 22.53 L 1859.55 22.55 C 1859.58 22.56 1859.6 22.57 1859.62 22.58 C 1860.51 22.87 1861.31 23.37 1861.95 24.04 C 1862.18 24.29 1862.37 24.56 1862.51 24.87 C 1862.61 25.1 1862.67 25.35 1862.68 25.61 L 1862.68 25.64 C 1862.68 25.92 1862.62 26.19 1862.51 26.45 C 1862.31 26.89 1862.03 27.29 1861.69 27.63 C 1861.1 28.23 1860.44 28.74 1859.72 29.17 C 1858.6 29.84 1857.42 30.41 1856.2 30.88 C 1855.47 31.15 1854.73 31.4 1853.99 31.63 C 1853.98 31.63 1853.98 31.63 1853.97 31.63 C 1853.97 31.63 1853.97 31.63 1853.97 31.63 L 1853.97 31.63 L 1853.98 31.63 C 1853.97 31.63 1853.97 31.63 1853.97 31.63 C 1853 31.93 1852.04 32.25 1851.09 32.6 C 1850.01 32.99 1848.96 33.44 1847.94 33.97 C 1846.88 34.51 1845.89 35.18 1845 35.96 C 1844.08 36.78 1843.34 37.78 1842.84 38.91 C 1842.44 39.88 1842.23 40.92 1842.24 41.97 C 1842.25 42.88 1842.38 43.79 1842.63 44.67 C 1842.9 45.63 1843.26 46.57 1843.71 47.47 L 1843.72 47.51 L 1843.73 47.52 C 1843.94 48 1844.16 48.48 1844.4 48.95 C 1844.91 49.99 1845.47 51.02 1846.05 52.04 C 1847.92 55.27 1850.07 58.33 1852.49 61.18 C 1855.64 64.94 1859.31 68.22 1863.39 70.93 C 1865.68 72.43 1868.1 73.7 1870.64 74.74 C 1873.37 75.84 1876.21 76.65 1879.12 77.13 C 1879.33 77.16 1879.49 77.34 1879.5 77.56 L 1879.5 77.61 C 1879.48 77.8 1879.44 77.98 1879.37 78.14 C 1879.23 78.44 1879.05 78.72 1878.83 78.96 C 1878.51 79.31 1878.14 79.63 1877.74 79.91 C 1877.21 80.28 1876.66 80.61 1876.07 80.9 C 1875.35 81.26 1874.61 81.59 1873.85 81.88 C 1871.87 82.62 1869.85 83.22 1867.79 83.69 C 1865.12 84.32 1862.42 84.84 1859.7 85.24 C 1859.05 85.36 1858.46 85.7 1858.04 86.21 C 1857.69 86.64 1857.41 87.13 1857.22 87.66 C 1857 88.22 1856.83 88.79 1856.68 89.37 C 1856.51 90.07 1856.35 90.76 1856.2 91.46 C 1855.94 92.7 1855.63 93.93 1855.29 95.15 C 1855.24 95.35 1855.13 95.54 1854.97 95.68 C 1854.8 95.79 1854.59 95.84 1854.39 95.83 C 1854.37 95.83 1854.35 95.83 1854.33 95.83 L 1854.15 95.83 C 1853.71 95.83 1853.28 95.79 1852.85 95.74 C 1852.22 95.65 1851.59 95.55 1850.97 95.42 C 1849.55 95.14 1848.13 94.91 1846.7 94.73 C 1844.99 94.53 1843.27 94.43 1841.54 94.43 C 1839.25 94.43 1836.97 94.63 1834.71 95.01 C 1833.48 95.21 1832.28 95.55 1831.13 95.99 C 1829.98 96.44 1828.88 96.96 1827.81 97.57 C 1826.74 98.17 1825.69 98.82 1824.66 99.51 C 1823.63 100.21 1822.6 100.92 1821.59 101.65 C 1820.14 102.69 1818.66 103.7 1817.16 104.67 C 1815.62 105.67 1814.01 106.57 1812.34 107.36 C 1810.59 108.18 1808.77 108.82 1806.89 109.28 C 1804.81 109.77 1802.67 110.02 1800.53 110.01 C 1800.14 110.01 1799.75 110 1799.36 109.98 C 1799 110 1798.74 110.01 1798.47 110.01 C 1796.33 110.02 1794.19 109.77 1792.11 109.28 C 1790.23 108.82 1788.41 108.18 1786.66 107.36 C 1785 106.57 1783.39 105.67 1781.84 104.67 C 1780.35 103.7 1778.87 102.7 1777.43 101.66 C 1777.42 101.65 1777.42 101.65 1777.42 101.65 L 1777.4 101.64 C 1776.39 100.92 1775.36 100.21 1774.33 99.51 C 1773.31 98.82 1772.26 98.17 1771.19 97.56 C 1770.12 96.96 1769.01 96.44 1767.87 95.99 C 1766.71 95.54 1765.51 95.21 1764.29 95 C 1762.03 94.62 1759.75 94.43 1757.46 94.43 C 1755.66 94.43 1753.87 94.55 1752.09 94.79 C 1750.74 94.98 1749.39 95.21 1748.05 95.49 L 1748.04 95.49 C 1748.04 95.49 1748.03 95.49 1748.03 95.49 C 1747.41 95.61 1746.79 95.73 1746.17 95.83 C 1745.72 95.91 1745.27 95.95 1744.82 95.96 C 1744.57 95.97 1744.32 95.92 1744.09 95.82 C 1744.03 95.78 1743.98 95.74 1743.94 95.68 C 1743.83 95.54 1743.75 95.37 1743.71 95.19 C 1743.37 93.99 1743.07 92.77 1742.81 91.54 C 1742.81 91.54 1742.81 91.53 1742.81 91.53 L 1742.8 91.49 C 1742.65 90.79 1742.49 90.09 1742.32 89.4 C 1742.17 88.81 1741.99 88.24 1741.78 87.68 C 1741.59 87.15 1741.31 86.66 1740.96 86.23 C 1740.54 85.72 1739.95 85.37 1739.3 85.26 C 1736.58 84.85 1733.88 84.33 1731.21 83.71 C 1729.15 83.23 1727.13 82.63 1725.16 81.89 C 1724.4 81.6 1723.65 81.27 1722.93 80.91 C 1722.35 80.62 1721.79 80.28 1721.26 79.91 C 1720.86 79.63 1720.49 79.31 1720.17 78.96 C 1719.94 78.72 1719.76 78.44 1719.63 78.14 C 1719.56 77.97 1719.51 77.8 1719.5 77.62 L 1719.5 77.56 C 1719.51 77.35 1719.67 77.16 1719.88 77.13 C 1724.89 76.29 1729.71 74.53 1734.07 71.93 C 1736.33 70.58 1738.47 69.04 1740.46 67.32 C 1742.56 65.51 1744.52 63.54 1746.33 61.43 C 1748.78 58.57 1750.96 55.5 1752.84 52.24 C 1753.74 50.72 1754.55 49.15 1755.27 47.53 L 1755.29 47.47 C 1755.74 46.57 1756.1 45.64 1756.37 44.67 C 1756.62 43.79 1756.75 42.88 1756.76 41.97 C 1756.77 40.92 1756.56 39.88 1756.15 38.91 C 1755.66 37.78 1754.92 36.78 1754 35.96 C 1753.11 35.18 1752.12 34.51 1751.06 33.97 C 1750.04 33.44 1748.99 32.98 1747.91 32.6 C 1746.95 32.25 1745.99 31.93 1745.03 31.63 Z " fill-rule="evenodd" fill="rgb(0,0,0)"/></g></svg>