<?xml version="1.0" standalone="no"?><!-- Generator: Gravit.io --><svg xmlns="http://www.w3.org/2000/svg" xmlns:xlink="http://www.w3.org/1999/xlink" style="isolation:isolate" viewBox="641.667 359.612 32.388 32.388" width="32.388" height="32.388"><g><path d="M 646.743 359.612 L 668.978 359.612 C 671.78 359.612 674.054 361.887 674.054 364.689 L 674.054 386.924 C 674.054 389.725 671.78 392 668.978 392 L 646.743 392 C 643.941 392 641.667 389.725 641.667 386.924 L 641.667 364.689 C 641.667 361.887 643.941 359.612 646.743 359.612 Z" style="stroke:none;fill:#FFFC00;stroke-miterlimit:10;"/><path d=" M 657.99 385.486 C 657.932 385.486 657.876 385.484 657.834 385.482 C 657.8 385.485 657.765 385.486 657.731 385.486 C 656.503 385.486 655.682 384.906 654.957 384.393 C 654.438 384.026 653.948 383.68 653.374 383.585 C 653.093 383.538 652.812 383.514 652.541 383.514 C 652.053 383.514 651.668 383.59 651.386 383.645 C 651.213 383.679 651.064 383.708 650.948 383.708 C 650.827 383.708 650.68 383.681 650.619 383.472 C 650.57 383.307 650.536 383.147 650.502 382.993 C 650.418 382.609 650.357 382.374 650.213 382.352 C 648.673 382.114 647.763 381.764 647.582 381.34 C 647.563 381.298 647.553 381.253 647.55 381.206 C 647.543 381.08 647.632 380.969 647.757 380.949 C 648.98 380.747 650.067 380.101 650.989 379.027 C 651.703 378.195 652.054 377.401 652.091 377.313 C 652.093 377.309 652.095 377.305 652.097 377.301 C 652.275 376.941 652.31 376.629 652.202 376.375 C 652.004 375.907 651.347 375.699 650.912 375.561 C 650.804 375.527 650.701 375.494 650.62 375.462 C 650.235 375.31 649.601 374.988 649.685 374.544 C 649.747 374.22 650.175 373.995 650.521 373.995 C 650.617 373.995 650.702 374.012 650.774 374.045 C 651.165 374.229 651.517 374.322 651.819 374.322 C 652.196 374.322 652.377 374.178 652.421 374.138 C 652.41 373.932 652.398 373.727 652.384 373.521 C 652.296 372.116 652.186 370.368 652.633 369.365 C 653.972 366.363 656.811 366.13 657.649 366.13 C 657.787 366.129 657.925 366.127 658.063 366.126 C 658.904 366.126 661.749 366.36 663.088 369.363 C 663.535 370.366 663.425 372.116 663.337 373.523 L 663.332 373.59 C 663.32 373.781 663.309 373.962 663.3 374.137 C 663.341 374.175 663.507 374.307 663.846 374.32 C 664.134 374.309 664.465 374.217 664.831 374.046 C 664.943 373.993 665.068 373.982 665.153 373.982 C 665.281 373.982 665.412 374.007 665.52 374.052 L 665.526 374.054 C 665.836 374.164 666.039 374.384 666.043 374.615 C 666.047 374.83 665.887 375.152 665.101 375.462 C 665.02 375.494 664.917 375.527 664.809 375.561 C 664.374 375.699 663.717 375.908 663.519 376.375 C 663.411 376.629 663.446 376.94 663.624 377.301 C 663.626 377.305 663.628 377.309 663.63 377.313 C 663.684 377.441 665.009 380.461 667.964 380.948 C 668.089 380.969 668.178 381.08 668.171 381.206 C 668.168 381.253 668.157 381.298 668.138 381.341 C 667.958 381.763 667.048 382.112 665.508 382.35 C 665.363 382.372 665.303 382.606 665.219 382.989 C 665.185 383.147 665.15 383.302 665.102 383.464 C 665.057 383.617 664.957 383.692 664.797 383.692 L 664.773 383.692 C 664.669 383.692 664.521 383.673 664.335 383.637 C 664.009 383.573 663.644 383.514 663.18 383.514 C 662.909 383.514 662.628 383.538 662.346 383.585 C 661.773 383.68 661.284 384.026 660.765 384.392 C 660.039 384.906 659.218 385.486 657.99 385.486" fill="rgb(255,255,255)"/><path d=" M 668.02 381.19 L 668.03 381.17 L 668.02 381.2 L 668.02 381.19 C 668.02 381.19 668.02 381.19 668.02 381.19 Z  M 665.89 374.62 C 665.89 374.62 665.89 374.62 665.89 374.62 L 665.89 374.62 L 665.89 374.62 C 665.89 374.62 665.89 374.62 665.89 374.62 C 665.89 374.53 665.85 374.45 665.79 374.39 C 665.71 374.3 665.6 374.24 665.48 374.2 C 665.48 374.2 665.47 374.2 665.47 374.19 L 665.47 374.19 C 665.47 374.19 665.46 374.19 665.46 374.19 C 665.36 374.15 665.26 374.13 665.15 374.13 C 665.06 374.13 664.98 374.15 664.89 374.18 C 664.57 374.35 664.22 374.44 663.85 374.47 C 663.62 374.48 663.39 374.4 663.21 374.25 C 663.17 374.22 663.15 374.18 663.15 374.13 L 663.18 373.58 L 663.19 373.51 L 663.19 373.51 C 663.19 373.51 663.19 373.51 663.19 373.51 C 663.23 372.88 663.26 372.24 663.27 371.6 C 663.27 371.2 663.25 370.79 663.2 370.39 C 663.16 370.06 663.08 369.73 662.95 369.42 C 662.67 368.77 662.26 368.19 661.75 367.7 C 661.34 367.3 660.85 366.99 660.33 366.76 C 659.61 366.44 658.84 366.28 658.06 366.28 L 657.65 366.28 C 657.65 366.28 657.65 366.28 657.65 366.28 C 656.87 366.28 656.1 366.44 655.39 366.76 C 654.86 366.99 654.38 367.31 653.97 367.7 C 653.46 368.19 653.05 368.78 652.77 369.42 C 652.64 369.73 652.56 370.06 652.52 370.4 C 652.47 370.8 652.45 371.2 652.45 371.6 C 652.46 372.24 652.49 372.87 652.53 373.51 C 652.53 373.51 652.53 373.51 652.53 373.51 L 652.53 373.51 L 652.57 374.13 C 652.57 374.18 652.55 374.22 652.51 374.26 C 652.32 374.41 652.06 374.49 651.81 374.47 C 651.43 374.46 651.05 374.36 650.71 374.18 C 650.65 374.16 650.59 374.14 650.52 374.14 C 650.36 374.15 650.21 374.19 650.07 374.28 C 649.95 374.34 649.87 374.44 649.83 374.57 L 649.83 374.62 C 649.85 374.79 649.95 374.93 650.09 375.01 C 650.27 375.14 650.47 375.25 650.67 375.32 C 650.77 375.36 650.86 375.39 650.95 375.42 C 650.95 375.42 650.95 375.42 650.95 375.42 C 650.96 375.42 650.96 375.42 650.96 375.42 L 650.96 375.42 L 650.95 375.42 C 650.95 375.42 650.95 375.42 650.95 375.42 C 651.21 375.49 651.47 375.59 651.71 375.71 C 651.98 375.83 652.21 376.04 652.34 376.31 C 652.39 376.43 652.41 376.56 652.41 376.69 C 652.41 376.93 652.34 377.16 652.23 377.37 L 652.23 377.38 C 651.94 378.01 651.56 378.6 651.1 379.12 C 650.66 379.64 650.14 380.09 649.56 380.44 C 649.02 380.77 648.41 380.99 647.78 381.1 C 647.74 381.1 647.7 381.14 647.7 381.19 C 647.7 381.19 647.7 381.19 647.7 381.19 L 647.7 381.2 L 647.7 381.17 L 647.7 381.19 L 647.72 381.29 C 647.77 381.38 647.85 381.46 647.94 381.52 C 648.09 381.62 648.26 381.71 648.44 381.77 C 649.02 381.98 649.63 382.13 650.24 382.2 C 650.38 382.24 650.49 382.35 650.52 382.49 C 650.58 382.65 650.62 382.8 650.65 382.96 L 650.65 382.96 L 650.76 383.44 C 650.76 383.44 650.76 383.44 650.76 383.44 C 650.77 383.48 650.8 383.51 650.83 383.54 C 650.87 383.55 650.9 383.56 650.94 383.56 C 651.08 383.55 651.22 383.53 651.35 383.5 C 651.35 383.5 651.36 383.5 651.36 383.5 L 651.36 383.5 C 651.75 383.42 652.14 383.37 652.54 383.36 C 652.83 383.36 653.12 383.39 653.4 383.44 C 653.7 383.49 653.99 383.6 654.26 383.76 C 654.53 383.91 654.79 384.09 655.04 384.27 L 655.04 384.27 C 655.04 384.27 655.05 384.27 655.05 384.27 C 655.42 384.55 655.81 384.79 656.22 385 C 656.69 385.22 657.21 385.33 657.73 385.34 L 657.83 385.33 L 657.99 385.34 C 658.51 385.33 659.03 385.22 659.5 385 C 659.91 384.79 660.31 384.55 660.68 384.27 C 660.93 384.09 661.19 383.91 661.46 383.76 C 661.73 383.6 662.02 383.49 662.32 383.44 C 662.6 383.39 662.89 383.37 663.18 383.36 C 663.58 383.37 663.98 383.41 664.37 383.49 C 664.5 383.52 664.64 383.54 664.78 383.54 L 664.8 383.54 C 664.8 383.54 664.8 383.54 664.8 383.54 C 664.87 383.54 664.94 383.49 664.96 383.42 L 665.07 382.96 C 665.1 382.8 665.14 382.64 665.2 382.49 C 665.23 382.35 665.34 382.24 665.48 382.2 C 666.09 382.12 666.7 381.98 667.28 381.77 C 667.46 381.71 667.63 381.62 667.79 381.52 C 667.88 381.46 667.95 381.38 668 381.29 L 668.02 381.19 C 668.02 381.14 667.98 381.1 667.94 381.1 C 667.23 380.98 666.56 380.71 665.97 380.32 C 665.45 379.98 664.99 379.57 664.6 379.09 C 664.14 378.58 663.77 378 663.49 377.37 L 663.49 377.37 L 663.49 377.37 C 663.38 377.16 663.32 376.93 663.31 376.69 C 663.31 376.56 663.33 376.43 663.38 376.31 C 663.52 376.04 663.74 375.83 664.01 375.71 C 664.25 375.59 664.51 375.49 664.77 375.42 C 664.86 375.39 664.96 375.36 665.05 375.32 C 665.32 375.23 665.56 375.09 665.76 374.9 C 665.84 374.83 665.89 374.73 665.89 374.62 Z  M 664.77 375.42 C 664.77 375.42 664.77 375.42 664.77 375.42 L 664.76 375.42 L 664.76 375.42 C 664.76 375.42 664.76 375.42 664.77 375.42 C 664.77 375.42 664.77 375.42 664.77 375.42 Z  M 664.85 375.7 M 664.85 375.7 L 664.85 375.7 L 664.85 375.7 Z  M 664.85 375.7 M 652.23 373.53 L 652.23 373.53 L 652.27 374.06 C 652.14 374.15 651.98 374.18 651.83 374.17 C 651.48 374.16 651.15 374.07 650.84 373.91 C 650.74 373.86 650.63 373.84 650.52 373.84 C 650.31 373.85 650.1 373.91 649.92 374.02 C 649.73 374.12 649.59 374.3 649.54 374.51 C 649.54 374.51 649.54 374.52 649.54 374.53 L 649.53 374.61 C 649.53 374.62 649.53 374.63 649.53 374.64 C 649.56 374.9 649.71 375.13 649.93 375.27 C 650.13 375.41 650.34 375.52 650.57 375.6 C 650.67 375.64 650.77 375.67 650.87 375.7 C 650.87 375.7 650.87 375.7 650.87 375.7 L 650.87 375.7 L 650.87 375.7 C 650.87 375.7 650.87 375.7 650.87 375.7 C 650.87 375.7 650.87 375.7 650.87 375.71 C 651.12 375.78 651.35 375.87 651.58 375.98 C 651.79 376.07 651.96 376.23 652.07 376.44 C 652.1 376.52 652.11 376.6 652.11 376.68 C 652.11 376.87 652.06 377.06 651.96 377.23 C 651.96 377.23 651.96 377.24 651.96 377.24 L 651.96 377.25 C 651.96 377.25 651.95 377.25 651.95 377.25 C 651.68 377.86 651.32 378.43 650.88 378.93 C 650.46 379.42 649.96 379.85 649.41 380.19 C 648.89 380.49 648.32 380.7 647.73 380.8 C 647.54 380.83 647.4 381 647.4 381.19 C 647.4 381.19 647.4 381.2 647.4 381.2 L 647.4 381.23 L 647.44 381.38 C 647.44 381.39 647.44 381.4 647.45 381.41 C 647.52 381.55 647.63 381.68 647.77 381.77 C 647.95 381.89 648.14 381.99 648.34 382.06 C 648.93 382.27 649.55 382.42 650.18 382.5 C 650.21 382.51 650.23 382.54 650.23 382.58 C 650.29 382.72 650.33 382.87 650.35 383.02 C 650.35 383.02 650.36 383.02 650.36 383.03 L 650.36 383.03 L 650.47 383.51 C 650.5 383.63 650.58 383.74 650.69 383.8 C 650.77 383.84 650.86 383.86 650.95 383.86 C 651.11 383.85 651.27 383.83 651.42 383.79 C 651.42 383.79 651.42 383.79 651.42 383.79 L 651.42 383.79 L 651.42 383.79 C 651.42 383.79 651.42 383.79 651.42 383.79 C 651.42 383.79 651.42 383.79 651.42 383.79 C 651.79 383.71 652.17 383.67 652.54 383.66 C 652.81 383.66 653.08 383.69 653.35 383.73 C 653.62 383.78 653.87 383.88 654.11 384.02 C 654.37 384.17 654.62 384.33 654.87 384.51 C 654.87 384.51 654.87 384.51 654.87 384.51 L 654.87 384.51 C 655.25 384.8 655.66 385.05 656.09 385.27 C 656.6 385.51 657.16 385.63 657.73 385.64 C 657.73 385.64 657.73 385.64 657.74 385.64 L 657.83 385.63 L 657.99 385.64 C 657.99 385.64 657.99 385.64 657.99 385.64 C 658.56 385.63 659.12 385.51 659.63 385.27 C 660.06 385.05 660.47 384.8 660.85 384.51 C 661.1 384.33 661.35 384.17 661.61 384.02 C 661.85 383.88 662.1 383.78 662.37 383.73 C 662.64 383.69 662.91 383.67 663.18 383.66 C 663.56 383.67 663.93 383.71 664.3 383.78 C 664.46 383.82 664.61 383.84 664.77 383.84 C 664.77 383.84 664.77 383.84 664.77 383.84 L 664.8 383.84 C 665 383.84 665.19 383.71 665.25 383.51 C 665.25 383.5 665.25 383.5 665.25 383.5 L 665.36 383.02 C 665.37 383.02 665.37 383.02 665.37 383.02 C 665.39 382.87 665.43 382.72 665.49 382.57 C 665.49 382.54 665.51 382.51 665.54 382.5 C 666.17 382.41 666.79 382.27 667.38 382.06 C 667.58 381.98 667.77 381.89 667.95 381.77 C 668.09 381.68 668.2 381.55 668.27 381.41 C 668.28 381.4 668.28 381.39 668.28 381.38 L 668.32 381.23 L 668.32 381.2 C 668.32 381.2 668.32 381.19 668.32 381.19 C 668.32 381 668.18 380.83 667.99 380.8 C 667.33 380.69 666.69 380.44 666.13 380.07 C 665.64 379.74 665.2 379.35 664.82 378.9 C 664.39 378.41 664.03 377.85 663.77 377.25 C 663.77 377.25 663.77 377.25 663.77 377.25 L 663.76 377.25 L 663.76 377.24 C 663.76 377.23 663.76 377.23 663.76 377.23 C 663.67 377.06 663.61 376.87 663.61 376.68 C 663.61 376.6 663.62 376.52 663.66 376.44 C 663.76 376.23 663.93 376.07 664.14 375.98 C 664.37 375.87 664.61 375.78 664.85 375.71 C 664.85 375.71 664.85 375.7 664.85 375.7 C 664.95 375.67 665.05 375.64 665.15 375.6 C 665.45 375.5 665.73 375.34 665.97 375.12 C 666.1 374.99 666.18 374.82 666.19 374.63 C 666.19 374.63 666.19 374.62 666.19 374.62 L 666.19 374.61 C 666.19 374.61 666.19 374.61 666.19 374.61 C 666.18 374.45 666.12 374.3 666.01 374.18 C 665.89 374.06 665.74 373.97 665.58 373.91 L 665.58 373.91 C 665.44 373.86 665.3 373.83 665.15 373.83 C 665.02 373.83 664.89 373.86 664.77 373.91 C 664.48 374.06 664.16 374.15 663.84 374.17 C 663.7 374.17 663.57 374.14 663.45 374.06 L 663.48 373.6 L 663.49 373.53 C 663.53 372.89 663.56 372.25 663.57 371.6 C 663.57 371.19 663.55 370.77 663.5 370.36 C 663.46 370 663.37 369.64 663.23 369.3 C 662.93 368.62 662.5 368 661.96 367.48 C 661.52 367.06 661.01 366.73 660.45 366.48 C 659.7 366.15 658.89 365.98 658.06 365.98 C 658.06 365.98 658.06 365.98 658.06 365.98 L 657.65 365.98 C 656.83 365.98 656.02 366.15 655.27 366.48 C 654.71 366.73 654.2 367.07 653.76 367.48 C 653.22 368 652.79 368.62 652.49 369.31 C 652.35 369.64 652.26 370 652.22 370.36 C 652.17 370.77 652.15 371.19 652.15 371.61 C 652.16 372.25 652.19 372.89 652.23 373.53 Z  M 663.49 373.53 L 663.49 373.53 L 663.49 373.53 L 663.49 373.53 C 663.49 373.53 663.49 373.53 663.49 373.53 Z " fill-rule="evenodd" fill="rgb(0,0,0)"/></g></svg>