<?xml version="1.0" standalone="no"?><!-- Generator: Gravit.io --><svg xmlns="http://www.w3.org/2000/svg" xmlns:xlink="http://www.w3.org/1999/xlink" style="isolation:isolate" viewBox="514.667 359.612 32.388 32.388" width="32.388" height="32.388"><g><path d="M 519.743 359.612 L 541.978 359.612 C 544.78 359.612 547.054 361.887 547.054 364.689 L 547.054 386.924 C 547.054 389.725 544.78 392 541.978 392 L 519.743 392 C 516.941 392 514.667 389.725 514.667 386.924 L 514.667 364.689 C 514.667 361.887 516.941 359.612 519.743 359.612 Z" style="stroke:none;fill:#3AAAE1;stroke-miterlimit:10;"/><path d=" M 541.741 369.672 C 540.968 370.015 540.138 370.247 539.266 370.351 C 540.156 369.818 540.839 368.973 541.161 367.967 C 540.328 368.461 539.406 368.819 538.424 369.013 C 537.639 368.175 536.519 367.652 535.279 367.652 C 532.9 367.652 530.971 369.581 530.971 371.961 C 530.971 372.298 531.009 372.627 531.082 372.943 C 527.501 372.763 524.326 371.047 522.201 368.441 C 521.83 369.077 521.618 369.817 521.618 370.607 C 521.618 372.102 522.379 373.42 523.535 374.193 C 522.828 374.171 522.164 373.977 521.583 373.654 C 521.583 373.672 521.583 373.69 521.583 373.708 C 521.583 375.796 523.068 377.537 525.039 377.933 C 524.678 378.032 524.297 378.084 523.904 378.084 C 523.626 378.084 523.356 378.057 523.093 378.007 C 523.642 379.719 525.233 380.965 527.118 380.999 C 525.644 382.155 523.786 382.844 521.767 382.844 C 521.419 382.844 521.076 382.823 520.739 382.783 C 522.646 384.006 524.911 384.719 527.344 384.719 C 535.269 384.719 539.603 378.154 539.603 372.46 C 539.603 372.273 539.599 372.088 539.591 371.903 C 540.433 371.295 541.163 370.536 541.741 369.672 L 541.741 369.672 Z " fill="rgb(255,255,255)"/></g></svg>