<?xml version="1.0" standalone="no"?><!-- Generator: Gravit.io --><svg xmlns="http://www.w3.org/2000/svg" xmlns:xlink="http://www.w3.org/1999/xlink" style="isolation:isolate" viewBox="557 359.612 32.388 32.388" width="32.388" height="32.388"><g><path d="M 562.076 359.612 L 584.311 359.612 C 587.113 359.612 589.388 361.887 589.388 364.689 L 589.388 386.924 C 589.388 389.725 587.113 392 584.311 392 L 562.076 392 C 559.275 392 557 389.725 557 386.924 L 557 364.689 C 557 361.887 559.275 359.612 562.076 359.612 Z" style="stroke:none;fill:#FF0000;stroke-miterlimit:10;"/><g><path d=" M 582.86 370.957 C 582.627 370.093 581.946 369.412 581.082 369.18 C 579.505 368.748 573.194 368.748 573.194 368.748 C 573.194 368.748 566.883 368.748 565.305 369.163 C 564.458 369.396 563.761 370.093 563.528 370.957 C 563.113 372.534 563.113 375.806 563.113 375.806 C 563.113 375.806 563.113 379.095 563.528 380.656 C 563.761 381.519 564.441 382.2 565.305 382.433 C 566.899 382.864 573.194 382.864 573.194 382.864 C 573.194 382.864 579.505 382.864 581.082 382.449 C 581.946 382.217 582.627 381.536 582.86 380.672 C 583.275 379.095 583.275 375.823 583.275 375.823 C 583.275 375.823 583.291 372.534 582.86 370.957 Z " fill="rgb(255,255,255)"/><path d=" M 571.184 378.829 L 576.432 375.806 L 571.184 372.784 L 571.184 378.829 Z " fill="rgb(255,0,0)"/></g></g></svg>