<?xml version="1.0" standalone="no"?><!-- Generator: Gravit.io --><svg xmlns="http://www.w3.org/2000/svg" xmlns:xlink="http://www.w3.org/1999/xlink" style="isolation:isolate" viewBox="376 460 152 152" width="152" height="152"><g id="4 - Ig"><linearGradient id="_lgradient_0" x1="6.156293919180678%" y1="84.46435257115907%" x2="50.77599479789055%" y2="1.0464959808080043%"><stop offset="0%" stop-opacity="1" style="stop-color:rgb(251,161,64)"/><stop offset="30.434782608695656%" stop-opacity="1" style="stop-color:rgb(233,71,85)"/><stop offset="59.56521739130435%" stop-opacity="1" style="stop-color:rgb(212,46,135)"/><stop offset="98.26086956521739%" stop-opacity="1" style="stop-color:rgb(149,61,171)"/></linearGradient><path d=" M 482.71838 460 L 421.28162 460 C 396.31323 460 376 480.31323 376 505.28162 L 376 566.71838 C 376 591.68677 396.31323 612 421.28162 612 L 482.71838 612 C 507.68677 612 528 591.68677 528 566.71838 L 528 505.28162 C 527.99973 480.31323 507.6865 460 482.71838 460 Z  M 512.70881 566.71838 C 512.70881 583.2815 499.2815 596.70881 482.71838 596.70881 L 421.28162 596.70881 C 404.7185 596.70881 391.29119 583.2815 391.29119 566.71838 L 391.29119 505.28162 C 391.29119 488.71823 404.7185 475.29119 421.28162 475.29119 L 482.71838 475.29119 C 499.2815 475.29119 512.70881 488.71823 512.70881 505.28162 L 512.70881 566.71838 L 512.70881 566.71838 Z " fill="url(#_lgradient_0)"/><linearGradient id="_lgradient_1" x1="-1.4180951928969454%" y1="87.56664455099936%" x2="50.91005478217514%" y2="0.991588158155976%"><stop offset="2.608695652173913%" stop-opacity="1" style="stop-color:rgb(251,161,64)"/><stop offset="30.434782608695656%" stop-opacity="1" style="stop-color:rgb(233,71,85)"/><stop offset="59.56521739130435%" stop-opacity="1" style="stop-color:rgb(212,46,135)"/><stop offset="98.26086956521739%" stop-opacity="1" style="stop-color:rgb(149,61,171)"/></linearGradient><path d=" M 452 496.68739 C 430.32299 496.68739 412.68739 514.32299 412.68739 535.99972 C 412.68739 557.67646 430.32299 575.31233 452 575.31233 C 473.67701 575.31233 491.31261 557.67673 491.31261 535.99972 C 491.31261 514.32272 473.67701 496.68739 452 496.68739 Z  M 452 560.02142 C 438.73323 560.02142 427.97859 549.26677 427.97859 536 C 427.97859 522.73323 438.73351 511.97859 452 511.97859 C 465.26677 511.97859 476.02142 522.73323 476.02142 536 C 476.02142 549.26649 465.26649 560.02142 452 560.02142 Z " fill="url(#_lgradient_1)"/><linearGradient id="_lgradient_2" x1="-80.91108587309002%" y1="217.77878173090016%" x2="83.35825325081807%" y2="-15.14060654282181%"><stop offset="0%" stop-opacity="1" style="stop-color:rgb(251,161,64)"/><stop offset="16.852185347168426%" stop-opacity="1" style="stop-color:rgb(233,71,85)"/><stop offset="50.21772479966447%" stop-opacity="1" style="stop-color:rgb(212,46,135)"/><stop offset="97.3913043478261%" stop-opacity="1" style="stop-color:rgb(149,61,171)"/></linearGradient><path d=" M 481.96781 496.9831 C 481.96781 491.78415 486.18869 487.56326 491.38764 487.56326 C 496.58659 487.56326 500.80747 491.78415 500.80747 496.9831 C 500.80747 502.18204 496.58659 506.40293 491.38764 506.40293 C 486.18869 506.40293 481.96781 502.18204 481.96781 496.9831 Z " fill="url(#_lgradient_2)"/></g></svg>