<?xml version="1.0" standalone="no"?><!-- Generator: Gravit.io --><svg xmlns="http://www.w3.org/2000/svg" xmlns:xlink="http://www.w3.org/1999/xlink" style="isolation:isolate" viewBox="-516.599 34.14 379.802 465.86" width="379.802" height="465.86"><g id="Group"><path d=" M -490.069 339.275 C -491.091 345.428 -490.62 352.08 -490.811 353.457 C -491.002 354.833 -495.312 363.772 -495.95 369.086 C -496.587 374.399 -496.671 383.304 -501.865 398.364 C -507.059 413.424 -504.321 425.152 -507.381 440.049 C -508.585 445.907 -510.121 455.766 -511.035 458.614 C -511.949 461.462 -510.105 470.637 -510.537 472.132 C -510.969 473.627 -511.658 475.125 -513.229 483.296 Q -514.8 491.466 -516.599 500 L -136.797 500 Q -138.862 491.579 -139.389 486.523 C -139.762 482.949 -140.574 479.102 -141.45 475.578 C -142.325 472.054 -143.264 468.854 -143.889 466.572 C -144.514 464.291 -148.329 435.545 -150.678 427.072 C -153.027 418.599 -156.445 409.472 -157.547 405.99 C -158.65 402.507 -157.771 385.519 -157.892 383.334 C -158.013 381.149 -161.392 366.51 -162.756 363.802 C -164.119 361.094 -164.361 355.202 -164.59 353.562 C -164.82 351.923 -168.448 331.863 -172.277 321.48 C -176.106 311.097 -178.613 310.693 -180.304 309.286 C -181.994 307.879 -189.444 304.609 -200.427 298.805 C -206.298 295.131 -216.813 295.031 -229.354 290.35 C -234.761 288.332 -244.551 286.135 -246.124 284.366 Q -246.045 279.401 -249.478 276.026 C -252.91 272.651 -252.592 270.491 -254.044 267.47 C -254.67 266.167 -257.443 263.037 -261.773 260.812 C -266.907 258.175 -273.671 254.644 -277.072 255.176 C -283.391 256.163 -283.266 252.385 -300.626 249.361 Q -330.877 250.298 -347.894 252.233 C -364.779 252.704 -368.506 255.649 -371.848 254.762 C -377.475 253.267 -384.945 258.825 -389.609 262.082 C -394.35 265.391 -398.953 263.986 -404.79 266.946 C -407.427 268.283 -410.225 273.378 -412.641 276.891 C -415.334 280.805 -413.144 282.052 -414.934 284.129 C -417.019 286.55 -418.037 285.588 -423.042 287.447 C -425.193 288.677 -434.373 291.509 -446.102 295.63 C -450.629 297.221 -456.907 299.871 -461.328 301.45 C -469.357 304.318 -476.927 306.273 -479.639 309.247 C -484.879 314.996 -489.047 333.122 -490.069 339.275 Z " fill="rgb(200,38,38)"/><path d=" M -394.827 283.588 C -394.77 283.816 -395.143 282.025 -394.848 281.095 C -393.52 275.258 -389.57 268.247 -383.039 264.804 C -379.313 262.466 -380.137 263.283 -374.735 261.198 C -369.332 259.113 -366.741 259.766 -365.62 259.115 C -363.611 257.948 -293.836 255.729 -291.893 256.771 C -289.95 257.813 -285.379 258.542 -282.872 260.022 C -280.29 261.545 -275.248 264.545 -273.693 266.146 C -270.742 269.184 -270.481 269.878 -268.745 272.135 C -267.59 273.637 -266.083 277.902 -266.11 278.984 Q -266.137 280.066 -266.744 282.046 L -291.893 291.272 L -360.383 293.861 L -386.508 280.379 L -394.827 283.588 Z " fill="rgb(34,30,30)"/><path d=" M -367.808 234.487 C -366.571 253.275 -366.991 264.383 -369.075 267.803 C -372.481 273.389 -386.106 276.263 -394.788 283.634 C -394.917 283.841 -394.827 284.543 -394.658 284.68 C -377.317 298.784 -337.887 316.132 -328.894 316.132 C -319.901 316.132 -284.455 302.73 -266.744 282.306 C -266.7 282.24 -266.687 281.891 -266.744 281.673 C -266.802 281.455 -267.053 281.147 -267.137 281.119 C -273.467 275.766 -283.593 273.703 -289.117 266.884 C -292.007 263.316 -292.887 250.751 -293.301 241.806 C -293.481 237.918 -293.304 233.174 -292.964 228.695 C -292.445 221.874 -368.123 229.701 -367.808 234.487 Z " fill="rgb(234,201,185)"/><path d=" M -367.104 232.648 C -361.58 243.358 -355.179 255.545 -339.886 263.53 C -324.592 271.514 -296.036 273.286 -283.507 271.501 C -286.551 269.499 -288.255 267.856 -289.637 265.834 C -291.019 263.812 -292.187 256.124 -292.603 252.014 C -292.758 249.258 -293.878 241.054 -293.185 232.469 C -292.948 229.54 -370.584 225.898 -367.104 232.648 Z " fill="rgb(218,183,171)"/><path d=" M -386.538 200.678 Q -391.084 202.458 -393.431 200.678 C -395.778 198.898 -407.337 184.786 -407.676 177.514 C -408.015 170.241 -408.983 164.554 -406.757 162.809 Q -402.506 159.477 -400.324 168.783 Q -396.807 174.619 -395.158 174.757 Q -393.509 174.894 -386.538 200.678 Z " fill="rgb(234,201,185)"/><path d=" M -279.926 193.138 C -276.145 193.352 -273.719 191.84 -271.655 189.462 C -271.094 188.816 -263.044 172.553 -263.513 163.51 C -263.89 156.24 -265.861 150.066 -268.438 148.9 Q -273.358 146.673 -274.871 151.32 Q -274.758 163.279 -276.327 163.804 Q -277.897 164.328 -279.926 193.138 Z " fill="rgb(234,201,185)"/><path d=" M -396.185 176.133 L -403.189 153.149 L -398.023 119.151 Q -397.828 95.715 -387.565 92.958 C -377.302 90.2 -354.019 86.524 -342.99 86.984 C -331.961 87.443 -310.823 85.605 -302.092 87.903 C -293.361 90.2 -293.361 85.299 -285.549 102.608 Q -277.737 119.917 -275.898 159.59 L -276.599 164.187 Q -279.043 192.415 -279.575 194.514 C -280.106 196.613 -280.26 205.91 -281.413 210.598 C -282.566 215.286 -285.513 221.46 -288.306 226.681 C -291.099 231.903 -300.353 244.632 -303.011 246.901 C -305.669 249.17 -310.789 260.127 -335.067 257.47 C -362.065 254.516 -381.533 216.694 -382.51 212.436 C -383.772 208.509 -386.841 203.817 -387.565 201.135 Q -388.288 198.453 -396.185 176.133 Z " fill="rgb(244,214,200)"/><path d=" M -395.518 120.483 C -393.685 109.732 -389.894 98.845 -381.372 95.258 C -367.838 89.559 -367.335 93.386 -334.04 90.662 C -328.929 90.244 -307.142 85.96 -295.44 92.5 C -287.384 97.002 -287.813 109.736 -284.87 119.153 C -280.275 133.858 -277.513 148.874 -276.599 164.187 Q -272.039 161.91 -272.923 151.773 C -273.806 141.635 -264.969 104.236 -276.599 83.769 C -281.739 74.723 -302.368 62.737 -312.902 55.278 C -323.436 47.82 -336.106 40.365 -343.69 34.14 C -357.99 40.084 -381.162 63.761 -396.996 77.336 C -408.213 91.794 -412.082 107.582 -411.242 121.91 Q -408.767 155.138 -404.349 160.971 C -399.93 166.803 -401.415 172.105 -395.158 175.676 C -395.519 164.413 -398.373 150.701 -397.915 144.887 C -397.226 141.847 -397.351 131.233 -395.518 120.483 Z " fill="rgb(21,19,20)"/><path d=" M -283 309 C -283 307.344 -281.656 306 -280 306 C -278.344 306 -277 307.344 -277 309 C -277 310.656 -278.344 312 -280 312 C -281.656 312 -283 310.656 -283 309 Z " fill="rgb(34,30,30)"/><path d=" M -284.3 309.19 C -284.3 308.03 -283.84 306.92 -283.02 306.1 C -282.2 305.28 -281.09 304.82 -279.93 304.82 C -278.77 304.82 -277.65 305.28 -276.83 306.1 C -276.01 306.92 -275.55 308.03 -275.55 309.19 C -275.55 310.35 -276.01 311.47 -276.83 312.29 C -277.65 313.11 -278.77 313.57 -279.93 313.57 C -281.09 313.57 -282.2 313.11 -283.02 312.29 C -283.84 311.47 -284.3 310.35 -284.3 309.19 Z  M -282.21 309.19 C -282.21 308.59 -281.97 308.01 -281.54 307.58 C -281.11 307.15 -280.53 306.91 -279.93 306.91 C -279.32 306.91 -278.74 307.15 -278.31 307.58 C -277.89 308.01 -277.65 308.59 -277.65 309.19 C -277.65 309.8 -277.89 310.38 -278.31 310.81 C -278.74 311.23 -279.32 311.47 -279.93 311.47 C -280.53 311.47 -281.11 311.23 -281.54 310.81 C -281.97 310.38 -282.21 309.8 -282.21 309.19 Z " fill-rule="evenodd" fill="rgb(235,235,235)"/><path d=" M -379.295 309.195 C -379.295 307.539 -377.951 306.195 -376.295 306.195 C -374.639 306.195 -373.295 307.539 -373.295 309.195 C -373.295 310.851 -374.639 312.195 -376.295 312.195 C -377.951 312.195 -379.295 310.851 -379.295 309.195 Z " fill="rgb(34,30,30)"/><path d=" M -380.67 309.19 C -380.67 308.03 -380.21 306.92 -379.39 306.1 C -378.57 305.28 -377.46 304.82 -376.3 304.82 C -375.14 304.82 -374.02 305.28 -373.2 306.1 C -372.38 306.92 -371.92 308.03 -371.92 309.19 C -371.92 310.35 -372.38 311.47 -373.2 312.29 C -374.02 313.11 -375.14 313.57 -376.3 313.57 C -377.46 313.57 -378.57 313.11 -379.39 312.29 C -380.21 311.47 -380.67 310.35 -380.67 309.19 Z  M -378.58 309.19 C -378.58 308.59 -378.34 308.01 -377.91 307.58 C -377.48 307.15 -376.9 306.91 -376.3 306.91 C -375.69 306.91 -375.11 307.15 -374.68 307.58 C -374.26 308.01 -374.02 308.59 -374.02 309.19 C -374.02 309.8 -374.26 310.38 -374.68 310.81 C -375.11 311.23 -375.69 311.47 -376.3 311.47 C -376.9 311.47 -377.48 311.23 -377.91 310.81 C -378.34 310.38 -378.58 309.8 -378.58 309.19 Z " fill-rule="evenodd" fill="rgb(235,235,235)"/><path d=" M -377.86 309.23 C -377.82 308.81 -377.62 308.43 -377.3 308.16 C -376.98 307.9 -376.56 307.77 -376.15 307.81 C -375.73 307.85 -375.35 308.05 -375.09 308.37 C -374.82 308.7 -374.69 309.11 -374.73 309.52 C -375.29 315.38 -375.75 321.25 -376.1 327.13 C -376.36 331.31 -376.49 335.5 -376.5 339.69 C -376.5 342.92 -376.41 346.15 -376.24 349.38 C -376.05 352.89 -375.82 356.39 -375.57 359.89 C -375.14 365.95 -374.76 372.01 -374.43 378.08 C -373.87 388.74 -373.59 399.42 -373.59 410.1 C -373.59 421.07 -373.87 432.04 -374.43 442.99 C -374.45 443.41 -374.64 443.8 -374.95 444.08 C -375.26 444.36 -375.67 444.5 -376.08 444.48 C -376.5 444.46 -376.89 444.27 -377.17 443.97 C -377.45 443.66 -377.59 443.25 -377.57 442.83 C -377.01 431.93 -376.73 421.02 -376.73 410.1 C -376.73 399.48 -377.01 388.85 -377.57 378.24 C -377.9 372.2 -378.28 366.16 -378.7 360.12 C -378.96 356.6 -379.18 353.07 -379.37 349.55 C -379.55 346.26 -379.64 342.98 -379.64 339.69 C -379.63 335.44 -379.5 331.18 -379.24 326.94 C -378.88 321.03 -378.42 315.12 -377.86 309.23 Z " fill="rgb(235,235,235)"/><path d=" M -278.36 418.31 C -278.32 418.73 -278.45 419.14 -278.72 419.46 C -278.98 419.78 -279.36 419.99 -279.78 420.03 C -280.19 420.07 -280.61 419.94 -280.93 419.67 C -281.25 419.41 -281.45 419.03 -281.49 418.61 C -282.34 409.71 -282.89 400.78 -283.13 391.83 C -283.33 384.63 -283.22 377.42 -282.81 370.22 C -282.47 364.15 -282.25 358.07 -282.15 351.99 C -282.05 346.03 -281.98 340.07 -281.95 334.11 C -281.93 329.77 -281.89 325.44 -281.83 321.1 C -281.78 317.24 -281.67 313.38 -281.49 309.52 C -281.48 309.1 -281.29 308.71 -280.99 308.43 C -280.68 308.15 -280.27 308 -279.86 308.02 C -279.44 308.04 -279.05 308.22 -278.77 308.53 C -278.49 308.84 -278.34 309.25 -278.36 309.66 C -278.53 313.49 -278.64 317.31 -278.69 321.14 C -278.75 325.47 -278.79 329.8 -278.81 334.12 C -278.84 340.1 -278.91 346.07 -279.01 352.05 C -279.11 358.17 -279.33 364.28 -279.67 370.4 C -280.08 377.51 -280.18 384.63 -279.99 391.75 C -279.75 400.62 -279.21 409.48 -278.36 418.31 Z " fill="rgb(235,235,235)"/></g></svg>