<?xml version="1.0" standalone="no"?><!-- Generator: Gravit.io --><svg xmlns="http://www.w3.org/2000/svg" xmlns:xlink="http://www.w3.org/1999/xlink" style="isolation:isolate" viewBox="1419.078 491.305 205.844 89.39" width="205.844" height="89.39"><g id="4 - Sc"><path d=" M 1429.02105 537.69055 C 1428.58105 537.69055 1428.22104 538.04002 1428.1642 538.52214 L 1426.14102 557.00867 L 1428.1642 575.08466 C 1428.22104 575.56677 1428.58105 575.91835 1429.02105 575.91835 C 1429.45474 575.91835 1429.80632 575.57308 1429.8758 575.08677 L 1432.17898 557.00656 L 1429.8758 538.52003 C 1429.80632 538.0295 1429.45474 537.69055 1429.02105 537.69055 Z " fill="rgb(255,58,0)"/><path d=" M 1421.41044 544.77274 C 1420.98307 544.77274 1420.64201 545.10116 1420.58517 545.57906 L 1419.07778 557.00867 L 1420.58517 568.24459 C 1420.6399 568.72038 1420.98096 569.0488 1421.41044 569.0488 C 1421.82729 569.0488 1422.16624 568.72038 1422.23361 568.24879 L 1424.01678 557.00867 L 1422.23361 545.56853 C 1422.16624 545.10116 1421.82729 544.77274 1421.41044 544.77274 Z " fill="rgb(255,58,0)"/><path d=" M 1437.10746 534.06524 C 1436.56429 534.06524 1436.13061 534.49051 1436.07587 535.07579 L 1434.15374 557.00867 L 1436.07587 578.13943 C 1436.13061 578.7268 1436.56429 579.14997 1437.10746 579.14997 C 1437.6401 579.14997 1438.07378 578.7268 1438.13694 578.14153 L 1440.31802 557.00656 L 1438.13694 535.07367 C 1438.07378 534.49051 1437.6401 534.06524 1437.10746 534.06524 Z " fill="rgb(255,58,0)"/><path d=" M 1445.26124 533.2905 C 1444.62123 533.2905 1444.10122 533.79998 1444.0507 534.47788 L 1442.23594 557.01498 L 1444.0507 578.81312 C 1444.10122 579.48681 1444.62123 579.9984 1445.26124 579.9984 C 1445.89072 579.9984 1446.40862 579.48681 1446.46757 578.81312 L 1448.52864 557.01498 L 1446.46757 534.47367 C 1446.40862 533.79998 1445.89072 533.2905 1445.26124 533.2905 Z " fill="rgb(255,58,0)"/><path d=" M 1454.85924 578.99627 L 1454.85924 578.99627 L 1454.85924 579.00048 L 1454.85924 578.99627 Z " fill="rgb(255,58,0)"/><path d=" M 1454.85924 536.10106 C 1454.80871 535.33263 1454.21081 534.74525 1453.47817 534.74525 C 1452.735 534.74525 1452.14131 535.33052 1452.095 536.10737 L 1450.38129 557.01287 L 1452.095 578.99417 C 1452.14131 579.76682 1452.73711 580.35419 1453.47817 580.35419 C 1454.21291 580.35419 1454.80871 579.76682 1454.85924 578.99417 L 1456.80242 557.01287 L 1454.85924 536.10106 Z " fill="rgb(255,58,0)"/><path d=" M 1461.76458 521.46931 C 1460.93088 521.46931 1460.24877 522.14721 1460.20667 523.01249 L 1458.59823 557.0234 L 1460.20667 579.0026 C 1460.25088 579.85735 1460.93299 580.53735 1461.76458 580.53735 C 1462.58985 580.53735 1463.27197 579.85945 1463.32249 578.99627 L 1463.32249 579.00471 L 1465.14146 557.02551 L 1463.32249 523.01249 C 1463.26986 522.14721 1462.58775 521.46931 1461.76458 521.46931 Z " fill="rgb(255,58,0)"/><path d=" M 1469.98573 513.63554 C 1469.05309 513.63554 1468.29308 514.38924 1468.25097 515.35135 C 1468.25097 515.35556 1466.74569 557.1413 1466.74569 557.1413 L 1468.25307 578.98365 C 1468.29518 579.94156 1469.05309 580.69524 1469.98573 580.69524 C 1470.91205 580.69524 1471.67838 579.94156 1471.71838 578.97944 L 1471.71838 578.99207 L 1473.42155 557.1413 L 1471.71838 515.35135 C 1471.67838 514.38924 1470.91205 513.63554 1469.98573 513.63554 Z " fill="rgb(255,58,0)"/><path d=" M 1478.53319 509.85866 C 1477.49949 509.85866 1476.65948 510.69235 1476.62369 511.75341 C 1476.62369 511.75552 1475.22368 557.03392 1475.22368 557.03392 L 1476.62369 578.65102 C 1476.66159 579.70366 1477.49949 580.53525 1478.53319 580.53525 C 1479.56057 580.53525 1480.40058 579.70366 1480.44269 578.64469 L 1480.44269 578.65733 L 1482.02376 557.03603 L 1480.44269 511.75341 C 1480.39848 510.69235 1479.56057 509.85866 1478.53319 509.85866 Z " fill="rgb(255,58,0)"/><path d=" M 1489.09962 510.23129 C 1489.06384 509.06918 1488.14803 508.15758 1487.0175 508.15758 C 1485.87854 508.15758 1484.96274 509.07128 1484.93116 510.23129 L 1483.6343 557.03392 L 1484.93326 578.51628 C 1484.96484 579.66576 1485.87854 580.57524 1487.0175 580.57524 C 1488.14803 580.57524 1489.06594 579.66576 1489.09962 578.50996 L 1490.56069 557.04024 L 1489.09962 510.23129 Z " fill="rgb(255,58,0)"/><path d=" M 1489.09962 578.50786 L 1489.09962 578.50786 L 1489.09962 578.51838 L 1489.09962 578.50786 Z " fill="rgb(255,58,0)"/><path d=" M 1495.56707 509.18285 C 1494.32495 509.18285 1493.33336 510.17024 1493.30388 511.4313 L 1492.1123 557.04235 L 1493.30809 578.31627 C 1493.33546 579.56471 1494.32495 580.5563 1495.56707 580.5563 C 1496.80076 580.5563 1497.79236 579.56261 1497.82604 578.30365 L 1497.82604 578.32048 L 1499.16921 557.03814 L 1497.82604 511.42499 C 1497.79236 510.16603 1496.80076 509.18285 1495.56707 509.18285 Z " fill="rgb(255,58,0)"/><path d=" M 1504.18401 510.67129 C 1502.84505 510.67129 1501.77135 511.73867 1501.74608 513.09869 L 1500.65765 557.04235 L 1501.74608 578.18996 C 1501.77135 579.53734 1502.84505 580.60051 1504.18401 580.60051 C 1505.52087 580.60051 1506.59246 579.53734 1506.61772 578.17521 L 1506.61772 578.19206 L 1507.83878 557.04866 L 1506.61772 513.10079 C 1506.59246 511.73867 1505.52087 510.67129 1504.18401 510.67129 Z " fill="rgb(255,58,0)"/><path d=" M 1514.31044 502.59542 C 1513.8978 502.31541 1513.39884 502.1512 1512.86621 502.1512 C 1512.34831 502.1512 1511.8662 502.30909 1511.45988 502.57436 C 1510.74619 503.03963 1510.26828 503.84174 1510.25565 504.75544 L 1510.24723 505.24807 L 1509.26617 557.03392 C 1509.26617 557.0634 1510.25565 578.05311 1510.25565 578.05311 C 1510.25565 578.08679 1510.25987 578.10995 1510.26197 578.14153 C 1510.29145 578.7268 1510.5125 579.26576 1510.86829 579.69313 C 1511.3504 580.26788 1512.0683 580.6384 1512.86621 580.6384 C 1513.5757 580.6384 1514.22202 580.34576 1514.6936 579.87418 C 1515.16729 579.4047 1515.46624 578.75628 1515.47887 578.03626 L 1515.58834 575.96045 L 1516.57994 557.04656 L 1515.48098 504.75333 C 1515.46414 503.85438 1515.00097 503.06279 1514.31044 502.59542 Z " fill="rgb(255,58,0)"/><path d=" M 1515.47887 578.05311 L 1515.47887 578.0468 L 1515.47887 578.05521 L 1515.47887 578.04469 L 1515.47887 578.03626 L 1515.47887 578.03626 L 1515.47887 578.0468 L 1515.47887 578.05311 Z " fill="rgb(255,58,0)"/><path d=" M 1522.92948 497.63747 C 1522.51685 497.38483 1522.02842 497.23746 1521.51262 497.23746 C 1520.84735 497.23746 1520.23471 497.47746 1519.7526 497.87326 C 1519.13365 498.38484 1518.73364 499.15538 1518.72102 500.01854 L 1518.7147 500.30486 L 1517.57784 557.05498 L 1518.1589 567.54352 L 1518.72102 577.75416 C 1518.74417 579.26364 1519.9926 580.51419 1521.51262 580.51419 C 1523.02633 580.51419 1524.27476 579.26364 1524.29582 577.73521 L 1524.29582 577.75627 L 1524.29582 577.76048 L 1525.53793 557.05708 L 1525.53793 557.05708 L 1524.30002 500.01433 C 1524.28529 499.0059 1523.7337 498.12379 1522.92948 497.63747 Z " fill="rgb(255,58,0)"/><path d=" M 1599.60193 530.05467 C 1596.13662 530.05467 1592.8229 530.75784 1589.81234 532.0189 C 1587.79337 509.20391 1568.66053 491.30476 1545.32132 491.30476 C 1539.60756 491.30476 1534.0433 492.42898 1529.12534 494.33006 C 1527.21585 495.07112 1526.71058 495.82902 1526.69163 497.30693 C 1526.69163 497.30904 1526.69163 577.66153 1526.69163 577.66153 C 1526.71058 579.20892 1527.91059 580.41525 1529.4243 580.56472 C 1529.48956 580.57314 1599.60614 580.56472 1599.60614 580.56472 C 1613.58945 580.56472 1624.92222 569.35618 1624.92222 555.37075 C 1624.92011 541.38954 1613.58735 530.05467 1599.60193 530.05467 Z " fill="rgb(255,58,0)"/></g></svg>