<?xml version="1.0" standalone="no"?><!-- Generator: Gravit.io --><svg xmlns="http://www.w3.org/2000/svg" xmlns:xlink="http://www.w3.org/1999/xlink" style="isolation:isolate" viewBox="904 468.548 166 134.904" width="166" height="134.904"><g id="4 - Tw"><path d=" M 1070 484.51717 C 1063.89286 487.22629 1057.32839 489.05645 1050.44022 489.8798 C 1057.47115 485.66507 1062.87196 478.99104 1065.41426 471.03798 C 1058.83318 474.94146 1051.54495 477.77508 1043.78694 479.30229 C 1037.57522 472.68304 1028.7241 468.54798 1018.92844 468.54798 C 1000.12064 468.54798 984.87105 483.79591 984.87105 502.60371 C 984.87105 505.27299 985.17234 507.87254 985.75251 510.36503 C 957.44785 508.9449 932.35363 495.38603 915.55609 474.78128 C 912.62453 479.81108 910.94461 485.66091 910.94461 491.90252 C 910.94461 503.7184 916.95713 514.14237 926.09543 520.2495 C 920.51285 520.07271 915.26144 518.54054 910.66988 515.98994 C 910.66656 516.13188 910.66656 516.27464 910.66656 516.41822 C 910.66656 532.91863 922.40608 546.68335 937.98601 549.81245 C 935.12832 550.59098 932.11957 551.00682 929.01371 551.00682 C 926.81919 551.00682 924.68609 550.79268 922.60611 550.39593 C 926.94037 563.92577 939.51736 573.77289 954.42084 574.04679 C 942.76515 583.18177 928.08079 588.62574 912.12404 588.62574 C 909.37508 588.62574 906.6643 588.46472 904 588.14932 C 919.07197 597.81301 936.97341 603.45202 956.20617 603.45202 C 1018.84876 603.45202 1053.10535 551.5571 1053.10535 506.55202 C 1053.10535 505.07544 1053.07215 503.60717 1053.00658 502.14554 C 1059.66069 497.34483 1065.43416 491.34642 1070 484.51717 L 1070 484.51717 Z " fill="rgb(58,170,225)"/></g></svg>