<?xml version="1.0" standalone="no"?><!-- Generator: Gravit.io --><svg xmlns="http://www.w3.org/2000/svg" xmlns:xlink="http://www.w3.org/1999/xlink" style="isolation:isolate" viewBox="1174.817 480.209 159.365 111.581" width="159.365" height="111.581"><g id="4 - Yt"><path d=" M 1330.90015 497.66848 C 1329.06234 490.84232 1323.68018 485.46016 1316.85401 483.62235 C 1304.38314 480.20927 1254.49967 480.20927 1254.49967 480.20927 C 1254.49967 480.20927 1204.61619 480.20927 1192.14531 483.49107 C 1185.45043 485.32889 1179.93699 490.84232 1178.09918 497.66848 C 1174.81737 510.13935 1174.81737 536 1174.81737 536 C 1174.81737 536 1174.81737 561.99192 1178.09918 574.33151 C 1179.93699 581.15768 1185.31915 586.53984 1192.14531 588.37766 C 1204.74746 591.79073 1254.49967 591.79073 1254.49967 591.79073 C 1254.49967 591.79073 1304.38314 591.79073 1316.85401 588.50893 C 1323.68018 586.67111 1329.06234 581.28895 1330.90015 574.46279 C 1334.18196 561.99192 1334.18196 536.13127 1334.18196 536.13127 C 1334.18196 536.13127 1334.31323 510.13935 1330.90015 497.66848 Z " fill="rgb(255,0,0)"/><path d=" M 1238.61571 559.89156 L 1280.09776 536 L 1238.61571 512.10844 L 1238.61571 559.89156 Z " fill="rgb(255,255,255)"/></g></svg>