<?xml version="1.0" standalone="no"?><!-- Generator: Gravit.io --><svg xmlns="http://www.w3.org/2000/svg" xmlns:xlink="http://www.w3.org/1999/xlink" style="isolation:isolate" viewBox="1297 159.123 168.966 168.966" width="168.966" height="168.966"><clipPath id="_clipPath_d4ir3YLOYOH9Z4bBKHpT3vTzsTnjRzPC"><circle vector-effect="non-scaling-stroke" cx="1381.483018162019" cy="243.60645038649858" r="84.4830181620182" fill="rgb(255,255,255)"/></clipPath><g clip-path="url(#_clipPath_d4ir3YLOYOH9Z4bBKHpT3vTzsTnjRzPC)"><g><path d=" M 1320.01 280.498 C 1319.625 282.813 1319.802 285.316 1319.731 285.834 C 1319.659 286.352 1318.037 289.716 1317.797 291.715 C 1317.557 293.714 1317.526 297.065 1315.571 302.732 C 1313.617 308.399 1314.647 312.812 1313.496 318.417 C 1313.043 320.621 1312.465 324.331 1312.121 325.403 C 1311.777 326.474 1312.471 329.927 1312.308 330.489 C 1312.146 331.052 1311.886 331.616 1311.295 334.69 Q 1310.704 337.764 1310.027 340.975 L 1452.939 340.975 Q 1452.162 337.807 1451.964 335.904 C 1451.823 334.56 1451.518 333.112 1451.188 331.786 C 1450.859 330.46 1450.505 329.256 1450.27 328.397 C 1450.035 327.539 1448.599 316.723 1447.716 313.534 C 1446.832 310.346 1445.546 306.912 1445.131 305.601 C 1444.716 304.291 1445.047 297.899 1445.001 297.076 C 1444.956 296.254 1443.684 290.746 1443.171 289.727 C 1442.658 288.708 1442.567 286.491 1442.481 285.874 C 1442.394 285.257 1441.029 277.709 1439.588 273.802 C 1438.148 269.895 1437.204 269.743 1436.568 269.214 C 1435.932 268.684 1433.129 267.454 1428.996 265.27 C 1426.787 263.888 1422.83 263.85 1418.111 262.089 C 1416.077 261.329 1412.393 260.502 1411.801 259.837 Q 1411.831 257.969 1410.539 256.699 C 1409.248 255.429 1409.367 254.616 1408.821 253.479 C 1408.586 252.989 1407.542 251.811 1405.913 250.974 C 1403.981 249.982 1401.449 248.931 1400.156 248.853 C 1397.453 248.691 1397.825 247.803 1391.293 246.665 Q 1379.911 247.018 1373.507 247.746 C 1367.154 247.923 1365.974 248.774 1364.494 248.697 C 1362.306 248.584 1359.566 250.226 1357.811 251.452 C 1356.027 252.697 1354.295 252.168 1352.099 253.282 C 1351.106 253.785 1350.054 255.702 1349.144 257.024 C 1348.131 258.497 1348.755 258.823 1348.11 259.562 C 1347.348 260.435 1347.114 260.297 1345.231 260.996 C 1344.421 261.459 1340.967 262.525 1336.554 264.075 C 1334.85 264.674 1332.488 265.671 1330.824 266.265 C 1327.803 267.344 1324.955 268.08 1323.935 269.199 C 1321.963 271.362 1320.395 278.183 1320.01 280.498 Z " fill="rgb(200,38,38)"/><path d=" M 1355.848 259.544 C 1355.869 259.63 1355.728 258.956 1355.84 258.606 C 1356.339 256.41 1357.825 253.771 1360.283 252.476 C 1361.685 251.596 1361.375 251.904 1363.408 251.119 C 1365.441 250.335 1366.416 250.58 1366.837 250.335 C 1367.593 249.896 1393.848 249.061 1394.579 249.453 C 1395.311 249.845 1397.03 250.12 1397.974 250.677 C 1398.945 251.25 1400.843 252.379 1401.428 252.981 C 1402.538 254.124 1402.636 254.386 1403.289 255.235 C 1403.724 255.8 1404.291 257.404 1404.281 257.812 Q 1404.271 258.219 1404.042 258.964 L 1394.579 262.435 L 1368.808 263.41 L 1358.978 258.336 L 1355.848 259.544 Z " fill="rgb(34,30,30)"/><path d=" M 1366.014 241.068 C 1366.48 248.138 1366.322 252.318 1365.537 253.605 C 1364.256 255.707 1359.129 256.788 1355.862 259.562 C 1355.813 259.639 1355.847 259.903 1355.911 259.955 C 1362.436 265.262 1377.273 271.79 1380.657 271.79 C 1384.041 271.79 1397.378 266.747 1404.042 259.062 C 1404.059 259.037 1404.064 258.906 1404.042 258.824 C 1404.021 258.741 1403.926 258.626 1403.895 258.615 C 1401.513 256.601 1397.702 255.825 1395.624 253.259 C 1394.537 251.916 1394.206 247.188 1394.05 243.823 C 1393.982 242.359 1394.048 240.574 1394.177 238.889 C 1394.372 236.323 1365.896 239.267 1366.014 241.068 Z " fill="rgb(234,201,185)"/><path d=" M 1366.279 240.376 C 1368.358 244.406 1370.766 248.992 1376.521 251.997 C 1382.276 255.001 1393.02 255.668 1397.735 254.996 C 1396.589 254.243 1395.948 253.624 1395.428 252.864 C 1394.908 252.103 1394.469 249.21 1394.312 247.664 C 1394.254 246.627 1393.832 243.539 1394.093 240.309 C 1394.182 239.207 1364.969 237.837 1366.279 240.376 Z " fill="rgb(218,183,171)"/><path d=" M 1358.967 228.347 Q 1357.256 229.017 1356.373 228.347 C 1355.49 227.677 1351.14 222.367 1351.013 219.631 C 1350.885 216.894 1350.521 214.754 1351.358 214.097 Q 1352.958 212.844 1353.779 216.345 Q 1355.102 218.542 1355.723 218.593 Q 1356.344 218.645 1358.967 228.347 Z " fill="rgb(234,201,185)"/><path d=" M 1399.082 225.51 C 1400.505 225.59 1401.418 225.021 1402.195 224.126 C 1402.406 223.883 1405.435 217.764 1405.258 214.361 C 1405.117 211.626 1404.375 209.303 1403.405 208.864 Q 1401.554 208.026 1400.984 209.775 Q 1401.027 214.274 1400.436 214.472 Q 1399.846 214.669 1399.082 225.51 Z " fill="rgb(234,201,185)"/><path d=" M 1355.336 219.111 L 1352.701 210.463 L 1354.645 197.67 Q 1354.718 188.851 1358.58 187.814 C 1362.442 186.776 1371.203 185.393 1375.353 185.566 C 1379.502 185.739 1387.456 185.047 1390.742 185.912 C 1394.027 186.776 1394.027 184.932 1396.967 191.445 Q 1399.906 197.958 1400.598 212.886 L 1400.334 214.616 Q 1399.415 225.238 1399.215 226.027 C 1399.014 226.817 1398.957 230.315 1398.523 232.079 C 1398.089 233.843 1396.98 236.167 1395.929 238.131 C 1394.878 240.096 1391.396 244.886 1390.396 245.74 C 1389.396 246.593 1387.469 250.716 1378.334 249.716 C 1368.175 248.605 1360.85 234.373 1360.482 232.771 C 1360.007 231.294 1358.852 229.528 1358.58 228.519 Q 1358.308 227.51 1355.336 219.111 Z " fill="rgb(244,214,200)"/><path d=" M 1355.588 198.171 C 1356.277 194.126 1357.704 190.029 1360.91 188.679 C 1366.003 186.535 1366.192 187.975 1378.72 186.95 C 1380.644 186.793 1388.841 185.181 1393.245 187.642 C 1396.276 189.336 1396.115 194.127 1397.222 197.671 C 1398.951 203.204 1399.99 208.854 1400.334 214.616 Q 1402.05 213.759 1401.718 209.945 C 1401.385 206.13 1404.71 192.058 1400.334 184.356 C 1398.4 180.952 1390.638 176.442 1386.674 173.636 C 1382.711 170.829 1377.943 168.024 1375.089 165.682 C 1369.709 167.919 1360.989 176.828 1355.031 181.936 C 1350.811 187.376 1349.355 193.317 1349.671 198.708 Q 1350.602 211.211 1352.265 213.406 C 1353.927 215.6 1353.369 217.596 1355.723 218.939 C 1355.587 214.701 1354.513 209.542 1354.685 207.354 C 1354.945 206.21 1354.898 202.216 1355.588 198.171 Z " fill="rgb(21,19,20)"/><path d=" M 1397.437 269.178 C 1397.437 268.743 1397.61 268.323 1397.918 268.016 C 1398.227 267.707 1398.647 267.533 1399.082 267.533 C 1399.518 267.533 1399.938 267.707 1400.247 268.016 C 1400.554 268.323 1400.727 268.743 1400.727 269.178 C 1400.727 269.616 1400.554 270.034 1400.247 270.343 C 1399.938 270.652 1399.518 270.825 1399.082 270.825 C 1398.647 270.825 1398.227 270.652 1397.918 270.343 C 1397.61 270.034 1397.437 269.616 1397.437 269.178 Z  M 1398.225 269.178 C 1398.225 268.951 1398.314 268.733 1398.476 268.572 C 1398.637 268.412 1398.855 268.321 1399.082 268.321 C 1399.31 268.321 1399.528 268.412 1399.689 268.572 C 1399.85 268.733 1399.94 268.951 1399.94 269.178 C 1399.94 269.406 1399.85 269.626 1399.689 269.785 C 1399.528 269.947 1399.31 270.038 1399.082 270.038 C 1398.855 270.038 1398.637 269.947 1398.476 269.785 C 1398.314 269.626 1398.225 269.406 1398.225 269.178 Z " fill-rule="evenodd" fill="rgb(235,235,235)"/><path d=" M 1361.173 269.178 C 1361.173 268.743 1361.348 268.323 1361.655 268.016 C 1361.965 267.707 1362.383 267.533 1362.82 267.533 C 1363.256 267.533 1363.676 267.707 1363.983 268.016 C 1364.292 268.323 1364.465 268.743 1364.465 269.178 C 1364.465 269.616 1364.292 270.034 1363.983 270.343 C 1363.676 270.652 1363.256 270.825 1362.82 270.825 C 1362.383 270.825 1361.965 270.652 1361.655 270.343 C 1361.348 270.034 1361.173 269.616 1361.173 269.178 Z  M 1361.961 269.178 C 1361.961 268.951 1362.052 268.733 1362.214 268.572 C 1362.373 268.412 1362.593 268.321 1362.82 268.321 C 1363.048 268.321 1363.265 268.412 1363.427 268.572 C 1363.588 268.733 1363.678 268.951 1363.678 269.178 C 1363.678 269.406 1363.588 269.626 1363.427 269.785 C 1363.265 269.947 1363.048 270.038 1362.82 270.038 C 1362.593 270.038 1362.373 269.947 1362.214 269.785 C 1362.052 269.626 1361.961 269.406 1361.961 269.178 Z " fill-rule="evenodd" fill="rgb(235,235,235)"/><path d=" M 1398.225 269.178 C 1398.225 268.951 1398.314 268.733 1398.476 268.572 C 1398.637 268.412 1398.855 268.321 1399.082 268.321 C 1399.31 268.321 1399.528 268.412 1399.689 268.572 C 1399.85 268.733 1399.94 268.951 1399.94 269.178 C 1399.94 269.406 1399.85 269.626 1399.689 269.785 C 1399.528 269.947 1399.31 270.038 1399.082 270.038 C 1398.855 270.038 1398.637 269.947 1398.476 269.785 C 1398.314 269.626 1398.225 269.406 1398.225 269.178 Z " fill="rgb(0,0,0)"/><path d=" M 1361.961 269.178 C 1361.961 268.951 1362.052 268.733 1362.214 268.572 C 1362.373 268.412 1362.593 268.321 1362.82 268.321 C 1363.048 268.321 1363.265 268.412 1363.427 268.572 C 1363.588 268.733 1363.678 268.951 1363.678 269.178 C 1363.678 269.406 1363.588 269.626 1363.427 269.785 C 1363.265 269.947 1363.048 270.038 1362.82 270.038 C 1362.593 270.038 1362.373 269.947 1362.214 269.785 C 1362.052 269.626 1361.961 269.406 1361.961 269.178 Z " fill="rgb(0,0,0)"/><path d=" M 1362.231 269.192 C 1362.247 269.037 1362.322 268.893 1362.443 268.793 C 1362.564 268.692 1362.719 268.644 1362.875 268.659 C 1363.03 268.673 1363.174 268.749 1363.275 268.869 C 1363.374 268.99 1363.423 269.145 1363.407 269.301 C 1363.297 270.508 1363.194 271.716 1363.098 272.923 C 1363.02 273.925 1362.952 274.926 1362.892 275.928 C 1362.797 277.501 1362.748 279.078 1362.742 280.655 C 1362.744 281.87 1362.777 283.085 1362.842 284.3 C 1362.914 285.619 1362.997 286.939 1363.092 288.255 C 1363.254 290.536 1363.398 292.815 1363.52 295.098 C 1363.734 299.111 1363.839 303.131 1363.839 307.15 C 1363.839 311.276 1363.734 315.404 1363.52 319.526 C 1363.512 319.682 1363.442 319.829 1363.328 319.934 C 1363.211 320.039 1363.057 320.094 1362.9 320.086 C 1362.744 320.076 1362.597 320.006 1362.492 319.892 C 1362.387 319.775 1362.332 319.621 1362.342 319.464 C 1362.552 315.363 1362.659 311.256 1362.659 307.15 C 1362.659 303.15 1362.552 299.154 1362.342 295.16 C 1362.217 292.887 1362.075 290.612 1361.914 288.341 C 1361.819 287.015 1361.735 285.691 1361.661 284.365 C 1361.597 283.128 1361.564 281.891 1361.56 280.653 C 1361.566 279.052 1361.617 277.454 1361.714 275.858 C 1361.772 274.849 1361.842 273.839 1361.92 272.832 C 1362.015 271.619 1362.12 270.405 1362.231 269.192 Z " fill="rgb(235,235,235)"/><path d=" M 1399.671 310.239 C 1399.685 310.395 1399.638 310.551 1399.537 310.671 C 1399.438 310.792 1399.294 310.867 1399.139 310.883 C 1398.983 310.899 1398.827 310.85 1398.707 310.751 C 1398.584 310.652 1398.509 310.508 1398.495 310.35 C 1398.174 307 1397.968 303.64 1397.877 300.274 C 1397.803 297.564 1397.844 294.849 1397.999 292.142 C 1398.124 289.858 1398.205 287.571 1398.244 285.284 C 1398.283 283.04 1398.308 280.797 1398.32 278.555 C 1398.328 276.923 1398.343 275.292 1398.367 273.66 C 1398.384 272.206 1398.427 270.753 1398.491 269.301 C 1398.499 269.145 1398.569 268.998 1398.684 268.893 C 1398.798 268.786 1398.952 268.731 1399.109 268.739 C 1399.265 268.745 1399.413 268.815 1399.518 268.93 C 1399.625 269.046 1399.679 269.198 1399.673 269.355 C 1399.607 270.794 1399.566 272.235 1399.547 273.676 C 1399.526 275.304 1399.51 276.931 1399.5 278.56 C 1399.491 280.808 1399.465 283.056 1399.426 285.304 C 1399.387 287.606 1399.304 289.908 1399.178 292.209 C 1399.026 294.884 1398.985 297.564 1399.059 300.243 C 1399.148 303.582 1399.353 306.914 1399.671 310.239 Z " fill="rgb(235,235,235)"/></g></g></svg>